<svg width="120" height="112" viewBox="0 0 120 112" fill="none" xmlns="http://www.w3.org/2000/svg">
<g clip-path="url(#clip0_580_6202)">
<path d="M81.2492 21.211C80.9317 20.9938 80.5237 20.9404 80.1637 21.0766L30.6 39.5554H15.5317C6.96738 39.5554 0 46.5029 0 55.0446C0 63.5863 6.96738 70.5338 15.5335 70.5338H18.2105V88.8266C18.2105 89.4728 18.7348 90.003 19.3902 90.003H30.8197C31.4677 90.003 31.9994 89.4746 31.9994 88.8266V71.0511L80.1674 89.0144C80.3022 89.0623 80.4388 89.0844 80.5809 89.0844C80.8172 89.0844 81.0517 89.0144 81.2529 88.8782C81.5705 88.6554 81.7606 88.2965 81.7606 87.908V22.1738C81.7606 21.7909 81.5723 21.4337 81.2529 21.2091L81.2492 21.211ZM29.64 87.6503H20.568V70.5338H29.64V87.6503ZM29.64 68.1811H15.5335C8.27077 68.1811 2.35754 62.2848 2.35754 55.0446C2.35754 47.8044 8.27077 41.9062 15.5335 41.9062H29.64V68.1811ZM79.3994 86.2144L31.9975 68.5383V41.5491L66.5705 28.6592V71.064C66.5705 71.7101 67.0948 72.2403 67.7502 72.2403C68.4055 72.2403 68.9299 71.7119 68.9299 71.064V27.7756L79.3994 23.8729V86.2163V86.2144Z" fill="white"/>
<path d="M93.0922 55.0435C93.0922 61.5271 88.1058 66.8693 81.7568 67.4639V65.1002C86.8024 64.513 90.7347 60.2274 90.7347 55.0435C90.7347 49.8596 86.8024 45.574 81.7568 44.9867V42.623C88.1058 43.2177 93.0922 48.5599 93.0922 55.0435Z" fill="#F99D1C"/>
<path d="M118.821 53.8672H101.094C100.442 53.8672 99.9141 54.3937 99.9141 55.0435C99.9141 55.6933 100.442 56.2198 101.094 56.2198H118.821C119.472 56.2198 120 55.6933 120 55.0435C120 54.3937 119.472 53.8672 118.821 53.8672Z" fill="#F99D1C"/>
<path d="M97.8539 41.9069C98.1603 41.9069 98.4649 41.7891 98.6957 41.5553L108.054 32.0435C108.51 31.5796 108.502 30.8359 108.037 30.3812C107.574 29.9265 106.826 29.9338 106.37 30.3977L97.012 39.9096C96.556 40.3735 96.5634 41.1172 97.0286 41.5719C97.2576 41.7965 97.5566 41.9088 97.8539 41.9088V41.9069Z" fill="#F99D1C"/>
<path d="M98.6957 68.5325C98.2397 68.0686 97.492 68.0612 97.0286 68.5159C96.5634 68.9706 96.556 69.7144 97.012 70.1783L106.37 79.6901C106.601 79.9239 106.906 80.0417 107.212 80.0417C107.518 80.0417 107.808 79.9294 108.037 79.7048C108.502 79.2501 108.51 78.5064 108.054 78.0425L98.6957 68.5307V68.5325Z" fill="#F99D1C"/>
</g>
<defs>
<clipPath id="clip0_580_6202">
<rect width="120" height="69" fill="white" transform="translate(0 21)"/>
</clipPath>
</defs>
</svg>
