<svg width="112" height="113" viewBox="0 0 112 113" fill="none" xmlns="http://www.w3.org/2000/svg">
<g clip-path="url(#clip0_580_6182)">
<path d="M96.8629 30.1654C96.8506 30.1409 96.8384 30.1148 96.8247 30.0964C96.7743 30.0014 96.7118 29.9063 96.6294 29.8312V29.825L77.7744 10.873C77.7744 10.873 77.7622 10.8669 77.7622 10.8608C77.6874 10.7918 77.605 10.7289 77.5103 10.6783C77.4859 10.666 77.4539 10.6461 77.4218 10.6338C77.3394 10.5894 77.2524 10.5587 77.1639 10.5388C77.1319 10.5326 77.1075 10.5265 77.083 10.5265C77.0205 10.5142 76.9518 10.502 76.8816 10.502H30.517C29.8196 10.502 29.2611 11.0708 29.2611 11.7639V23.1842H8.39465C7.69723 23.1842 7.13867 23.753 7.13867 24.4461V45.9603C7.13867 46.6549 7.69723 47.2222 8.39465 47.2222H29.2611V52.8158H31.7746V13.0258H75.6256V30.722C75.6256 31.4166 76.1918 31.984 76.8816 31.984H94.4867V99.975H31.7746V93.0996H29.2611V101.237C29.2611 101.938 29.8196 102.499 30.517 102.499H95.7442C96.4355 102.499 97.0002 101.938 97.0002 101.237V30.7205C97.0002 30.5242 96.9498 30.3356 96.8613 30.1654H96.8629ZM29.255 44.6984H9.65064V25.7096H29.255V44.6984ZM78.1391 29.4586V14.8122L92.7103 29.4586H78.1391Z" fill="white"/>
<path d="M60.1495 21.332H38.5948C37.9005 21.332 37.3389 21.8978 37.3389 22.594C37.3389 23.2901 37.902 23.8559 38.5948 23.8559H60.1495C60.8439 23.8559 61.4055 23.2901 61.4055 22.594C61.4055 21.8978 60.8424 21.332 60.1495 21.332Z" fill="#F99D1C"/>
<path d="M12.6466 42.0942H26.1175C26.8119 42.0942 27.3735 41.5284 27.3735 40.8322C27.3735 40.1361 26.8104 39.5703 26.1175 39.5703H12.6466C11.9522 39.5703 11.3906 40.1361 11.3906 40.8322C11.3906 41.5284 11.9538 42.0942 12.6466 42.0942Z" fill="white"/>
<path d="M18.0352 29.5762H12.6465V34.9904H18.0352V29.5762Z" fill="#F99D1C"/>
<path d="M86.3188 53.7743C86.3188 53.7559 86.3188 53.7421 86.3127 53.7237C86.3066 53.7053 86.2944 53.6854 86.2883 53.667C86.2501 53.5597 86.2074 53.4585 86.1494 53.3695C86.1311 53.3511 86.1174 53.3373 86.0991 53.3189C86.0426 53.2361 85.9739 53.1671 85.8976 53.1043C85.8793 53.092 85.8595 53.0721 85.835 53.0537C85.7465 52.9908 85.6458 52.9402 85.5405 52.8957C85.5161 52.8896 85.4962 52.8835 85.4718 52.8773C85.3528 52.839 85.2337 52.8145 85.1071 52.8145H7.25598C7.13084 52.8145 7.00418 52.839 6.88514 52.8773C6.87293 52.8835 6.85309 52.8896 6.84088 52.8957C6.72185 52.9341 6.61502 52.9908 6.5143 53.0598C6.50819 53.0721 6.50209 53.0782 6.48988 53.0843C6.29454 53.2361 6.14498 53.4508 6.06257 53.6961C6.06257 53.7084 6.05647 53.7145 6.05647 53.7207C6.05036 53.7268 6.05647 53.7329 6.05036 53.7391C6.02594 53.8464 6 53.9599 6 54.0733V91.8317C6 92.5263 6.56618 93.0936 7.25598 93.0936H85.1056C85.7969 93.0936 86.3615 92.5247 86.3615 91.8317V54.0733C86.3615 53.9721 86.3432 53.8709 86.3173 53.7697L86.3188 53.7743ZM80.8645 55.346L46.1869 77.9335L11.5108 55.3475H80.866L80.8645 55.346ZM83.8496 90.5728H8.51349V56.4009L45.5032 80.4973C45.7107 80.6353 45.9488 80.7058 46.1884 80.7058C46.428 80.7058 46.66 80.6368 46.8675 80.4973L83.8511 56.4071V90.5728H83.8496Z" fill="#F99D1C"/>
</g>
<defs>
<clipPath id="clip0_580_6182">
<rect width="91" height="92" fill="white" transform="translate(6 10.5)"/>
</clipPath>
</defs>
</svg>
