<svg width="95" height="96" viewBox="0 0 95 96" fill="none" xmlns="http://www.w3.org/2000/svg">
<g clip-path="url(#clip0_580_6167)">
<path d="M72.2585 72.6627H63.8494C63.3174 72.6627 62.8361 72.3492 62.6223 71.8616L58.303 62.0512H36.6952L32.3759 71.8616C32.1622 72.3477 31.6808 72.6612 31.1488 72.6612H22.7397C22.2869 72.6612 21.8642 72.4332 21.6172 72.0532C21.3686 71.6732 21.3306 71.195 21.5127 70.7802L42.0675 24.1336C42.2812 23.6475 42.7626 23.334 43.2946 23.334H51.7021C52.2341 23.334 52.7154 23.6475 52.9292 24.1336L73.484 70.7802C73.6661 71.195 73.6281 71.6732 73.3795 72.0532C73.1325 72.4332 72.7097 72.6612 72.2569 72.6612L72.2585 72.6627ZM50.8297 26.0162H44.1702L24.7965 69.9822H30.2748L34.5942 60.1718C34.8079 59.6857 35.2892 59.3722 35.8212 59.3722H59.1786C59.7106 59.3722 60.1919 59.6857 60.4057 60.1734L64.725 69.9837H70.2033L50.8297 26.0177V26.0162Z" fill="#F99D1C"/>
<path d="M55.9759 54.778H39.0263C38.5735 54.778 38.1507 54.55 37.9037 54.17C37.6567 53.79 37.6172 53.3118 37.8008 52.897L46.2764 33.6785C46.4917 33.1924 46.9715 32.8789 47.5035 32.8789C48.0355 32.8789 48.5152 33.1924 48.7306 33.6785L57.2046 52.897C57.3867 53.3118 57.3487 53.79 57.1017 54.17C56.8547 54.55 56.4319 54.778 55.9791 54.778H55.9759ZM47.5019 37.5402L41.0831 52.0958H53.9207L47.5019 37.5402Z" fill="#F99D1C"/>
<path d="M84.0703 0.5H95V11.4297H84.0703V0.5Z" fill="white"/>
<path d="M-6.77109e-05 0.5H10.9297V11.4297H-6.77109e-05V0.5Z" fill="white"/>
<path d="M84.0703 84.5703H95V95.5001H84.0703V84.5703Z" fill="white"/>
<path d="M-6.77109e-05 84.5703H10.9297V95.5001H-6.77109e-05V84.5703Z" fill="white"/>
<path d="M18.2316 4.62891H76.7722C77.5132 4.62891 78.1133 5.22899 78.1133 5.96999C78.1133 6.71099 77.5132 7.31107 76.7722 7.31107H18.2316C17.4906 7.31107 16.8905 6.71099 16.8905 5.96999C16.8905 5.22899 17.4906 4.62891 18.2316 4.62891Z" fill="white"/>
<path d="M18.2316 88.6973H76.7722C77.5132 88.6973 78.1133 89.2973 78.1133 90.0383C78.1133 90.7793 77.5132 91.3794 76.7722 91.3794H18.2316C17.4906 91.3794 16.8905 90.7793 16.8905 90.0383C16.8905 89.2973 17.4906 88.6973 18.2316 88.6973Z" fill="white"/>
<path d="M4.1274 77.2616V18.7337C4.1274 17.9927 4.72748 17.3926 5.46848 17.3926C6.20948 17.3926 6.80957 17.9927 6.80957 18.7337V77.2632C6.80957 78.0042 6.20948 78.6043 5.46848 78.6043C4.72748 78.6043 4.1274 78.0042 4.1274 77.2632V77.2616Z" fill="white"/>
<path d="M88.1948 77.2616V18.7337C88.1948 17.9927 88.7949 17.3926 89.5359 17.3926C90.2769 17.3926 90.877 17.9927 90.877 18.7337V77.2632C90.877 78.0042 90.2769 78.6043 89.5359 78.6043C88.7949 78.6043 88.1948 78.0042 88.1948 77.2632V77.2616Z" fill="white"/>
</g>
<defs>
<clipPath id="clip0_580_6167">
<rect width="95" height="95" fill="white" transform="matrix(-1 0 0 1 95 0.5)"/>
</clipPath>
</defs>
</svg>
