<svg width="112" height="112" viewBox="0 0 112 112" fill="none" xmlns="http://www.w3.org/2000/svg">
<g clip-path="url(#clip0_580_6212)">
<path d="M92.9913 30.2825C92.9913 30.197 92.9776 30.11 92.9601 30.0245C92.9551 29.993 92.9464 29.954 92.9377 29.9225C92.9289 29.9015 92.9289 29.879 92.9202 29.852C92.8978 29.7935 92.8716 29.7335 92.8441 29.6795C92.8354 29.669 92.8304 29.6525 92.8267 29.642C92.7781 29.5505 92.7145 29.4755 92.6484 29.405C92.6397 29.3885 92.626 29.378 92.6122 29.3675C92.5324 29.2865 92.4427 29.222 92.3492 29.18L51.797 8.096C51.7883 8.096 51.7746 8.09 51.7658 8.0855C51.7434 8.075 51.7172 8.069 51.6898 8.0585C51.6536 8.042 51.6137 8.027 51.5738 8.021C51.5464 8.015 51.5202 8.0105 51.494 8.0105C51.4579 8.0045 51.418 8 51.3818 8C51.3457 8 51.3145 8.006 51.2796 8.0105C51.2484 8.0165 51.2172 8.0165 51.1861 8.021C51.1499 8.0315 51.115 8.048 51.0838 8.0585C51.0527 8.069 51.0215 8.0795 50.9941 8.096C50.9853 8.096 50.9766 8.102 50.9666 8.1065L39.0659 14.486C38.6906 14.684 38.45 15.131 38.4538 15.6245C38.4587 16.118 38.7081 16.559 39.0834 16.7525L50.3644 22.451V41.7635L50.3283 41.78L18.6433 57.173C18.6209 57.1835 18.6035 57.2045 18.5847 57.2165C18.5399 57.2375 18.5 57.26 18.4601 57.2915C18.4426 57.302 18.4339 57.323 18.4152 57.335C18.389 57.362 18.3616 57.389 18.3391 57.416C18.2942 57.464 18.2543 57.518 18.2182 57.5765C18.1957 57.608 18.1733 57.641 18.1558 57.6725C18.1247 57.737 18.0973 57.8075 18.0761 57.8765C18.0673 57.908 18.0536 57.941 18.0449 57.9785C18.0224 58.0745 18.0087 58.172 18.005 58.268C18.005 58.2845 18 58.295 18 58.3115V75.6155C18 76.109 18.2456 76.556 18.6246 76.748L59.7466 97.898C59.7728 97.9085 59.7952 97.9145 59.8227 97.925C59.8451 97.9355 59.8675 97.946 59.8937 97.952C59.9785 97.979 60.0633 98 60.1531 98C60.2428 98 60.3276 97.979 60.4124 97.952C60.4348 97.946 60.4573 97.9355 60.4797 97.925C60.5022 97.919 60.5283 97.9145 60.5508 97.904L92.3654 81.857C92.7494 81.6635 92.995 81.212 92.995 80.7125V63.1565C92.995 63.1565 93 63.146 93 63.14V30.3305C93 30.314 92.995 30.299 92.9913 30.2825ZM42.0657 15.578L51.3955 10.583L89.3307 30.299L80.1792 34.8485L51.802 20.504C51.7933 20.498 51.7845 20.4935 51.7708 20.4875L42.0657 15.5795V15.578ZM20.0535 74.7995V60.1865L36.0661 68.3555L36.3255 68.4905L58.9898 80.048L59.1107 94.8875L20.0535 74.7995ZM60.0109 77.888L40.2267 67.7915L39.2978 67.319L39.2804 67.3085L36.6334 65.96L36.616 65.9495L35.6958 65.483L32.2721 63.737L21.7105 58.3505L45.0306 47.018L50.3295 44.4455L50.3607 44.429L51.3743 43.9355L52.383 44.4455L52.4142 44.462V44.456L89.3182 63.1355L75.9937 69.8435L74.6683 70.5095L74.6546 70.5155L72.0213 71.8415L71.9989 71.852L70.696 72.5075L60.0134 77.8895L60.0109 77.888ZM90.9415 79.8965L61.1617 94.913L61.148 93.3935L61.0408 80.042L90.9403 64.994V79.898L90.9415 79.8965ZM90.9465 61.277L52.4129 41.7815V23.495L79.7777 37.3235C79.9024 37.388 80.037 37.4195 80.1754 37.4195C80.3138 37.4195 80.4385 37.388 80.5682 37.328L90.9465 32.1725V61.2755V61.277Z" fill="white"/>
<path d="M74.6529 70.5136L72.0184 71.8396L71.9959 71.8501L51.3639 61.3561L51.3502 61.3501L39.2799 67.3066L36.6317 65.9581L36.6143 65.9476L50.3278 59.1871V44.4436L50.359 44.4286L51.3726 43.9336L52.3813 44.4436V59.1976L74.6529 70.5136Z" fill="#F99D1C"/>
</g>
<defs>
<clipPath id="clip0_580_6212">
<rect width="75" height="90" fill="white" transform="translate(18 8)"/>
</clipPath>
</defs>
</svg>
