<svg width="61" height="97" viewBox="0 0 61 97" fill="none" xmlns="http://www.w3.org/2000/svg">
<g clip-path="url(#clip0_580_6193)">
<path d="M17.8943 40.528C13.6579 40.528 10.209 37.0958 10.209 32.8763C10.209 28.6568 13.6563 25.2246 17.8943 25.2246C22.1323 25.2246 25.5796 28.6568 25.5796 32.8763C25.5796 37.0958 22.1323 40.528 17.8943 40.528ZM17.8943 28.2348C15.3239 28.2348 13.2324 30.3171 13.2324 32.8763C13.2324 35.4355 15.3239 37.5177 17.8943 37.5177C20.4647 37.5177 22.5561 35.4355 22.5561 32.8763C22.5561 30.3171 20.4647 28.2348 17.8943 28.2348Z" fill="#F99D1C"/>
<path d="M22.4501 82.0772C22.8918 81.6084 23.1662 80.9811 23.1662 80.2876C23.1662 78.8374 21.9857 77.6621 20.5292 77.6621C19.0727 77.6621 17.8922 78.8374 17.8922 80.2876C17.8922 78.8374 16.7117 77.6621 15.2552 77.6621C13.7986 77.6621 12.6182 78.8374 12.6182 80.2876C12.6182 80.9811 12.8942 81.6084 13.3342 82.0772L13.3278 82.0805L13.3765 82.1273C13.3878 82.1387 13.3992 82.15 13.4106 82.1613L17.8922 86.5635L22.3738 82.1613C22.3852 82.15 22.3965 82.1403 22.4079 82.129L22.4566 82.0821L22.4501 82.0788V82.0772Z" fill="#F99D1C"/>
<path d="M60.5 42.6121V10.2125C60.5 4.58163 55.8982 0 50.2426 0H10.7574C5.10177 0 0.5 4.58163 0.5 10.2125V86.7875C0.5 92.4184 5.10177 97 10.7574 97H50.2426C55.8982 97 60.5 92.4184 60.5 86.7875V42.6121ZM3.52184 57.7021L11.4637 49.7949L24.285 62.5601C24.5805 62.8544 24.967 63.0015 25.3535 63.0015C25.7399 63.0015 26.1264 62.8544 26.4219 62.5601C27.0129 61.9733 27.0129 61.0195 26.4219 60.4326L24.9849 59.0019L49.1498 34.941L57.4749 43.2361V68.7633H3.52184V57.7021ZM50.2215 31.7513C49.9374 31.4684 49.5541 31.31 49.1531 31.31C48.752 31.31 48.3672 31.4684 48.0846 31.7513L22.8496 56.8759L12.5338 46.6053C11.9427 46.0168 10.9863 46.0168 10.3969 46.6053L3.52346 53.4486V15.0463H57.4782V38.9795L50.2231 31.7513H50.2215ZM10.7574 3.00862H50.2426C54.2322 3.00862 57.4765 6.24033 57.4765 10.2125V12.0377H3.52184V10.2125C3.52184 6.24033 6.76776 3.00862 10.7557 3.00862H10.7574ZM50.2426 93.9914H10.7574C6.76776 93.9914 3.52346 90.7597 3.52346 86.7891V71.7751H57.4782V86.7891C57.4782 90.7613 54.2322 93.9914 50.2443 93.9914H50.2426Z" fill="white"/>
</g>
<defs>
<clipPath id="clip0_580_6193">
<rect width="60" height="97" fill="white" transform="translate(0.5)"/>
</clipPath>
</defs>
</svg>
