<svg width="112" height="113" viewBox="0 0 112 113" fill="none" xmlns="http://www.w3.org/2000/svg">
<g clip-path="url(#clip0_580_6188)">
<path d="M79.3829 77.9975C80.8037 81.0153 83.8661 83.1135 87.4165 83.1135C92.3141 83.1135 96.2981 79.1314 96.2981 74.2345C96.2981 69.3376 92.3141 65.3555 87.4165 65.3555C82.5189 65.3555 78.5349 69.3376 78.5349 74.2345C78.5349 74.6743 78.5781 75.1029 78.6389 75.5251L58.7125 86.4624L37.9749 75.0789C37.3621 74.7431 36.5957 74.967 36.2597 75.5779C35.9237 76.1888 36.1477 76.9564 36.7589 77.2923L56.0885 87.9033L36.7589 98.5143C36.1477 98.8501 35.9237 99.6178 36.2597 100.229C36.4901 100.648 36.9221 100.884 37.3685 100.884C37.5733 100.884 37.7829 100.835 37.9749 100.728L58.7125 89.3442L78.5653 100.241C78.8869 104.847 82.7285 108.498 87.4165 108.498C92.1045 108.498 96.2981 104.516 96.2981 99.6194C96.2981 94.7225 92.3141 90.7404 87.4165 90.7404C83.2549 90.7404 79.7621 93.6206 78.8037 97.4892L61.3381 87.9017L79.3829 77.9959V77.9975ZM87.4165 67.8823C90.9205 67.8823 93.7717 70.7321 93.7717 74.2361C93.7717 77.7401 90.9205 80.5899 87.4165 80.5899C83.9125 80.5899 81.0613 77.7401 81.0613 74.2361C81.0613 70.7321 83.9125 67.8823 87.4165 67.8823ZM87.4165 93.2688C90.9205 93.2688 93.7717 96.1186 93.7717 99.6226C93.7717 103.127 90.9205 105.976 87.4165 105.976C84.1477 105.976 81.4485 103.496 81.1013 100.318C81.1221 100.288 81.1477 100.264 81.1669 100.23C81.4021 99.8017 81.3589 99.2995 81.1029 98.9189C81.4549 95.746 84.1509 93.2688 87.4181 93.2688H87.4165Z" fill="white"/>
<path d="M96.7376 16.5H3.2624C2.5648 16.5 2 17.0645 2 17.7618V81.0777C2 81.7749 2.5648 82.3395 3.2624 82.3395H26.0128C26.7104 82.3395 27.2752 81.7749 27.2752 81.0777C27.2752 80.3804 26.7104 79.8159 26.0128 79.8159H4.5264V19.0252H95.4736V54.3158C95.4736 55.0131 96.0384 55.5777 96.736 55.5777C97.4336 55.5777 97.9984 55.0131 97.9984 54.3158V17.7618C97.9984 17.0645 97.4336 16.5 96.736 16.5H96.7376Z" fill="white"/>
<path d="M36.9713 66.2105C36.9777 66.0682 36.9841 65.8667 36.9841 65.614C37.0897 63.1048 38.0769 52.5577 47.1905 46.8884C53.0545 43.2421 59.1505 43.538 62.2705 44.0401C62.4225 49.5719 66.9617 54.029 72.5313 54.029C78.1009 54.029 82.8065 49.4216 82.8065 43.7587C82.8065 38.0957 78.1969 33.4883 72.5313 33.4883C67.6353 33.4883 63.5329 36.9315 62.5089 41.5229C58.9857 40.984 52.3057 40.7361 45.8561 44.747C39.8193 48.502 36.9745 54.1506 35.6353 58.7068C34.7777 56.5734 33.3841 54.3057 31.1329 52.3338C25.9585 47.8016 19.8289 47.9983 18.0769 48.1662C17.3825 48.2318 16.8737 48.8491 16.9393 49.5431C17.0065 50.2372 17.6161 50.7442 18.3169 50.6802C19.8193 50.5379 25.0545 50.3684 29.4673 54.2337C34.0273 58.2287 34.4593 63.6581 34.4577 65.5836C34.4449 65.9003 34.4449 66.1002 34.4449 66.1593C34.4481 66.8438 34.9969 67.4004 35.6817 67.4147C35.6913 67.4147 35.7009 67.4147 35.7089 67.4147C36.3809 67.4147 36.9377 66.887 36.9697 66.2137L36.9713 66.2105ZM72.5329 36.0119C76.8065 36.0119 80.2817 39.4871 80.2817 43.7571C80.2817 48.0271 76.8049 51.5022 72.5329 51.5022C68.2609 51.5022 64.7841 48.0271 64.7841 43.7571C64.7841 39.4871 68.2609 36.0119 72.5329 36.0119Z" fill="#F99D1C"/>
</g>
<defs>
<clipPath id="clip0_580_6188">
<rect width="96" height="92" fill="white" transform="translate(2 16.5)"/>
</clipPath>
</defs>
</svg>
