<svg width="113" height="112" viewBox="0 0 113 112" fill="none" xmlns="http://www.w3.org/2000/svg">
<g clip-path="url(#clip0_580_6207)">
<path d="M101.343 15H7.6568C7.0184 15 6.5 15.5195 6.5 16.1592V81.8424C6.5 82.4821 7.0184 83.0016 7.6568 83.0016H101.345C101.983 83.0016 102.502 82.4821 102.502 81.8424V16.1592C102.502 15.5195 101.983 15 101.345 15H101.343ZM100.186 17.3169V32.2537H8.812V17.3169H100.188H100.186ZM8.812 80.6832V34.5706H100.188V80.6832H8.812Z" fill="white"/>
<path d="M92.6757 26.749C93.8565 26.749 94.8133 25.7902 94.8133 24.6069C94.8133 23.4237 93.8565 22.4648 92.6757 22.4648C91.4949 22.4648 90.5381 23.4237 90.5381 24.6069C90.5381 25.7902 91.4949 26.749 92.6757 26.749Z" fill="white"/>
<path d="M84.246 26.749C85.4268 26.749 86.3836 25.7902 86.3836 24.6069C86.3836 23.4237 85.4268 22.4648 84.246 22.4648C83.0652 22.4648 82.1084 23.4237 82.1084 24.6069C82.1084 25.7902 83.0652 26.749 84.246 26.749Z" fill="white"/>
<path d="M75.8134 26.749C76.9942 26.749 77.951 25.7902 77.951 24.6069C77.951 23.4237 76.9942 22.4648 75.8134 22.4648C74.6326 22.4648 73.6758 23.4237 73.6758 24.6069C73.6758 25.7902 74.6326 26.749 75.8134 26.749Z" fill="white"/>
<path d="M41.2628 46.9778C40.8116 46.5256 40.0788 46.5256 39.6276 46.9778L29.6644 56.9619C29.4484 57.1783 29.3252 57.4734 29.3252 57.7812C29.3252 58.0891 29.4468 58.3825 29.6644 58.6005L39.546 68.5013C39.7716 68.7273 40.0676 68.8412 40.3636 68.8412C40.6596 68.8412 40.9556 68.7273 41.1812 68.5013C41.6324 68.0491 41.6324 67.3148 41.1812 66.8626L32.1172 57.7796L41.2628 48.6148C41.714 48.1627 41.714 47.4283 41.2628 46.9762V46.9778Z" fill="#F99D1C"/>
<path d="M67.9209 46.9778C67.4697 46.5256 66.7369 46.5256 66.2857 46.9778C65.8345 47.4299 65.8345 48.1643 66.2857 48.6164L75.4313 57.7812L66.3673 66.8642C65.9161 67.3164 65.9161 68.0507 66.3673 68.5029C66.5929 68.7289 66.8889 68.8428 67.1849 68.8428C67.4809 68.8428 67.7769 68.7289 68.0025 68.5029L77.8841 58.6021C78.1001 58.3857 78.2233 58.0907 78.2233 57.7828C78.2233 57.475 78.1017 57.1816 77.8841 56.9635L67.9209 46.9794V46.9778Z" fill="#F99D1C"/>
<path d="M59.9556 42.9717C59.3668 42.7232 58.69 43.0022 58.442 43.5922L46.9748 70.9888C46.7284 71.5788 47.0052 72.2571 47.594 72.5056C47.7396 72.5665 47.8916 72.5954 48.0404 72.5954C48.4916 72.5954 48.922 72.3276 49.1076 71.8851L60.5748 44.4885C60.8212 43.8985 60.5444 43.2202 59.9556 42.9717Z" fill="#F99D1C"/>
</g>
<defs>
<clipPath id="clip0_580_6207">
<rect width="96" height="68" fill="white" transform="translate(6.5 15)"/>
</clipPath>
</defs>
</svg>
