<svg width="287" height="104" viewBox="0 0 287 104" fill="none" xmlns="http://www.w3.org/2000/svg">
<path d="M144.909 50.6884C147.089 49.2684 147.379 47.6584 145.869 45.4084C146.209 45.1984 146.539 44.8084 146.879 44.8084C147.379 44.8084 147.869 45.0784 148.449 45.2584C148.639 44.7484 148.769 44.4084 149.019 43.7484C147.389 44.0784 145.879 44.5184 145.269 42.6384C146.269 40.6784 148.949 40.3384 150.069 37.8384C147.339 38.5484 146.769 41.3184 144.329 42.0584C143.919 41.4484 143.479 40.7884 143.039 40.1184L142.969 40.1784C143.799 39.0484 144.689 37.9484 144.679 35.8984C143.739 36.9484 142.959 36.7484 142.029 36.1084C141.869 37.5884 141.749 38.7384 141.619 39.9484C140.149 39.4784 138.949 38.8984 138.219 37.5384C137.859 36.8784 137.199 36.5084 136.399 37.2384C136.319 39.2884 138.739 39.0884 139.469 40.3984C138.639 41.1984 137.149 40.0984 136.389 41.9684C137.629 41.7284 138.509 41.6084 139.369 41.3884C140.649 41.0684 141.179 41.5584 141.059 42.8384C139.639 42.5584 138.199 42.2184 137.129 43.8284L141.059 42.8284C141.939 42.4484 141.479 43.3084 141.699 43.5284C138.089 44.4484 137.909 44.5584 137.509 46.2284C139.129 45.5084 140.469 44.6084 141.649 43.4684C142.259 43.9184 142.869 44.3784 143.379 44.7484C142.579 47.0984 140.759 48.6184 140.609 51.1784C142.979 49.8084 142.589 47.1184 144.129 45.3184C144.319 45.8184 144.419 46.0884 144.529 46.3584C143.819 48.1984 142.809 49.9584 142.729 52.5584C143.729 51.6984 144.329 51.1784 144.929 50.6584L144.909 50.6884Z" fill="#707173"/>
<path d="M134.13 60.9787C134.83 60.2287 136.25 60.4987 136.66 59.2587C135.79 58.9187 135.01 58.6187 134.24 58.3187C135.48 58.2987 136.72 58.3187 137.96 58.2587C138.88 58.2187 139.41 57.7287 139.44 56.6687C138.62 56.5187 137.83 56.3787 136.69 56.1787C137.97 55.2287 139.28 54.7087 138.95 53.1587C137.99 53.0487 137.53 54.4087 136.39 53.6987C136.92 52.5987 138.33 51.7787 137.26 50.1487C136.62 50.9887 136.04 51.7487 135.32 52.6887C135.03 51.3587 136.47 50.0087 134.66 48.8887C134.3 49.8887 133.98 50.8087 133.61 51.8187C132.49 51.2087 131.33 50.7987 130.18 51.6887C130.2 53.5187 131.91 52.7487 132.67 53.3287C132.35 53.8587 132.12 54.2487 132 54.4587C132.89 55.0787 133.67 55.6387 134.54 56.2487C133.95 56.7287 133.61 57.0087 133.14 57.3787C133.6 57.7687 133.95 58.0787 134.32 58.3887C133.76 58.5087 133.2 58.6287 132.21 58.8287C133.02 59.7487 133.6 60.3887 134.16 61.0187C133.44 60.8387 132.73 60.6687 131.77 60.4287C131.96 61.1387 132.06 61.5387 132.22 62.1287C132.98 61.6787 133.56 61.3287 134.14 60.9787H134.13Z" fill="#707173"/>
<path d="M102.49 26.4284C103.58 26.8684 104.55 26.7784 105.65 25.6584C104.64 25.1284 103.84 24.7084 103.05 24.2884H105.56C105.65 22.4884 106.09 22.3084 108.3 23.0284C108.39 22.4984 108.48 21.9884 108.58 21.3784C109.6 21.9084 110.48 22.8684 111.56 21.8484C111.35 20.0484 109.96 19.9984 108.82 19.7984C109.04 18.7184 109.24 17.7184 109.49 16.4884C106.93 17.0984 107.9 19.7084 106.32 20.7784C105.72 19.2184 107.87 17.7784 106.4 16.3984C104.71 16.9284 105.91 18.6984 104.91 19.7284C104.44 18.9584 104.07 18.3384 103.68 17.6984C102.28 18.8584 103.4 19.9884 103.57 21.3484C102.6 20.7884 101.89 20.3784 101.09 19.9184C100.59 21.0684 100.55 22.0584 101.69 22.4284C102.74 22.7684 102.85 23.5784 103.17 24.3484C102.08 23.8284 100.99 23.3084 99.8001 22.7384C99.5801 24.7884 99.6501 24.9884 100.73 25.5784C101.28 25.8784 101.83 26.1584 102.39 26.4484C100.88 27.1384 99.8601 25.5484 98.3101 25.4584C98.3101 25.9484 98.2301 26.3384 98.3201 26.6784C98.9301 28.8984 101.31 27.7584 102.59 28.8284C102.86 29.0584 103.91 28.3684 104.58 28.0684C104.66 28.0284 104.65 27.7884 104.7 27.5384C103.98 27.1684 103.23 26.7884 102.49 26.4084V26.4284Z" fill="#707173"/>
<path d="M150.7 31.9884L150.74 32.0384C150.69 31.2484 150.63 30.4684 150.54 29.1884C149.56 29.8884 148.97 30.3084 148.39 30.7284C148.83 29.7584 149.59 28.7984 148.46 27.6784C147.96 28.0984 147.51 28.4584 147.04 28.8484C146.53 28.0484 147.04 26.8684 145.81 26.6084C145.62 27.1584 145.43 27.6784 145.18 28.3984C144.55 27.4884 144.09 26.8184 143.46 25.8984C143.2 26.6584 143.06 27.0684 142.92 27.4784C142.33 27.3584 141.75 27.2384 140.67 27.0184C141.38 28.1184 141.82 28.7884 142.25 29.4684C141.43 30.0384 140.4 30.4984 140.92 31.8184C141.96 32.1484 142.87 30.3984 143.85 31.7484C143.98 31.6584 144.15 31.5884 144.22 31.4684C144.69 30.6184 145.49 31.0184 145.76 31.3684C146.66 32.5584 147.31 32.0384 148.02 31.2584C147.58 31.8684 147.14 32.4884 146.74 33.0384C147.26 33.4784 147.73 33.6984 147.89 34.0484C148.44 35.2684 148.91 35.5484 149.77 34.8484C150.67 34.1284 151.35 33.2484 150.69 31.9884H150.7Z" fill="#707173"/>
<path d="M113.37 41.7693C112.89 41.2893 112.53 40.8193 113.21 40.1793C114.26 39.1993 115.28 38.1893 116.26 37.1393C116.64 36.7393 116.86 36.1793 117.41 35.2793C114.63 36.2393 113.95 38.5093 112.79 39.7793C111.47 39.8993 110.51 39.9793 109.38 40.0893C108 38.0693 105.66 39.2093 103.73 38.5093C103.68 39.4993 103.64 40.2693 103.59 41.0393C107.98 39.9493 108.94 40.1593 110.19 42.3593C109.81 42.7893 109.45 43.1993 109.09 43.5993C107.48 43.7693 105.96 44.1293 104.41 45.6093C106.66 45.7193 107.76 44.4393 109.04 43.5493C109.64 43.4793 110.23 43.4093 111 43.3193C110.45 45.5793 107.42 45.5793 107.15 48.1193C109.32 47.4193 109.47 44.6393 111.82 44.4093C111.66 45.0393 111.55 45.4993 111.43 45.9493C110.27 46.5193 109.36 47.2693 109.15 48.4893C110.06 48.7793 110.8 49.0093 111.76 49.3093C111.95 48.4693 112.13 47.6493 112.31 46.8293C112.63 46.5593 112.95 46.2793 113.26 46.0093C113.37 46.0793 113.49 46.1493 113.6 46.2193C113.36 47.2693 113.13 48.3193 112.89 49.3693C113.03 49.3993 113.17 49.4393 113.31 49.4693C113.56 48.6793 113.82 47.8893 114.1 46.9993C115.79 47.8593 115 50.2493 117.05 50.5393C118.3 48.2993 115.46 47.7493 115.24 46.1993C116.18 45.6393 117.24 47.0493 118.29 45.7093C116.81 45.4193 115.52 45.1593 113.84 44.8193C115.38 43.3493 117.1 45.1493 118.5 43.5993H113.9C113.9 43.0293 113.9 42.6293 113.92 42.2593C116.77 42.7693 117.71 42.5993 118.94 41.0493C117.04 41.5093 115.49 41.8893 113.93 42.2593C113.74 42.3293 113.55 42.3893 113.36 42.4593C113.35 42.1993 113.34 41.9293 113.32 41.6593C114.36 41.2893 115.42 40.9593 116.43 40.5293C117.24 40.1793 117.99 39.7093 118.77 39.2893C118.66 39.0893 118.55 38.8893 118.43 38.6893C116.31 38.8893 114.71 40.0693 113.37 41.7393V41.7693Z" fill="#707173"/>
<path d="M123.46 2.91846C122.8 3.42846 122.22 3.54846 121.76 2.39846C122.54 2.05846 123.26 1.74846 123.94 1.45846C122.45 0.27846 121.9 2.12846 121.19 2.44846C119.99 2.40846 120.86 0.678461 119.4 1.07846C119.61 1.68846 119.8 2.24846 119.95 2.82846C119.95 2.85846 119.51 2.99846 119.25 3.09846C118.44 2.49846 117.63 1.89846 116.82 1.29846C116.29 0.89846 115.8 0.858462 114.83 1.43846C116.61 2.07846 117.97 2.56846 119.34 3.06846V4.48846C118.16 3.94846 117.19 3.45846 116.18 3.05846C115.28 2.69846 114.58 1.53846 113.02 2.23846C114.77 4.05846 117.53 3.45846 119.31 5.78846C117.91 5.60846 117.03 5.48846 116.14 5.38846C115.22 5.28846 114.24 4.78846 113.11 5.63846C114.95 6.66846 116.96 5.23846 118.94 6.94846C117 7.08846 115.57 7.18846 113.99 7.29846C114.44 8.26846 114.79 9.04846 115.22 9.98846C116.28 9.42846 117.19 8.94846 118.09 8.46846L118.02 8.53846C118.99 9.15846 118.41 9.57846 117.8 9.86846C117.08 10.2185 116.31 10.4585 115.31 10.8385C116.77 11.8685 117.41 9.46846 118.66 10.7885C118.28 11.5185 117.79 12.2585 117.54 13.0685C117.41 13.4785 117.71 14.0285 117.82 14.5185C118.22 14.2485 118.87 14.0585 118.99 13.6885C119.31 12.6885 119.42 11.6185 119.68 10.1885C120.45 11.2885 120.97 12.0485 121.78 13.2085C122.35 10.8885 119.76 10.3285 120.22 8.52846C122.01 8.73846 121.76 11.3585 123.8 11.3685C123.38 9.61846 121.32 9.24846 120.97 7.42846C122.97 7.80846 123.46 10.3585 125.64 9.84846C124.81 9.01846 123.85 8.39846 122.9 7.74846C122.39 7.39846 121.73 7.09846 121.45 6.60846C121.22 6.20846 121.57 5.89846 122 6.41846C122.91 6.84846 123.83 7.27846 124.74 7.70846C125.61 8.12846 126.44 8.83846 127.68 7.95846C125.84 6.64846 124.1 5.88846 121.99 6.41846V5.14846C124.26 4.73846 126.45 5.60846 128.84 4.86846C126.68 3.31846 124.37 4.92846 122.44 4.06846C122.83 3.61846 123.14 3.27846 123.46 2.93846C125.17 3.30846 126.86 3.27846 128.65 2.71846C127.86 1.81846 127.08 1.87846 126.18 2.19846C125.3 2.51846 124.37 2.69846 123.46 2.93846V2.91846Z" fill="#707173"/>
<path d="M131.79 25.0195C130.89 25.0695 129.98 25.1195 129.13 25.1695C128.92 26.4495 130 27.4895 129.02 28.6195C128.33 27.6095 127.72 26.7195 127.01 25.6795C126.2 26.1995 125.57 26.5995 125 26.9695C125.44 28.2595 127.15 28.6295 126.74 30.3195C125.77 29.6595 124.95 29.0995 123.92 28.3995C123.62 29.2395 123.42 29.7795 123.24 30.2695C124.07 31.2495 125.67 30.9995 126 32.4195C125.14 32.5195 124.37 32.5995 123.66 32.6795C123.14 34.1695 124.06 34.2195 124.98 34.3595C125.27 34.3995 125.5 34.7895 126.05 35.2895C125.26 35.3695 124.87 35.4095 124.36 35.4595C124.4 35.9795 124.43 36.4995 124.49 37.3795C125.5 37.0595 126.3 36.7995 127.15 36.5295C127.15 36.5495 127.28 36.7695 127.31 36.9895C127.39 37.5495 127.4 38.2595 128.19 38.0695C128.59 37.9695 128.96 37.4495 129.18 37.0395C129.37 36.6695 129.32 36.1795 129.38 35.7495C129.52 35.7095 129.66 35.6695 129.79 35.6395C130.18 36.4495 130.56 37.2495 131 38.1695C131.34 38.0995 132.01 38.0395 132.02 37.9295C132.1 36.9395 132.07 35.9295 132.07 34.6695C132.8 35.5595 133.4 36.2695 133.99 36.9795C135.86 35.5995 135.89 35.2295 134.26 34.0795C133.78 33.7395 133.3 33.4095 132.82 33.0795C132.89 32.9395 132.95 32.7895 133.02 32.6495C134.18 32.9995 135.34 33.3395 136.49 33.6795C137.07 32.6995 136.6 32.0995 135.83 31.6695C135.2 31.3195 134.51 31.0695 133.85 30.7795C133.88 30.6495 133.92 30.5095 133.95 30.3795H137.15C137.11 29.7795 137.08 29.3995 137.05 29.0195C135.54 29.0995 134.14 29.1795 132.82 29.2495C132.72 28.8895 132.66 28.7895 132.69 28.7395C133.01 28.2095 133.35 27.6995 133.66 27.1695C134.24 26.1695 134.05 25.5995 132.91 25.1695C132.56 25.0395 132.14 25.0995 131.75 25.0695L131.8 25.0295L131.79 25.0195Z" fill="#707173"/>
<path d="M199.57 1.01872C199.51 2.05872 199.41 2.99872 199.41 3.93872C199.4 16.1687 199.41 28.3987 199.39 40.6287C199.39 41.4187 199.67 42.3287 198.83 43.1887C198.31 42.3787 197.87 41.7187 197.46 41.0487C189.69 28.3787 181.9 15.7287 174.18 3.02872C173.25 1.50872 172.29 0.608717 170.39 0.868717C169.13 1.03872 167.84 0.898716 166.56 0.898716C164.59 0.898716 162.62 0.898716 160.7 0.898716C160.18 4.16872 160.31 63.1287 160.79 64.7987H172.15V44.2887C172.15 40.8487 172.15 37.4187 172.15 33.9787C172.15 30.5987 172.12 27.2087 172.5 23.7387C181.41 37.3487 189.81 51.1587 198.35 64.8287H210.8C211.34 62.0487 211.23 2.83872 210.68 1.01872H199.55H199.57Z" fill="#707173"/>
<path d="M286.11 1.07836H273.64V4.08836C273.64 17.0284 273.69 29.9684 273.6 42.9084C273.58 45.5184 273.12 48.1384 272.68 50.7184C272.42 52.2584 271.42 53.4384 270.02 54.2384C265.21 57.0084 259.45 54.6684 258 49.3284C257.77 48.4884 257.68 47.6084 257.52 46.7484C257.37 45.9084 257.21 45.0684 257.01 44.0284C253.05 44.4984 249.3 44.9384 245.26 45.4084C245.48 47.5084 245.55 49.3384 245.88 51.1084C247.21 58.3284 251.12 63.3984 258.43 65.2584C263.14 66.4584 267.94 66.4184 272.64 65.0884C279.75 63.0684 284.13 58.3984 285.44 51.0984C285.95 48.2884 286.22 45.3884 286.24 42.5284C286.32 29.5884 286.28 16.6484 286.27 3.70836C286.27 2.84836 286.17 1.98836 286.12 1.06836L286.11 1.07836Z" fill="#707173"/>
<path d="M235.809 64.8486V1.05859H223.599C223.079 4.10859 223.219 63.1586 223.759 64.9686C227.229 64.9686 230.739 64.9686 234.249 64.9686C234.719 64.9686 235.179 64.8986 235.809 64.8486Z" fill="#707173"/>
<path d="M77.0687 64.8586C77.5587 61.4886 77.4087 2.94859 76.9187 1.05859H65.1387C64.5387 3.96859 64.6887 63.0986 65.2787 64.8586H77.0687Z" fill="#707173"/>
<path d="M3.66922 102.889C3.96922 97.459 3.58922 92.249 4.14922 87.019C4.80922 87.609 5.23922 88.249 5.60922 88.909C7.80922 92.889 9.98922 96.889 12.1792 100.869C13.5392 103.329 13.6092 103.359 16.6992 102.649V82.979C15.8792 83.029 15.2292 83.069 14.3192 83.119C14.3192 85.869 14.3392 88.409 14.3192 90.949C14.2892 93.459 14.4392 95.989 13.9492 98.529C13.2692 97.919 12.8392 97.279 12.4692 96.609C10.2692 92.629 8.03922 88.659 5.92922 84.629C5.23922 83.309 4.37922 82.699 2.92922 82.919C2.39922 82.999 1.87922 83.059 1.38922 83.119C0.889219 87.009 1.02922 102.249 1.64922 102.879H3.66922V102.889Z" fill="#707173"/>
<path d="M285.31 102.819C285.31 99.2894 285.59 95.8394 285.24 92.4694C284.82 88.4894 280.54 86.7594 276.97 88.8294C276.38 89.1694 275.83 89.5694 274.91 90.1794V81.6094H272.93C272.35 84.1294 272.45 101.059 273.06 102.909C273.56 102.879 274.09 102.859 274.89 102.819C274.89 101.939 274.89 101.159 274.89 100.379C274.89 98.8594 274.73 97.3194 274.96 95.8394C275.19 94.3794 275.59 92.8594 276.33 91.5994C277.14 90.1994 278.7 89.6994 280.31 90.0594C281.9 90.4094 282.72 91.5994 282.84 93.1694C282.99 95.2394 283.06 97.3094 283.13 99.3794C283.17 100.479 283.13 101.569 283.13 102.819H285.32H285.31Z" fill="#707173"/>
<path d="M99.5792 47.9894C99.4092 47.9294 99.2392 47.8794 99.0792 47.8194V45.1094C96.5092 45.1994 98.0292 47.1194 97.4892 48.3294C96.7192 47.3494 96.1192 46.5894 95.5092 45.8194C92.8592 47.0594 95.7492 48.2694 95.3792 49.5894C94.5092 49.0094 93.7192 48.4994 92.7792 47.8694C92.4292 48.5494 92.1292 49.1494 91.6992 49.9794C92.9992 50.5094 94.1092 50.9694 95.4592 51.5194C94.6592 51.8294 94.1292 52.0394 93.3892 52.3294C95.2792 54.2394 97.0092 56.0194 98.7692 57.7594C99.5092 58.4894 100.319 58.4794 101.129 57.6994C100.669 56.7594 99.4892 56.0394 99.9992 54.6494C102.013 56.2827 103.423 56.366 104.229 54.8994C103.329 54.2094 102.439 53.5394 101.549 52.8594C101.629 52.7094 101.719 52.5594 101.799 52.4094C102.799 52.6994 103.799 52.9794 104.999 53.3194V51.4094C103.879 51.0694 102.809 50.7494 101.739 50.4294C101.769 50.2794 101.789 50.1294 101.819 49.9794C102.549 49.7994 103.279 49.6294 104.049 49.4394C104.199 48.3094 104.079 47.6394 102.709 47.8994C102.319 47.9694 101.839 47.5694 101.049 47.2294C101.859 46.9794 102.209 46.8694 102.939 46.6394C102.419 46.0394 102.039 45.2394 101.609 45.2094C100.869 45.1494 100.039 45.4394 100.349 46.6694C100.439 47.0194 99.8692 47.5394 99.5992 47.9794L99.5792 47.9894Z" fill="#707173"/>
<path d="M239.14 88.8095C239.14 91.0495 239.27 93.3695 239.09 95.6495C238.98 97.0395 238.59 98.4795 237.96 99.7195C237.21 101.19 235.27 101.83 233.83 101.46C232.11 101.02 231.39 99.7695 231.22 98.1295C231.12 97.1795 231.12 96.2195 231.11 95.2595C231.09 93.4195 231.11 91.5895 231.1 89.7495C231.1 88.9195 230.81 88.3495 229.86 88.3595C228.91 88.3595 228.64 88.9195 228.64 89.7595C228.64 91.9995 228.59 94.2295 228.66 96.4695C228.69 97.6595 228.79 98.8695 229.08 100.02C229.61 102.09 231.09 103.15 233.22 103.39C235.43 103.64 237.25 102.86 238.99 101.18C239.23 102.91 239.99 103.33 241.51 102.61C241.51 98.2895 241.55 93.9895 241.48 89.6995C241.46 88.3695 241.15 88.2995 239.15 88.8195L239.14 88.8095Z" fill="#707173"/>
<path d="M194.65 83.0586H179.74V85.1886H185.86V102.999C186.87 102.929 187.54 102.879 188.43 102.809C188.43 100.719 188.43 98.8086 188.43 96.9086C188.43 94.9086 188.37 92.9086 188.45 90.9186C188.52 89.0486 188.1 87.1286 188.86 85.0786H194.66V83.0686L194.65 83.0586Z" fill="#707173"/>
<path d="M79.7995 88.6786C79.7995 91.0986 79.9495 93.3486 79.7495 95.5586C79.6095 97.0186 79.1794 98.5486 78.4694 99.8286C77.6894 101.229 76.1795 101.789 74.5295 101.479C72.9595 101.189 72.1295 100.159 71.8695 98.2186C71.7295 97.1986 71.6995 96.1486 71.6895 95.1186C71.6595 93.4386 71.7195 91.7586 71.6595 90.0886C71.5895 88.3486 71.3395 88.2286 69.3195 88.8086C69.3195 91.9686 69.2995 95.1486 69.3395 98.3386C69.3395 98.9586 69.5495 99.5986 69.7395 100.199C70.3695 102.159 71.7494 103.159 73.7894 103.389C75.9994 103.639 77.8495 102.929 79.5195 101.219C79.8795 102.729 80.4895 103.489 82.1195 102.549C82.1195 98.3186 82.1595 93.9386 82.0995 89.5586C82.0795 88.0786 81.0695 88.2586 79.8195 88.6886L79.7995 88.6786Z" fill="#707173"/>
<path d="M90.5995 31.8481C90.3661 30.5215 90.5295 29.5381 91.0895 28.8981C92.4095 32.0081 92.6495 32.1181 94.6095 30.6581C94.0695 29.6681 93.5295 28.6781 92.9895 27.6781C93.1295 27.5781 93.2595 27.4881 93.3995 27.3881C94.2395 28.1081 95.0895 28.8181 96.1195 29.6881C96.4795 28.8481 96.7095 28.2981 96.9095 27.8381C95.9295 27.0181 95.0895 26.3181 94.2595 25.6181C94.8995 25.3281 95.2595 25.4681 95.6195 25.5381C96.2595 25.6681 97.0295 25.7981 97.1495 24.9481C97.1995 24.6281 96.5895 24.1981 96.2395 23.8581C95.8995 23.5181 95.4995 23.2381 94.9795 22.8081C96.1328 22.5215 96.6795 21.8815 96.6195 20.8881C95.5995 20.2481 94.8195 20.6481 94.1495 21.6381C93.6495 20.6781 94.3795 18.9581 92.3495 19.3481C92.0695 20.1081 91.7895 20.8781 91.3795 22.0281C90.9595 20.7581 90.6695 19.8681 90.2495 18.5781C89.5395 20.3881 89.0495 21.7681 88.4495 23.0981C87.8695 24.3781 88.2695 25.7781 87.5995 27.1281C86.9795 28.3781 87.1295 30.0081 86.9395 31.4781C87.0495 31.4981 87.1595 31.5181 87.2595 31.5381C87.4795 30.9081 87.6895 30.2781 88.0895 29.1181C88.3095 30.9715 89.1528 31.8848 90.6195 31.8581L90.5995 31.8481Z" fill="#707173"/>
<path d="M49.589 90.2798C50.609 90.3798 51.459 90.4598 52.569 90.5698C52.569 91.5398 52.569 92.3898 52.569 93.2498C52.569 95.2398 52.489 97.2399 52.619 99.2299C52.839 102.49 55.049 104.06 58.199 103.34C59.229 103.1 59.419 102.5 59.109 101.48C58.599 101.52 58.139 101.6 57.689 101.57C56.239 101.46 55.209 100.63 55.159 99.1998C55.049 96.3598 55.129 93.5098 55.129 90.5698C56.539 90.4398 57.689 90.3299 58.779 90.2299C59.129 89.0399 58.939 88.3598 57.679 88.3398C56.909 88.3298 56.129 88.2498 55.239 88.1998C55.129 86.8898 55.029 85.7298 54.929 84.5898C53.589 84.6632 52.709 85.8232 52.289 88.0698C50.3357 88.4432 49.4357 89.1865 49.589 90.2999V90.2798Z" fill="#707173"/>
<path d="M112.41 57.6996C113.54 56.0996 114.41 57.4596 115.38 57.7496C115.52 57.1696 115.63 56.7296 115.73 56.3496C116.7 56.5496 117.63 56.7496 118.62 56.9596C118.64 54.8096 117.18 54.6496 115.94 54.3996C116.33 53.3496 116.67 52.4396 117.09 51.2996C114.23 51.4496 115.19 54.3896 113.38 55.3196C113.32 53.6696 114.88 52.3296 113.57 50.3496C113.09 51.8196 112.73 52.9096 112.27 54.2996C111.75 53.3296 111.39 52.6396 111 51.9196C109.76 53.0796 110.53 54.2696 110.73 55.5996C109.75 55.0296 109.05 54.6196 108.33 54.2096C107.05 56.3296 109.02 56.6396 109.96 57.3696C109.81 57.6596 109.7 57.9196 109.67 57.9096C108.75 57.6496 107.83 57.3496 106.73 57.0096V59.6596C106.29 59.6296 105.85 59.6096 105.41 59.5796C105.3 61.5496 105.3 61.5796 108.81 62.9196C109.87 63.3296 110.94 63.3896 111.61 61.9896C110.68 61.5296 109.87 61.1296 108.84 60.6196H112.51C112.1 59.8996 111.85 59.4796 111.6 59.0296C112.1 58.8396 112.48 58.6996 112.89 58.5396C112.64 58.0996 112.49 57.8296 112.42 57.7096L112.41 57.6996Z" fill="#707173"/>
<path d="M148.019 100.96C147.359 102.36 147.909 103.04 148.919 103.14C150.409 103.29 151.969 103.44 153.419 103.14C155.169 102.78 156.309 101.54 156.519 99.62C156.719 97.75 156.079 96.34 154.399 95.44C153.479 94.95 152.539 94.52 151.639 94.01C150.689 93.47 149.889 92.73 150.249 91.52C150.589 90.36 151.609 89.99 152.699 89.97C153.629 89.96 154.569 90.14 155.499 90.23C156.029 89.34 155.999 88.47 154.949 88.37C153.389 88.22 151.739 88.18 150.229 88.53C148.499 88.93 147.529 90.61 147.529 92.36C147.529 93.89 148.349 94.91 149.579 95.64C150.609 96.25 151.699 96.76 152.719 97.37C153.499 97.84 154.109 98.51 153.959 99.51C153.799 100.6 153.029 101.19 152.029 101.38C151.349 101.51 150.609 101.48 149.909 101.41C149.289 101.34 148.689 101.12 148.019 100.95V100.96Z" fill="#707173"/>
<path d="M262.199 101.09C259.549 101.89 257.119 101.86 255.469 99.41C253.959 97.16 253.929 94.72 255.309 92.39C256.869 89.75 259.339 89.59 261.979 90.32C262.509 89.4 262.589 88.69 261.539 88.32C258.309 87.18 254.149 88.77 252.709 91.89C251.349 94.82 251.389 97.8 253.339 100.52C255.239 103.16 257.989 103.68 261.019 103.34C262.239 103.2 262.699 102.56 262.199 101.09Z" fill="#707173"/>
<path d="M132.609 12.6193C132.439 14.1793 129.899 14.0693 130.759 16.0493C131.599 15.5693 132.419 15.0893 133.239 14.6193C132.849 15.8293 131.569 16.6393 132.569 18.3993C133.349 17.4893 133.979 16.7393 134.609 15.9993C135.689 16.9593 136.819 17.346 137.999 17.1593C138.159 15.7793 137.319 15.3693 136.169 15.2193C135.989 15.1993 135.829 15.0493 135.599 14.9193C136.229 14.5293 136.739 14.2093 137.449 13.7693C136.759 13.3093 136.259 12.9693 135.549 12.4993C136.149 11.6093 136.569 10.3493 137.409 9.9193C138.579 9.3093 138.119 8.6193 137.929 7.9593C137.719 7.2093 134.509 5.5293 133.729 5.7293C133.279 5.8493 132.909 6.2493 132.269 6.6793C133.309 7.3693 134.059 7.8693 134.819 8.3693C134.419 9.5393 133.959 8.9593 133.399 8.6093C132.079 7.7993 131.939 7.8693 130.949 9.4093C131.639 9.8093 132.339 10.2093 133.329 10.7793C131.759 11.0793 130.409 11.1693 130.109 12.8693C130.979 12.7793 131.719 12.6993 132.599 12.6093L132.609 12.6193Z" fill="#707173"/>
<path d="M95.9794 102.86C95.9794 101.61 95.9494 100.66 95.9794 99.7197C96.0494 97.9697 96.0094 96.1897 96.2894 94.4697C96.7794 91.4397 97.9794 90.4497 101.029 90.0797C101.229 90.0597 101.419 89.8797 101.659 89.7497C101.609 89.2597 101.559 88.8097 101.519 88.4197C99.2494 87.5997 97.6994 88.6497 96.3194 90.1497C95.7527 88.9164 94.9327 88.4497 93.8594 88.7497V102.85H95.9694L95.9794 102.86Z" fill="#707173"/>
<path d="M111.359 14.5391C113.019 17.1091 114.869 19.3691 118.689 18.7691C116.949 15.8491 114.499 14.6291 111.359 14.5391Z" fill="#707173"/>
<path d="M93.3594 17.6288C96.6994 18.2688 99.6694 19.3088 102.319 16.1788C99.0594 15.3588 96.2694 15.4688 93.3594 17.6288Z" fill="#707173"/>
<path d="M119.83 54.1389C123.24 55.5189 126.61 54.9689 128.17 52.9189C125.33 52.3189 122.46 51.3489 119.83 54.1389Z" fill="#707173"/>
<path d="M133.65 89.2784C134.72 89.7984 135.54 89.8584 135.92 88.9284C136.68 87.0584 137.3 85.1284 138.03 83.0684H135.24C134.71 85.1484 134.2 87.1384 133.65 89.2784Z" fill="#707173"/>
<path d="M111.889 26.0392C115.269 27.2292 118.049 26.7892 120.969 24.9492C117.779 24.0592 114.879 23.1392 111.889 26.0392Z" fill="#707173"/>
<path d="M107.74 26.4199C110.13 28.9099 111.67 31.7799 115.61 30.8399C113.97 27.7399 111.23 26.9699 107.74 26.4199Z" fill="#707173"/>
<path d="M98.4791 43.8995C99.8591 43.9395 100.749 43.0795 100.759 41.7095C100.759 40.4295 99.7391 39.3495 98.5291 39.3795C97.4591 39.4095 96.3891 40.4495 96.3191 41.5295C96.2391 42.7995 97.2091 43.8695 98.4691 43.8995H98.4791Z" fill="#707173"/>
<path d="M118.189 64.8485C118.909 63.2985 118.989 62.4385 118.099 61.8785C117.449 61.4685 116.469 61.3085 115.699 61.4185C114.759 61.5585 114.379 62.4285 114.339 63.3885C114.299 64.4685 115.069 64.7285 115.869 64.8185C116.639 64.9085 117.429 64.8385 118.179 64.8385L118.189 64.8485Z" fill="#707173"/>
<path d="M100.47 14.0789C99.1397 13.4089 98.1797 12.9089 97.1997 12.4489C95.1097 11.4589 94.5397 11.6989 93.4297 14.0389C95.6397 14.9789 97.8297 14.8189 100.47 14.0789Z" fill="#707173"/>
<path d="M122.2 16.1582C121.36 20.7082 121.65 21.8682 123.84 23.2382C124.6 20.5982 124.28 19.1282 122.2 16.1582Z" fill="#707173"/>
<path d="M129 40.2891C128.24 44.4591 128.56 45.6991 130.73 47.1191C131.4 43.9891 130.93 42.1591 129 40.2891Z" fill="#707173"/>
<path d="M112.58 32.9199C110.82 34.5699 110.42 36.5999 109.92 38.8299C111.81 38.0699 111.02 35.2999 113.36 35.0999C113.23 35.8799 113.12 36.5799 113.01 37.2699C113.13 37.3099 113.24 37.3499 113.36 37.3999C114.04 36.3899 114.72 35.3799 115.57 34.1399H112.51C112.53 33.7599 112.56 33.3399 112.58 32.9199Z" fill="#707173"/>
<path d="M98.5889 36.7891C101.159 35.8391 102.559 33.7891 102.329 31.2891C100.249 32.5891 98.3489 33.9091 98.5889 36.7891Z" fill="#707173"/>
<path d="M111.34 6.89844C107.63 9.09844 106.97 10.1084 107.5 12.6684C109.72 11.4784 110.82 9.61844 111.34 6.89844Z" fill="#707173"/>
<path d="M98.1699 8.47937C99.6999 9.62937 100.69 9.77938 101.5 9.03938C102.44 8.17938 102.44 7.19938 101.64 5.85938C100.4 6.79937 99.3299 7.60937 98.1799 8.47937H98.1699Z" fill="#707173"/>
<path d="M110.83 1.7793C109.67 2.2093 108.82 2.5293 107.84 2.8893C109.72 4.2993 110.64 4.5293 112.7 4.0593C112.06 3.2693 111.49 2.5793 110.83 1.7793Z" fill="#707173"/>
<path d="M142.079 20.0099C140.049 18.7699 138.299 18.92 136.189 19.71C138.209 20.72 139.909 21.4799 142.079 20.0099Z" fill="#707173"/>
<path d="M95.6502 40.2782C94.6202 38.2082 93.1402 37.2882 90.9102 36.9082C91.8702 38.9882 93.0802 40.2482 95.6502 40.2782Z" fill="#707173"/>
<path d="M126.299 21.8484C128.379 20.9884 129.539 19.6384 130.089 17.3184C128.119 18.4584 126.199 19.1784 126.299 21.8484Z" fill="#707173"/>
<path d="M123.49 46.0099C125.45 44.9199 126.79 43.9099 127.03 41.6699C125.09 42.4999 123.58 43.3299 123.49 46.0099Z" fill="#707173"/>
<path d="M106.949 34.9495C105.979 34.3295 105.419 33.7195 104.799 33.6395C103.889 33.5195 103.359 34.2795 103.419 35.1595C103.469 36.0295 104.089 36.7395 104.959 36.5595C105.569 36.4295 106.059 35.7095 106.959 34.9595L106.949 34.9495Z" fill="#707173"/>
<path d="M105.37 11.4691C106.05 7.96906 105.95 7.56906 104.3 6.28906C103.65 8.49906 103.8 9.24906 105.37 11.4691Z" fill="#707173"/>
<path d="M135.23 21.7289C134.32 21.0289 133.79 20.3289 133.17 20.2189C132.3 20.0689 131.7 20.7989 131.69 21.6889C131.68 22.5889 132.25 23.3089 133.15 23.1589C133.78 23.0489 134.31 22.3889 135.23 21.7289Z" fill="#707173"/>
<path d="M122.159 37.7891C121.479 38.7491 120.819 39.2891 120.729 39.9091C120.609 40.7491 121.259 41.4091 122.169 41.4091C123.079 41.4091 123.729 40.7491 123.599 39.8991C123.499 39.2791 122.839 38.7491 122.159 37.7891Z" fill="#707173"/>
<path d="M122.619 29.3782C121.689 28.6882 121.159 27.9982 120.549 27.9182C119.719 27.8182 119.119 28.4782 119.139 29.4182C119.159 30.3382 119.699 31.0182 120.599 30.8382C121.209 30.7182 121.719 30.0582 122.619 29.3682V29.3782Z" fill="#707173"/>
<path d="M120.33 47.5593C121.53 49.5793 123.12 50.2993 125.43 50.5493C123.99 48.8193 123 47.1093 120.33 47.5593Z" fill="#707173"/>
<path d="M117.42 21.2586C118.43 23.2586 119.67 23.9886 121.84 23.8786C119.84 21.1986 119.66 21.0986 117.42 21.2586Z" fill="#707173"/>
<path d="M96.6396 38.0087C97.4496 34.1887 97.3696 33.8088 95.6196 32.4688C94.7896 34.3787 95.5696 35.9687 96.6396 38.0087Z" fill="#707173"/>
<path d="M103.199 43.4984C105.419 43.9084 106.299 43.6184 107.609 42.1484C106.139 42.3984 104.569 41.9984 103.199 43.4984Z" fill="#707173"/>
<path d="M141.549 45.3789C140.109 46.0889 138.429 46.5489 137.959 48.6789C139.949 48.1589 140.799 46.8089 141.549 45.3789Z" fill="#707173"/>
<path d="M144.449 21.9298C146.319 21.4098 147.209 20.5398 147.889 18.8398C146.209 19.4198 145.089 20.0398 144.449 21.9298Z" fill="#707173"/>
<path d="M139.96 24.9393C137.67 24.9093 137.59 24.9393 136.52 26.5593C137.98 26.6793 139.12 26.2893 139.96 24.9393Z" fill="#707173"/>
<path d="M139.869 23.3187C139.909 23.0987 139.939 22.8787 139.979 22.6587C138.819 21.7887 137.619 21.7987 136.359 22.9787L139.869 23.3187Z" fill="#707173"/>
<path d="M88.5996 37.8691C89.6596 40.0491 89.7396 40.1091 91.6696 39.9291C90.9896 38.7391 89.9996 38.1691 88.5996 37.8691Z" fill="#707173"/>
<path d="M122.049 62.2182C123.679 61.7382 124.349 60.7382 124.779 59.1582C123.309 59.8482 122.139 60.4182 122.049 62.2182Z" fill="#707173"/>
<path d="M129.55 14.8887C127.93 15.4887 126.92 16.0887 126.82 17.8887C128.33 17.3987 128.99 16.4687 129.55 14.8887Z" fill="#707173"/>
<path d="M140.149 10.8281C139.829 11.5081 139.419 11.9581 139.479 12.3381C139.549 12.7781 140.029 13.1581 140.319 13.5581C140.669 13.1981 141.189 12.8881 141.319 12.4581C141.399 12.2081 140.859 11.7781 140.149 10.8281Z" fill="#707173"/>
<path d="M126.55 12.1895C125.543 13.6228 125.256 14.8995 125.69 16.0195C126.71 14.9995 126.7 13.7995 126.55 12.1895Z" fill="#707173"/>
<path d="M121.76 56.6992C120.847 58.0059 120.587 59.2092 120.98 60.3092C121.98 59.3692 121.97 58.2392 121.76 56.6992Z" fill="#707173"/>
<path d="M146.66 24.68C149.02 23.11 149.13 22.88 148.44 21C147.85 22.22 147.37 23.21 146.66 24.68Z" fill="#707173"/>
<path d="M146.649 17.6289C145.549 17.7089 144.289 17.6489 143.859 19.3489C145.219 19.3089 145.949 18.5389 146.649 17.6289Z" fill="#707173"/>
<path d="M109.35 32.0999C108.86 31.7199 108.4 31.1799 108.23 31.2599C107.84 31.4499 107.58 31.9399 107.27 32.2999C107.61 32.5499 107.95 33.0099 108.28 32.9999C108.59 32.9999 108.9 32.4999 109.35 32.0899V32.0999Z" fill="#707173"/>
<path d="M104.139 13.1995C103.749 13.7495 103.229 14.1695 103.299 14.4295C103.409 14.8395 103.919 15.1495 104.259 15.4895C104.509 15.1395 104.959 14.7895 104.959 14.4295C104.959 14.0895 104.519 13.7395 104.129 13.1895L104.139 13.1995Z" fill="#707173"/>
<path d="M101.41 12.5299C101.77 11.9599 102.19 11.5799 102.14 11.2799C102.09 10.9699 101.56 10.5099 101.27 10.5299C100.98 10.5499 100.52 11.0799 100.51 11.3999C100.51 11.6999 100.97 12.0199 101.4 12.5399L101.41 12.5299Z" fill="#707173"/>
<path d="M147.35 42.0298C148.883 41.6698 149.746 40.9398 149.94 39.8398C148.94 40.6798 148.15 41.3598 147.35 42.0298Z" fill="#707173"/>
<path d="M144.98 39.0185C145.15 39.0985 145.31 39.1885 145.48 39.2685C146.14 38.5285 147.08 37.8985 146.2 36.4785C145.79 37.3285 145.38 38.1685 144.98 39.0185Z" fill="#707173"/>
<path d="M143.68 16.37C144.72 17.25 145.38 16.82 145.84 15.75C145.12 15.96 144.4 16.16 143.68 16.37Z" fill="#707173"/>
<path d="M90.3991 41.68C89.4491 41.26 88.8691 41 88.2891 40.75C88.3091 42.24 89.0491 42.15 90.3991 41.68Z" fill="#707173"/>
<path d="M142.949 15.1596C143.929 15.0096 144.509 14.9196 145.079 14.8296C144.379 13.8696 143.779 13.6296 142.949 15.1596Z" fill="#707173"/>
<path d="M130.75 59.6098C130.34 59.3298 130.09 59.0298 129.88 59.0498C129.65 59.0798 129.47 59.4098 129.26 59.6098C129.46 59.8098 129.65 60.1398 129.87 60.1698C130.09 60.1898 130.33 59.8998 130.75 59.6198V59.6098Z" fill="#707173"/>
<path d="M140.85 36.5391L140.25 36.6291C140.34 37.1091 140.43 37.5891 140.53 38.0691C140.68 38.0391 140.82 38.0191 140.97 37.9891C140.93 37.5091 140.89 37.0291 140.85 36.5391Z" fill="#707173"/>
<path d="M149.15 25.3881C149.34 25.4281 149.53 25.4781 149.72 25.5181V24.0881C149.61 24.0881 149.5 24.0881 149.39 24.0781C149.31 24.5181 149.23 24.9581 149.16 25.3981L149.15 25.3881Z" fill="#707173"/>
<path d="M0.269531 64.8594V1.09944C0.979531 1.02944 1.58953 0.909435 2.19953 0.909435C12.0295 0.909435 21.8495 0.869435 31.6795 0.979435C33.9695 0.999435 36.3195 1.27944 38.5395 1.83944C44.9195 3.45944 49.0695 7.54944 50.2795 14.0294C51.5595 20.8494 48.9995 26.2194 43.1295 29.9694C42.7995 30.1794 42.4895 30.4094 41.9695 30.7794C42.5795 31.1294 42.9995 31.4394 43.4795 31.6194C52.0695 34.9294 55.4695 42.9794 53.0095 51.7494C50.8295 59.5094 44.7795 64.3194 36.6895 64.5194C25.0295 64.7994 13.3695 64.8394 1.70953 64.9794C1.31953 64.9794 0.929531 64.9194 0.269531 64.8694L0.269531 64.8594ZM12.9295 54.1794C13.4695 54.3294 13.7695 54.4894 14.0695 54.4794C20.5295 54.3794 26.9995 54.4094 33.4395 54.0794C37.4795 53.8694 40.1995 50.8894 40.5995 46.9794C41.0595 42.4994 38.9995 39.0394 35.0495 37.7894C33.9995 37.4594 32.8695 37.2194 31.7695 37.1894C26.2695 37.0094 20.7695 36.8894 15.2695 36.7894C14.5195 36.7794 13.7595 36.9394 12.9395 37.0394V54.1894L12.9295 54.1794ZM12.8295 26.0794C13.3995 26.2394 13.6195 26.3594 13.8395 26.3594C19.3595 26.3594 24.8695 26.3894 30.3795 26.2894C31.5395 26.2694 32.7495 25.8994 33.8395 25.4594C36.9995 24.1994 38.5095 21.5594 38.2495 18.0094C37.9995 14.5894 36.1895 12.4694 32.7395 11.6894C31.6595 11.4494 30.5295 11.2994 29.4295 11.2794C24.6295 11.2194 19.8395 11.2294 15.0395 11.2294C14.3495 11.2294 13.6695 11.3394 12.8195 11.4194V26.0694L12.8295 26.0794Z" fill="#707173"/>
<path d="M199.57 1.01907H210.7C211.24 2.83907 211.36 62.0491 210.82 64.8291H198.37C189.84 51.1691 181.43 37.3591 172.52 23.7391C172.14 27.2091 172.18 30.5891 172.17 33.9791C172.17 37.4191 172.17 40.8491 172.17 44.2891V64.7991H160.81C160.34 63.1191 160.2 4.15907 160.72 0.89907C162.63 0.89907 164.6 0.89907 166.58 0.89907C167.86 0.89907 169.16 1.03907 170.41 0.869072C172.31 0.609072 173.27 1.49907 174.2 3.02907C181.92 15.7291 189.71 28.3791 197.48 41.0491C197.89 41.7191 198.33 42.3791 198.85 43.1891C199.69 42.3391 199.4 41.4291 199.41 40.6291C199.43 28.3991 199.42 16.1691 199.43 3.93907C199.43 2.99907 199.53 2.06907 199.59 1.01907H199.57Z" fill="#707173"/>
<path d="M286.11 1.07812C286.17 1.99813 286.26 2.85812 286.26 3.71812C286.26 16.6581 286.31 29.5981 286.23 42.5381C286.21 45.3981 285.94 48.2881 285.43 51.1081C284.11 58.4081 279.74 63.0781 272.63 65.0981C267.93 66.4281 263.13 66.4681 258.42 65.2681C251.11 63.4081 247.2 58.3381 245.87 51.1181C245.54 49.3381 245.47 47.5181 245.25 45.4181C249.29 44.9481 253.04 44.4981 257 44.0381C257.19 45.0781 257.35 45.9181 257.51 46.7581C257.67 47.6181 257.76 48.4981 257.99 49.3381C259.44 54.6881 265.19 57.0181 270.01 54.2481C271.41 53.4481 272.41 52.2681 272.67 50.7281C273.11 48.1481 273.58 45.5281 273.59 42.9181C273.68 29.9781 273.63 17.0381 273.63 4.09813V1.08813H286.1L286.11 1.07812Z" fill="#707173"/>
<path d="M235.809 64.8486C235.179 64.8986 234.719 64.9686 234.249 64.9686C230.739 64.9686 227.219 64.9686 223.759 64.9686C223.219 63.1486 223.079 4.10859 223.599 1.05859H235.809V64.8486Z" fill="#707173"/>
<path d="M77.0687 64.8586H65.2787C64.6887 63.1086 64.5387 3.96859 65.1387 1.05859H76.9187C77.3987 2.93859 77.5487 61.4886 77.0687 64.8586Z" fill="#707173"/>
<path d="M3.66959 102.889H1.64959C1.02959 102.259 0.879589 87.0188 1.38959 83.1288C1.86959 83.0688 2.39959 83.0088 2.92959 82.9288C4.37959 82.7088 5.23959 83.3188 5.92959 84.6388C8.02959 88.6688 10.2696 92.6388 12.4696 96.6188C12.8396 97.2888 13.2796 97.9288 13.9496 98.5388C14.4496 95.9988 14.2996 93.4688 14.3196 90.9588C14.3496 88.4188 14.3196 85.8688 14.3196 83.1288C15.2296 83.0788 15.8796 83.0388 16.6996 82.9888V102.659C13.6196 103.369 13.5396 103.339 12.1796 100.879C9.98959 96.8888 7.80959 92.8988 5.60959 88.9188C5.23959 88.2488 4.80959 87.6188 4.14959 87.0288C3.57959 92.2688 3.95959 97.4788 3.66959 102.899V102.889Z" fill="#707173"/>
<path d="M131.74 25.0595C132.13 25.0895 132.55 25.0295 132.9 25.1595C134.04 25.5895 134.23 26.1595 133.65 27.1595C133.34 27.6895 133 28.1995 132.68 28.7295C132.65 28.7795 132.72 28.8795 132.81 29.2395C134.13 29.1695 135.53 29.0895 137.04 29.0095C137.07 29.3895 137.09 29.7695 137.14 30.3695H133.94C133.91 30.4995 133.87 30.6395 133.84 30.7695C134.5 31.0595 135.19 31.3095 135.82 31.6595C136.58 32.0895 137.05 32.6895 136.48 33.6695C135.33 33.3295 134.17 32.9795 133.01 32.6395C132.94 32.7795 132.88 32.9295 132.81 33.0695C133.29 33.3995 133.77 33.7395 134.25 34.0695C135.88 35.2195 135.85 35.5895 133.98 36.9695C133.39 36.2595 132.8 35.5395 132.06 34.6595C132.06 35.9195 132.09 36.9195 132.01 37.9195C132.01 38.0295 131.33 38.0895 130.99 38.1595C130.55 37.2495 130.16 36.4395 129.78 35.6295C129.64 35.6695 129.5 35.7095 129.37 35.7395C129.31 36.1795 129.37 36.6695 129.17 37.0295C128.96 37.4495 128.58 37.9695 128.18 38.0595C127.4 38.2495 127.38 37.5395 127.3 36.9795C127.27 36.7595 127.15 36.5395 127.14 36.5195C126.3 36.7895 125.49 37.0395 124.48 37.3695C124.42 36.4895 124.38 35.9695 124.35 35.4495C124.86 35.3995 125.25 35.3595 126.04 35.2795C125.49 34.7795 125.26 34.3895 124.97 34.3495C124.04 34.2095 123.13 34.1695 123.65 32.6695C124.36 32.5895 125.13 32.4995 125.99 32.4095C125.66 30.9895 124.06 31.2395 123.23 30.2595C123.41 29.7695 123.61 29.2295 123.91 28.3895C124.94 29.0895 125.76 29.6495 126.73 30.3095C127.14 28.6195 125.42 28.2595 124.99 26.9595C125.57 26.5895 126.19 26.1895 127 25.6695C127.71 26.7095 128.32 27.5995 129.01 28.6095C129.99 27.4795 128.91 26.4395 129.12 25.1595C129.97 25.1095 130.87 25.0595 131.77 25.0195C131.4 25.7795 131.28 26.5295 132.11 27.2195C131.98 26.4995 131.86 25.7795 131.73 25.0495L131.74 25.0595Z" fill="#707173"/>
<path d="M285.31 102.819H283.12C283.12 101.569 283.15 100.479 283.12 99.3794C283.05 97.3094 282.99 95.2394 282.83 93.1694C282.71 91.5894 281.9 90.4094 280.3 90.0594C278.68 89.6994 277.13 90.2094 276.32 91.5994C275.59 92.8594 275.18 94.3794 274.95 95.8394C274.72 97.3194 274.89 98.8694 274.88 100.379C274.88 101.159 274.88 101.939 274.88 102.819C274.08 102.859 273.55 102.889 273.05 102.909C272.43 101.059 272.34 84.1294 272.92 81.6094H274.9V90.1794C275.83 89.5694 276.38 89.1694 276.96 88.8294C280.53 86.7594 284.8 88.4894 285.23 92.4694C285.59 95.8394 285.3 99.2894 285.3 102.819H285.31Z" fill="#707173"/>
<path d="M123.539 96.2498H113.419C113.169 100.79 116.609 102.43 122.309 100.71C122.769 102.45 122.799 102.65 121.419 102.87C119.559 103.16 117.599 103.4 115.759 103.15C113.389 102.83 111.659 101.24 111.079 98.8898C110.689 97.2998 110.419 95.5298 110.689 93.9398C111.499 89.1498 115.099 87.3098 119.779 88.4398C121.129 88.7598 122.159 89.7398 122.769 91.0298C123.489 92.5598 123.969 94.1498 123.539 96.2498ZM113.399 94.2898H120.889C121.069 91.7198 119.779 90.0998 117.539 89.9698C115.219 89.8298 113.589 91.4598 113.399 94.2898Z" fill="#707173"/>
<path d="M210.799 103.4C207.469 103.68 203.359 101.17 203.239 95.8699C203.139 91.2999 206.309 88.0799 210.749 88.0899C215.329 88.0999 218.179 91.5599 218.179 95.6999C218.179 100.14 215.079 103.37 210.799 103.39V103.4ZM205.819 95.6699C205.769 98.9999 207.959 101.62 210.789 101.58C213.529 101.54 215.599 99.0399 215.589 95.7699C215.589 92.5499 213.459 89.9899 210.769 89.9599C208.069 89.9299 205.879 92.4699 205.829 95.6699H205.819Z" fill="#707173"/>
<path d="M99.5797 47.9891C99.8497 47.5491 100.42 47.0291 100.33 46.6791C100.02 45.4591 100.85 45.1591 101.59 45.2191C102.02 45.2491 102.39 46.0491 102.92 46.6491C102.19 46.8791 101.84 46.9891 101.03 47.2391C101.82 47.5791 102.3 47.9791 102.69 47.9091C104.06 47.6491 104.18 48.3191 104.03 49.4491C103.25 49.6391 102.52 49.8091 101.8 49.9891C101.77 50.1391 101.75 50.2891 101.72 50.4391C102.79 50.7591 103.86 51.0891 104.98 51.4191V53.3291C103.78 52.9891 102.78 52.6991 101.78 52.4191C101.7 52.5691 101.61 52.7191 101.53 52.8691C102.42 53.5491 103.31 54.2291 104.21 54.9091C103.403 56.3758 101.993 56.2925 99.9797 54.6591C99.4597 56.0491 100.65 56.7691 101.11 57.7091C100.29 58.4891 99.4897 58.4991 98.7497 57.7691C96.9897 56.0291 95.2597 54.2591 93.3697 52.3391C94.1097 52.0491 94.6397 51.8391 95.4397 51.5291C94.0897 50.9791 92.9797 50.5191 91.6797 49.9891C92.1097 49.1491 92.4197 48.5591 92.7597 47.8791C93.7097 48.5091 94.4897 49.0191 95.3597 49.5991C95.7297 48.2791 92.8497 47.0691 95.4897 45.8291C96.0997 46.5991 96.6997 47.3591 97.4697 48.3391C98.0097 47.1291 96.4897 45.2091 99.0597 45.1191V47.8291C99.2297 47.8891 99.3997 47.9391 99.5597 47.9991L99.5797 47.9891Z" fill="#707173"/>
<path d="M37.4402 94.0882C37.1202 89.8482 35.1402 89.1282 29.6602 90.8882C29.1302 89.8982 29.4602 89.2282 30.4302 88.8282C32.4902 87.9782 34.6502 87.8582 36.7602 88.4682C38.6302 89.0082 39.7002 90.4682 39.7602 92.3782C39.8702 95.7882 39.7902 99.2082 39.7902 102.568C38.5102 103.568 38.0902 102.508 37.4402 101.638C35.8402 102.918 34.0702 103.628 31.9802 103.398C29.5402 103.128 27.9802 101.868 27.6502 99.6882C27.3402 97.6682 28.3602 95.7982 30.5302 94.9982C31.9202 94.4882 33.4602 94.3382 34.9502 94.1282C35.7102 94.0182 36.5102 94.1082 37.4602 94.1082L37.4402 94.0882ZM37.3402 96.2182C35.7202 95.4082 34.0802 95.9282 32.5002 96.3382C30.9402 96.7482 30.0402 98.0782 30.2502 99.2882C30.4902 100.668 32.1102 101.718 33.7302 101.558C36.4302 101.288 37.7702 99.3382 37.3502 96.2182H37.3402Z" fill="#707173"/>
<path d="M239.139 88.8096C241.139 88.2896 241.449 88.3596 241.469 89.6896C241.539 93.9896 241.499 98.2896 241.499 102.6C239.969 103.32 239.209 102.9 238.979 101.17C237.239 102.85 235.419 103.63 233.209 103.38C231.079 103.14 229.589 102.07 229.069 100.01C228.779 98.8696 228.679 97.6496 228.649 96.4596C228.589 94.2296 228.649 91.9896 228.629 89.7496C228.629 88.9096 228.899 88.3596 229.849 88.3496C230.799 88.3496 231.089 88.9096 231.089 89.7396C231.089 91.5796 231.089 93.4096 231.099 95.2496C231.099 96.2096 231.109 97.1696 231.209 98.1196C231.379 99.7596 232.109 101.01 233.819 101.45C235.259 101.82 237.199 101.18 237.949 99.7096C238.579 98.4796 238.969 97.0296 239.079 95.6396C239.259 93.3496 239.129 91.0396 239.129 88.7996L239.139 88.8096Z" fill="#707173"/>
<path d="M194.65 83.0588V85.0688H188.85C188.09 87.1088 188.51 89.0288 188.44 90.9088C188.37 92.9088 188.42 94.9088 188.42 96.8988C188.42 98.8888 188.42 100.709 188.42 102.799C187.53 102.869 186.86 102.919 185.85 102.989V85.1788H179.73V83.0488H194.64L194.65 83.0588Z" fill="#707173"/>
<path d="M79.7999 88.6798C81.0399 88.2498 82.0499 88.0798 82.0799 89.5498C82.1499 93.9298 82.0999 98.3098 82.0999 102.54C80.4699 103.48 79.8699 102.72 79.4999 101.21C77.8299 102.92 75.9799 103.63 73.7699 103.38C71.7299 103.15 70.3499 102.15 69.7199 100.19C69.5299 99.5898 69.3299 98.9498 69.3199 98.3298C69.2799 95.1498 69.2999 91.9598 69.2999 88.7998C71.3199 88.2198 71.5699 88.3398 71.6399 90.0798C71.6999 91.7598 71.6399 93.4298 71.6699 95.1098C71.6899 96.1498 71.7199 97.1898 71.8499 98.2098C72.1099 100.15 72.9499 101.17 74.5099 101.47C76.1599 101.78 77.6699 101.21 78.4499 99.8198C79.1599 98.5498 79.5899 97.0098 79.7299 95.5498C79.9399 93.3398 79.7799 91.0898 79.7799 88.6698L79.7999 88.6798Z" fill="#707173"/>
<path d="M90.5999 31.8484C89.1399 31.875 88.2966 30.9617 88.0699 29.1084C87.6699 30.2684 87.4599 30.8984 87.2399 31.5284C87.1299 31.5084 87.0199 31.4884 86.9199 31.4684C87.1099 30.0084 86.9499 28.3684 87.5799 27.1184C88.2499 25.7684 87.8499 24.3684 88.4299 23.0884C89.0399 21.7584 89.5199 20.3784 90.2299 18.5684C90.6599 19.8584 90.9499 20.7484 91.3599 22.0184C91.7799 20.8684 92.0599 20.0984 92.3299 19.3384C94.3599 18.9484 93.6299 20.6784 94.1299 21.6284C94.7999 20.6384 95.5899 20.2384 96.5999 20.8784C96.6599 21.8717 96.1133 22.5117 94.9599 22.7984C95.4799 23.2284 95.8699 23.5084 96.2199 23.8484C96.5699 24.1884 97.1799 24.6284 97.1299 24.9384C97.0099 25.7884 96.2399 25.6584 95.5999 25.5284C95.2299 25.4484 94.8799 25.3184 94.2399 25.6084C95.0799 26.3084 95.9099 27.0084 96.8899 27.8284C96.6899 28.2884 96.4599 28.8384 96.0999 29.6784C95.0699 28.8084 94.2299 28.0984 93.3799 27.3784C93.2399 27.4784 93.1099 27.5684 92.9699 27.6684C93.5099 28.6584 94.0499 29.6484 94.5899 30.6484C92.6299 32.1084 92.3999 31.9984 91.0699 28.8884C90.5099 29.5217 90.3466 30.505 90.5799 31.8384L90.5999 31.8484Z" fill="#707173"/>
<path d="M49.589 90.2784C49.4357 89.165 50.3357 88.4217 52.289 88.0484C52.7157 85.8084 53.5957 84.6484 54.929 84.5684C55.029 85.7184 55.129 86.8684 55.239 88.1784C56.129 88.2284 56.899 88.3084 57.679 88.3184C58.949 88.3384 59.139 89.0184 58.779 90.2084C57.679 90.3084 56.529 90.4184 55.129 90.5484C55.129 93.4884 55.049 96.3384 55.159 99.1784C55.209 100.608 56.249 101.438 57.689 101.548C58.139 101.578 58.599 101.498 59.109 101.458C59.419 102.478 59.239 103.088 58.199 103.318C55.049 104.038 52.839 102.478 52.619 99.2084C52.489 97.2284 52.579 95.2284 52.569 93.2284C52.569 92.3684 52.569 91.5184 52.569 90.5484C51.449 90.4384 50.599 90.3584 49.589 90.2584V90.2784Z" fill="#707173"/>
<path d="M112.41 57.6998C112.48 57.8298 112.64 58.0998 112.88 58.5298C112.47 58.6798 112.09 58.8298 111.59 59.0198C111.85 59.4698 112.09 59.8998 112.5 60.6098H108.83C109.86 61.1198 110.66 61.5199 111.6 61.9799C110.93 63.3799 109.86 63.3099 108.8 62.9099C105.29 61.5699 105.3 61.5398 105.4 59.5698C105.84 59.5998 106.28 59.6198 106.72 59.6498V56.9998C107.83 57.3498 108.74 57.6398 109.66 57.8998C109.69 57.8998 109.8 57.6498 109.95 57.3598C109.02 56.6298 107.04 56.3198 108.32 54.1998C109.04 54.6198 109.74 55.0198 110.72 55.5898C110.52 54.2598 109.74 53.0699 110.99 51.9099C111.38 52.6399 111.74 53.3198 112.26 54.2898C112.72 52.8898 113.08 51.7998 113.56 50.3398C114.88 52.3198 113.31 53.6598 113.37 55.3098C115.17 54.3798 114.22 51.4398 117.08 51.2898C116.66 52.4298 116.32 53.3398 115.93 54.3898C117.17 54.6398 118.63 54.7898 118.61 56.9498C117.62 56.7398 116.69 56.5498 115.72 56.3398C115.63 56.7198 115.52 57.1598 115.37 57.7398C114.4 57.4498 113.53 56.0898 112.4 57.6898L112.41 57.6998Z" fill="#707173"/>
<path d="M118.09 8.45895C117.19 8.93895 116.28 9.41895 115.22 9.97895C114.79 9.03895 114.43 8.25895 113.99 7.28895C115.57 7.17895 117 7.07895 118.94 6.93895C116.97 5.22895 114.96 6.65895 113.11 5.62895C114.24 4.78895 115.21 5.28895 116.14 5.37895C117.03 5.46895 117.91 5.59895 119.31 5.77895C117.53 3.43895 114.77 4.04895 113.02 2.22895C114.57 1.52895 115.27 2.69895 116.18 3.04895C117.19 3.44895 118.16 3.93895 119.34 4.47895V3.05895L119.28 3.07895C119.51 2.98895 119.96 2.84895 119.95 2.81895C119.8 2.24895 119.6 1.68895 119.4 1.06895C120.86 0.678946 119.99 2.40895 121.19 2.43895C121.91 2.11895 122.45 0.268947 123.94 1.44895C123.26 1.73895 122.54 2.04895 121.76 2.38895C122.23 3.54895 122.8 3.41895 123.46 2.90895H123.44C123.14 3.23895 122.84 3.57895 122.44 4.02895C124.37 4.87895 126.68 3.26895 128.84 4.82895C126.45 5.55895 124.26 4.69895 121.99 5.10895V6.37895C121.57 5.85895 121.21 6.16895 121.45 6.56895C121.74 7.06895 122.39 7.35895 122.9 7.70895C123.85 8.35895 124.81 8.97895 125.64 9.80895C123.46 10.3089 122.97 7.76895 120.97 7.38895C121.32 9.20895 123.38 9.57895 123.8 11.3289C121.76 11.3289 122.01 8.69895 120.22 8.48895C119.76 10.2889 122.35 10.8589 121.78 13.1689C120.97 12.0089 120.44 11.2489 119.68 10.1489C119.42 11.5789 119.32 12.6489 118.99 13.6489C118.87 14.0089 118.23 14.2089 117.82 14.4789C117.71 13.9889 117.41 13.4489 117.54 13.0289C117.79 12.2189 118.29 11.4789 118.66 10.7489C117.41 9.43895 116.77 11.8389 115.31 10.7989C116.31 10.4189 117.08 10.1789 117.8 9.82895C118.41 9.52895 118.99 9.10895 118.02 8.49895C118.08 8.20895 118.14 7.91895 118.29 7.24895C117.31 7.54895 116.59 7.77895 115.86 8.00895C115.88 8.14895 115.9 8.29895 115.92 8.43895H118.08L118.09 8.45895Z" fill="#707173"/>
<path d="M148.019 100.96C148.689 101.13 149.289 101.36 149.909 101.42C150.609 101.49 151.339 101.52 152.029 101.39C153.029 101.2 153.809 100.61 153.959 99.5198C154.109 98.5198 153.499 97.8498 152.719 97.3798C151.699 96.7598 150.599 96.2598 149.579 95.6498C148.349 94.9198 147.519 93.8898 147.529 92.3698C147.529 90.6198 148.499 88.9398 150.229 88.5398C151.739 88.1898 153.389 88.2298 154.949 88.3798C155.999 88.4798 156.029 89.3598 155.499 90.2398C154.569 90.1498 153.629 89.9698 152.699 89.9798C151.609 89.9898 150.589 90.3698 150.249 91.5298C149.889 92.7398 150.689 93.4798 151.639 94.0198C152.539 94.5298 153.489 94.9598 154.399 95.4498C156.079 96.3398 156.719 97.7598 156.519 99.6298C156.309 101.55 155.169 102.79 153.419 103.15C151.979 103.44 150.409 103.29 148.919 103.15C147.909 103.05 147.359 102.38 148.019 100.97V100.96Z" fill="#707173"/>
<path d="M262.199 101.09C262.689 102.56 262.239 103.2 261.019 103.34C257.989 103.68 255.239 103.17 253.339 100.52C251.389 97.8 251.349 94.81 252.709 91.89C254.159 88.77 258.309 87.18 261.539 88.32C262.599 88.69 262.519 89.41 261.979 90.32C259.339 89.59 256.869 89.74 255.309 92.39C253.929 94.72 253.959 97.15 255.469 99.41C257.119 101.86 259.539 101.89 262.199 101.09Z" fill="#707173"/>
<path d="M111.43 45.9493C111.54 45.4993 111.66 45.0393 111.82 44.4093C109.47 44.6393 109.32 47.4293 107.15 48.1193C107.42 45.5793 110.45 45.5693 111 43.3193C110.23 43.4093 109.64 43.4793 109.04 43.5493L109.09 43.5993C109.45 43.1893 109.81 42.7893 110.19 42.3593C108.94 40.1593 107.98 39.9493 103.59 41.0393C103.63 40.2693 103.67 39.4993 103.73 38.5093C105.66 39.2093 108 38.0693 109.38 40.0893C110.51 39.9893 111.48 39.8993 112.79 39.7793C113.94 38.5193 114.62 36.2393 117.41 35.2793C116.86 36.1893 116.64 36.7393 116.26 37.1393C115.28 38.1893 114.25 39.1993 113.21 40.1793C112.53 40.8193 112.89 41.2793 113.37 41.7693L113.32 41.6993C113.33 41.9593 113.34 42.2293 113.36 42.4893C113.55 42.4193 113.74 42.3593 113.93 42.2893L113.9 42.2593V43.6193H118.5C117.1 45.1693 115.38 43.3693 113.84 44.8393C115.52 45.1693 116.81 45.4293 118.29 45.7293C117.24 47.0593 116.18 45.6593 115.24 46.2193C115.47 47.7693 118.3 48.3093 117.05 50.5593C115 50.2693 115.79 47.8793 114.1 47.0193C113.82 47.8993 113.56 48.6893 113.31 49.4893C113.17 49.4593 113.03 49.4193 112.89 49.3893C113.13 48.3393 113.36 47.2893 113.6 46.2393C113.49 46.1693 113.37 46.0993 113.26 46.0293C112.94 46.2993 112.62 46.5793 112.31 46.8493L112.37 46.9193C112.35 46.2593 112.85 45.0793 111.35 45.9093L111.44 45.9693L111.43 45.9493Z" fill="#707173"/>
<path d="M132.609 12.6191C131.729 12.7091 130.989 12.7891 130.119 12.8791C130.429 11.1791 131.769 11.0891 133.339 10.7891C132.349 10.2191 131.649 9.81906 130.959 9.41906C131.949 7.87906 132.089 7.80907 133.409 8.61907C133.969 8.95906 134.429 9.53906 134.829 8.37906C134.079 7.87906 133.319 7.37906 132.279 6.68906C132.909 6.25906 133.289 5.84906 133.739 5.73906C134.519 5.53906 137.719 7.21906 137.939 7.96906C138.129 8.62906 138.589 9.31906 137.419 9.92906C136.579 10.3691 136.159 11.6291 135.559 12.5091C136.269 12.9791 136.769 13.3191 137.459 13.7791C136.759 14.2191 136.249 14.5391 135.609 14.9291C135.839 15.0591 135.999 15.2091 136.179 15.2291C137.329 15.3791 138.169 15.7891 138.009 17.1691C136.822 17.3557 135.692 16.9691 134.619 16.0091C133.989 16.7491 133.349 17.4991 132.579 18.4091C131.579 16.6591 132.849 15.8391 133.249 14.6291C132.429 15.0991 131.609 15.5791 130.769 16.0591C129.909 14.0791 132.449 14.1791 132.619 12.6291L132.609 12.6191Z" fill="#707173"/>
<path d="M141.699 43.5597C141.469 43.3397 141.939 42.4797 141.049 42.8597C141.159 41.5897 140.629 41.0997 139.349 41.4197C138.489 41.6297 137.609 41.7597 136.369 41.9997C137.129 40.1297 138.619 41.2197 139.449 40.4297C138.719 39.1197 136.299 39.3197 136.379 37.2697C137.189 36.5397 137.849 36.9097 138.199 37.5697C138.929 38.9297 140.129 39.5097 141.599 39.9797C141.729 38.7697 141.849 37.6197 142.009 36.1397C142.939 36.7797 143.719 36.9797 144.659 35.9297C144.659 37.9797 143.779 39.0797 142.949 40.1997C143.029 39.5397 143.109 38.8797 143.189 38.2097C143.029 38.1697 142.879 38.1297 142.719 38.0897C142.509 38.6297 142.259 39.1697 142.119 39.7297C142.109 39.7897 142.699 39.9997 143.009 40.1397C143.449 40.7997 143.899 41.4697 144.299 42.0797C146.749 41.3397 147.319 38.5697 150.039 37.8597C148.909 40.3597 146.239 40.6997 145.239 42.6597C145.849 44.5397 147.359 44.0997 148.989 43.7697C148.739 44.4297 148.609 44.7797 148.419 45.2797C147.839 45.0997 147.349 44.8297 146.849 44.8297C146.509 44.8297 146.179 45.2197 145.839 45.4297L145.909 45.3997C145.409 45.7297 144.909 46.0597 144.409 46.3897H144.469C144.369 46.1297 144.259 45.8597 144.069 45.3597C142.529 47.1697 142.919 49.8597 140.549 51.2197C140.699 48.6597 142.519 47.1297 143.319 44.7897C142.809 44.4197 142.199 43.9597 141.589 43.5097L141.649 43.5697L141.699 43.5597Z" fill="#707173"/>
<path d="M95.9791 102.859H93.8691V88.7589C94.9425 88.4589 95.7625 88.9255 96.3291 90.1589C97.7091 88.6489 99.2591 87.6089 101.529 88.4289C101.569 88.8189 101.619 89.2689 101.669 89.7589C101.429 89.8889 101.249 90.0589 101.039 90.0889C97.9791 90.4489 96.7891 91.4489 96.2991 94.4789C96.0191 96.1989 96.0591 97.9789 95.9891 99.7289C95.9491 100.679 95.9891 101.629 95.9891 102.869L95.9791 102.859Z" fill="#707173"/>
<path d="M103.169 24.3797C102.859 23.6097 102.739 22.8097 101.689 22.4597C100.549 22.0897 100.589 21.0897 101.089 19.9497C101.889 20.4097 102.599 20.8197 103.569 21.3797C103.399 20.0297 102.269 18.8897 103.679 17.7297C104.069 18.3697 104.439 18.9797 104.909 19.7597C105.909 18.7297 104.709 16.9597 106.399 16.4297C107.869 17.8097 105.719 19.2497 106.319 20.8097C107.899 19.7397 106.929 17.1297 109.489 16.5197C109.239 17.7497 109.039 18.7497 108.819 19.8297C109.949 20.0297 111.349 20.0697 111.559 21.8797C110.489 22.8997 109.599 21.9397 108.579 21.4097C108.479 22.0097 108.389 22.5297 108.299 23.0597C106.089 22.3397 105.649 22.5097 105.559 24.3197C104.729 24.3197 103.889 24.3197 103.049 24.3197L103.169 24.3997V24.3797Z" fill="#707173"/>
<path d="M134.319 58.3689C133.959 58.0589 133.609 57.7589 133.149 57.3689C133.619 56.9889 133.949 56.7189 134.549 56.2389C133.689 55.6289 132.899 55.0789 132.009 54.4489C132.129 54.2389 132.359 53.8589 132.679 53.3189C131.919 52.7389 130.209 53.5189 130.189 51.6789C131.339 50.7989 132.499 51.1989 133.619 51.8089C133.979 50.7989 134.309 49.8889 134.669 48.8789C136.479 49.9989 135.039 51.3489 135.329 52.6789C136.049 51.7389 136.629 50.9789 137.269 50.1389C138.339 51.7789 136.929 52.5989 136.399 53.6889C137.539 54.3989 137.999 53.0389 138.959 53.1489C139.279 54.6989 137.979 55.2189 136.699 56.1689C137.829 56.3689 138.619 56.5189 139.449 56.6589C139.419 57.7089 138.889 58.1989 137.969 58.2489C136.729 58.3089 135.489 58.2889 134.249 58.3089L134.329 58.3589L134.319 58.3689Z" fill="#707173"/>
<path d="M148.02 31.2584C147.31 32.0384 146.66 32.5584 145.76 31.3684C145.49 31.0184 144.69 30.6184 144.22 31.4684C144.15 31.5884 143.98 31.6584 143.85 31.7484C142.87 30.3984 141.96 32.1484 140.92 31.8184C140.4 30.4884 141.43 30.0384 142.25 29.4684C141.81 28.7884 141.38 28.1184 140.67 27.0184C141.75 27.2384 142.33 27.3584 142.92 27.4784C143.06 27.0684 143.2 26.6484 143.46 25.8984C144.09 26.8184 144.55 27.4784 145.18 28.3984C145.44 27.6684 145.62 27.1584 145.81 26.6084C147.04 26.8684 146.54 28.0484 147.04 28.8484C147.51 28.4584 147.95 28.0984 148.46 27.6784C149.59 28.7984 148.83 29.7584 148.39 30.7284C148.27 30.9084 148.14 31.0784 148.01 31.2584H148.02Z" fill="#707173"/>
<path d="M111.359 14.5391C114.499 14.6291 116.949 15.8491 118.689 18.7691C114.869 19.3791 113.019 17.1091 111.359 14.5391Z" fill="#707173"/>
<path d="M93.3594 17.6299C96.2694 15.4599 99.0594 15.3499 102.319 16.1799C99.6594 19.3199 96.6894 18.2799 93.3594 17.6299Z" fill="#707173"/>
<path d="M119.83 54.1389C122.46 51.3489 125.33 52.3189 128.17 52.9189C126.61 54.9689 123.24 55.5189 119.83 54.1389Z" fill="#707173"/>
<path d="M133.65 89.2784C134.2 87.1384 134.71 85.1484 135.24 83.0684H138.03C137.3 85.1184 136.68 87.0484 135.92 88.9284C135.54 89.8584 134.72 89.7984 133.65 89.2784Z" fill="#707173"/>
<path d="M111.889 26.0393C114.879 23.1393 117.779 24.0693 120.969 24.9493C118.049 26.7893 115.269 27.2193 111.889 26.0393Z" fill="#707173"/>
<path d="M107.74 26.4199C111.24 26.9699 113.97 27.7399 115.61 30.8399C111.66 31.7799 110.12 28.9099 107.74 26.4199Z" fill="#707173"/>
<path d="M98.4788 43.8995C97.2188 43.8595 96.2488 42.7995 96.3288 41.5295C96.3988 40.4495 97.4688 39.3995 98.5388 39.3795C99.7488 39.3495 100.769 40.4295 100.769 41.7095C100.769 43.0895 99.8688 43.9395 98.4888 43.8995H98.4788Z" fill="#707173"/>
<path d="M118.189 64.8483C117.439 64.8483 116.649 64.9183 115.879 64.8283C115.069 64.7383 114.309 64.4783 114.349 63.3983C114.379 62.4383 114.769 61.5683 115.709 61.4283C116.479 61.3083 117.449 61.4783 118.109 61.8883C118.989 62.4383 118.919 63.2983 118.199 64.8583L118.189 64.8483Z" fill="#707173"/>
<path d="M148.02 31.2592C148.15 31.0792 148.27 30.8992 148.4 30.7292C148.98 30.3192 149.56 29.8992 150.55 29.1992C150.64 30.4792 150.69 31.2592 150.75 32.0492C149.83 31.7692 149.51 32.3992 149.37 33.2392C149.81 32.8292 150.26 32.4192 150.7 31.9992C151.35 33.2592 150.67 34.1392 149.78 34.8592C148.92 35.5592 148.45 35.2792 147.9 34.0592C147.74 33.7092 147.27 33.4892 146.75 33.0492C147.15 32.4992 147.59 31.8792 148.03 31.2692L148.02 31.2592Z" fill="#707173"/>
<path d="M100.47 14.0789C97.8297 14.8189 95.6397 14.9789 93.4297 14.0389C94.5297 11.6989 95.1097 11.4589 97.1997 12.4489C98.1797 12.9089 99.1397 13.4189 100.47 14.0789Z" fill="#707173"/>
<path d="M102.49 26.4285C103.24 26.8085 103.98 27.1885 104.7 27.5585C104.65 27.8085 104.66 28.0485 104.58 28.0885C103.9 28.3885 102.86 29.0785 102.59 28.8485C101.3 27.7785 98.9301 28.9185 98.3201 26.6985C98.2301 26.3585 98.3101 25.9685 98.3101 25.4785C99.8601 25.5685 100.87 27.1485 102.39 26.4685C102.42 26.4585 102.46 26.4385 102.5 26.4285H102.49Z" fill="#707173"/>
<path d="M122.2 16.1582C124.28 19.1282 124.59 20.5982 123.84 23.2382C121.65 21.8682 121.36 20.7082 122.2 16.1582Z" fill="#707173"/>
<path d="M129 40.2891C130.93 42.1591 131.4 43.9891 130.73 47.1191C128.56 45.6991 128.24 44.4591 129 40.2891Z" fill="#707173"/>
<path d="M102.49 26.4298C102.49 26.4298 102.41 26.4498 102.38 26.4698C101.83 26.1798 101.27 25.8998 100.72 25.5998C99.6402 25.0098 99.5702 24.8098 99.7902 22.7598C100.98 23.3298 102.07 23.8498 103.16 24.3698L103.04 24.2898C103.83 24.7098 104.63 25.1198 105.64 25.6598C104.54 26.7798 103.57 26.8698 102.48 26.4298H102.49Z" fill="#707173"/>
<path d="M112.58 32.9199C112.55 33.3399 112.53 33.7599 112.51 34.1399H115.57C114.73 35.3899 114.04 36.3999 113.36 37.3999C113.24 37.3599 113.13 37.3199 113.01 37.2699C113.12 36.5799 113.23 35.8899 113.36 35.0999C111.03 35.2999 111.82 38.0699 109.92 38.8299C110.42 36.5899 110.82 34.5599 112.58 32.9199Z" fill="#707173"/>
<path d="M98.5889 36.7891C98.3489 33.9091 100.249 32.5991 102.329 31.2891C102.569 33.7891 101.169 35.8391 98.5889 36.7891Z" fill="#707173"/>
<path d="M111.34 6.89844C110.82 9.61844 109.73 11.4784 107.5 12.6684C106.96 10.1084 107.63 9.09844 111.34 6.89844Z" fill="#707173"/>
<path d="M98.1702 8.47937C99.3202 7.60937 100.39 6.79937 101.63 5.85938C102.43 7.19938 102.43 8.17938 101.49 9.03938C100.68 9.77938 99.6902 9.62937 98.1602 8.47937H98.1702Z" fill="#707173"/>
<path d="M110.83 1.7793C111.49 2.5793 112.06 3.2693 112.7 4.0593C110.63 4.5293 109.71 4.3093 107.84 2.8893C108.82 2.5293 109.67 2.2093 110.83 1.7793Z" fill="#707173"/>
<path d="M142.079 20.0097C139.909 21.4897 138.209 20.7297 136.189 19.7097C138.299 18.9197 140.049 18.7597 142.079 20.0097Z" fill="#707173"/>
<path d="M95.6502 40.2782C93.0802 40.2382 91.8702 38.9882 90.9102 36.9082C93.1402 37.2882 94.6102 38.2082 95.6502 40.2782Z" fill="#707173"/>
<path d="M126.299 21.8484C126.199 19.1784 128.119 18.4584 130.089 17.3184C129.539 19.6384 128.379 20.9884 126.299 21.8484Z" fill="#707173"/>
<path d="M123.49 46.0099C123.58 43.3299 125.09 42.4899 127.03 41.6699C126.79 43.9099 125.45 44.9199 123.49 46.0099Z" fill="#707173"/>
<path d="M106.95 34.9497C106.05 35.6997 105.57 36.4197 104.95 36.5497C104.08 36.7397 103.47 36.0297 103.41 35.1497C103.36 34.2697 103.88 33.5097 104.79 33.6297C105.42 33.7097 105.97 34.3197 106.94 34.9397L106.95 34.9497Z" fill="#707173"/>
<path d="M105.369 11.4691C103.799 9.24906 103.659 8.49906 104.299 6.28906C105.949 7.56906 106.039 7.96906 105.369 11.4691Z" fill="#707173"/>
<path d="M135.23 21.7287C134.31 22.3887 133.77 23.0487 133.15 23.1587C132.26 23.3087 131.68 22.5887 131.69 21.6887C131.7 20.7987 132.3 20.0787 133.17 20.2187C133.79 20.3187 134.31 21.0187 135.23 21.7287Z" fill="#707173"/>
<path d="M122.159 37.7891C122.849 38.7491 123.499 39.2791 123.599 39.8991C123.729 40.7491 123.079 41.4091 122.169 41.4091C121.259 41.4091 120.599 40.7491 120.729 39.9091C120.819 39.2891 121.479 38.7491 122.159 37.7891Z" fill="#707173"/>
<path d="M122.619 29.3798C121.719 30.0598 121.209 30.7298 120.599 30.8498C119.699 31.0298 119.169 30.3398 119.139 29.4298C119.119 28.4998 119.709 27.8298 120.549 27.9298C121.159 27.9998 121.689 28.6998 122.619 29.3898V29.3798Z" fill="#707173"/>
<path d="M120.33 47.5593C123 47.1093 123.99 48.8193 125.43 50.5493C123.13 50.2993 121.53 49.5793 120.33 47.5593Z" fill="#707173"/>
<path d="M117.42 21.2583C119.66 21.0883 119.84 21.1983 121.84 23.8783C119.67 23.9983 118.43 23.2683 117.42 21.2583Z" fill="#707173"/>
<path d="M96.6397 38.0087C95.5797 35.9587 94.7897 34.3687 95.6197 32.4688C97.3597 33.8188 97.4397 34.1987 96.6397 38.0087Z" fill="#707173"/>
<path d="M134.179 61.0281C133.599 60.3781 133.029 59.7281 132.209 58.8181C133.199 58.6081 133.759 58.4881 134.319 58.3781L134.239 58.3281C135.009 58.6281 135.789 58.9281 136.659 59.2581C136.249 60.4981 134.819 60.2381 134.129 60.9781L134.179 61.0281Z" fill="#707173"/>
<path d="M144.909 50.6889C144.309 51.2089 143.709 51.7289 142.709 52.5889C142.789 49.9889 143.799 48.2289 144.509 46.3889L144.449 46.3789C144.369 47.4889 144.229 48.6089 144.259 49.7089C144.259 50.0589 144.729 50.3989 144.979 50.7389L144.919 50.6889H144.909Z" fill="#707173"/>
<path d="M112.299 46.8287C112.119 47.6487 111.939 48.4687 111.749 49.3087C110.789 49.0087 110.059 48.7687 109.139 48.4887C109.349 47.2687 110.269 46.5187 111.419 45.9487L111.329 45.8887C111.209 46.4187 111.099 46.9487 110.939 47.6587C111.569 47.3187 111.959 47.1087 112.349 46.8987L112.289 46.8287H112.299Z" fill="#707173"/>
<path d="M113.37 41.7687C114.71 40.0987 116.31 38.9188 118.43 38.7188C118.54 38.9188 118.65 39.1187 118.77 39.3187C117.99 39.7387 117.24 40.2088 116.43 40.5588C115.42 40.9888 114.36 41.3187 113.32 41.6987L113.37 41.7787V41.7687Z" fill="#707173"/>
<path d="M103.199 43.4984C104.579 41.9984 106.139 42.3984 107.609 42.1484C106.289 43.6184 105.419 43.9084 103.199 43.4984Z" fill="#707173"/>
<path d="M121.99 6.39963C124.1 5.87963 125.84 6.63964 127.68 7.93964C126.44 8.81964 125.6 8.10964 124.74 7.68964C123.83 7.24964 122.91 6.82963 122 6.39963H121.99Z" fill="#707173"/>
<path d="M141.549 45.3789C140.789 46.7989 139.939 48.1589 137.959 48.6789C138.429 46.5489 140.109 46.0989 141.549 45.3789Z" fill="#707173"/>
<path d="M144.449 21.9298C145.089 20.0398 146.209 19.4198 147.889 18.8398C147.209 20.5398 146.319 21.4098 144.449 21.9298Z" fill="#707173"/>
<path d="M139.96 24.939C139.12 26.289 137.98 26.679 136.52 26.559C137.59 24.949 137.67 24.909 139.96 24.939Z" fill="#707173"/>
<path d="M139.869 23.3187L136.359 22.9787C137.619 21.7987 138.819 21.7887 139.979 22.6587C139.939 22.8787 139.909 23.0987 139.869 23.3187Z" fill="#707173"/>
<path d="M88.5996 37.8691C89.9996 38.1691 90.9896 38.7391 91.6696 39.9291C89.7396 40.1091 89.6596 40.0591 88.5996 37.8691Z" fill="#707173"/>
<path d="M122.049 62.2182C122.139 60.4182 123.309 59.8382 124.779 59.1582C124.349 60.7382 123.679 61.7382 122.049 62.2182Z" fill="#707173"/>
<path d="M129.55 14.8887C128.98 16.4687 128.32 17.3987 126.82 17.8887C126.92 16.0887 127.93 15.4887 129.55 14.8887Z" fill="#707173"/>
<path d="M123.46 2.91924C124.37 2.67924 125.3 2.48924 126.18 2.17924C127.07 1.85924 127.85 1.79924 128.65 2.69924C126.86 3.25924 125.18 3.28924 123.45 2.90924C123.44 2.90924 123.46 2.90924 123.46 2.90924V2.91924Z" fill="#707173"/>
<path d="M109.03 43.5391C107.75 44.4291 106.65 45.7091 104.4 45.5991C105.95 44.1191 107.47 43.7491 109.08 43.5891L109.03 43.5391Z" fill="#707173"/>
<path d="M141.64 43.5C140.46 44.64 139.13 45.54 137.5 46.26C137.9 44.58 138.08 44.47 141.69 43.56L141.63 43.5H141.64Z" fill="#707173"/>
<path d="M145.88 45.4089C147.39 47.6589 147.1 49.2689 144.92 50.6889L144.98 50.7389C145.8 49.0389 145.96 47.2289 145.95 45.3789L145.88 45.4089Z" fill="#707173"/>
<path d="M140.149 10.8281C140.859 11.7781 141.399 12.2181 141.319 12.4581C141.189 12.8881 140.669 13.1981 140.319 13.5581C140.019 13.1581 139.549 12.7781 139.479 12.3381C139.419 11.9581 139.819 11.5081 140.149 10.8281Z" fill="#707173"/>
<path d="M113.92 42.2881C115.48 41.9081 117.03 41.5381 118.93 41.0781C117.7 42.6281 116.76 42.7981 113.9 42.2781C113.89 42.2781 113.92 42.2981 113.92 42.2981V42.2881Z" fill="#707173"/>
<path d="M126.55 12.1895C126.7 13.7995 126.72 14.9995 125.69 16.0195C125.256 14.8995 125.543 13.6228 126.55 12.1895Z" fill="#707173"/>
<path d="M121.76 56.6992C121.97 58.2492 121.97 59.3692 120.98 60.3092C120.587 59.2026 120.847 57.9992 121.76 56.6992Z" fill="#707173"/>
<path d="M146.66 24.68C147.37 23.2 147.85 22.22 148.44 21C149.13 22.89 149.02 23.11 146.66 24.68Z" fill="#707173"/>
<path d="M146.649 17.6289C145.949 18.5389 145.219 19.3089 143.859 19.3489C144.289 17.6489 145.549 17.7089 146.649 17.6289Z" fill="#707173"/>
<path d="M109.35 32.0997C108.9 32.5097 108.6 32.9997 108.28 33.0097C107.95 33.0097 107.61 32.5597 107.27 32.3097C107.58 31.9397 107.83 31.4597 108.23 31.2697C108.4 31.1897 108.86 31.7297 109.35 32.1097V32.0997Z" fill="#707173"/>
<path d="M104.139 13.1992C104.529 13.7392 104.979 14.0892 104.969 14.4392C104.969 14.7992 104.519 15.1492 104.269 15.4992C103.929 15.1492 103.419 14.8492 103.309 14.4392C103.239 14.1792 103.749 13.7592 104.149 13.2092L104.139 13.1992Z" fill="#707173"/>
<path d="M101.41 12.5282C100.98 12.0182 100.51 11.6982 100.52 11.3882C100.52 11.0682 100.99 10.5382 101.28 10.5182C101.57 10.4982 102.1 10.9582 102.15 11.2682C102.2 11.5682 101.77 11.9482 101.42 12.5182L101.41 12.5282Z" fill="#707173"/>
<path d="M147.35 42.0298C148.15 41.3598 148.94 40.6798 149.94 39.8398C149.746 40.9398 148.883 41.6698 147.35 42.0298Z" fill="#707173"/>
<path d="M144.98 39.0185C145.39 38.1685 145.8 37.3285 146.2 36.4785C147.08 37.8985 146.14 38.5285 145.48 39.2685C145.31 39.1885 145.15 39.0985 144.98 39.0185Z" fill="#707173"/>
<path d="M119.33 3.05869C117.97 2.56869 116.6 2.0687 114.82 1.4287C115.79 0.848695 116.29 0.888696 116.81 1.2887C117.61 1.8987 118.43 2.48869 119.25 3.08869C119.26 3.08869 119.32 3.05869 119.32 3.05869H119.33Z" fill="#707173"/>
<path d="M141.049 42.8487L137.119 43.8487C138.189 42.2287 139.619 42.5687 141.049 42.8587V42.8487Z" fill="#707173"/>
<path d="M143.68 16.37C144.4 16.16 145.12 15.96 145.84 15.75C145.38 16.82 144.73 17.25 143.68 16.37Z" fill="#707173"/>
<path d="M90.3991 41.68C89.0491 42.15 88.3091 42.24 88.2891 40.75C88.8691 41.01 89.4491 41.26 90.3991 41.68Z" fill="#707173"/>
<path d="M142.949 15.1596C143.779 13.6296 144.379 13.8696 145.079 14.8296C144.509 14.9196 143.929 15.0096 142.949 15.1596Z" fill="#707173"/>
<path d="M134.13 60.9797C133.55 61.3297 132.97 61.6697 132.21 62.1297C132.05 61.5397 131.95 61.1297 131.76 60.4297C132.72 60.6697 133.44 60.8397 134.16 61.0297L134.12 60.9897L134.13 60.9797Z" fill="#707173"/>
<path d="M130.75 59.6091C130.33 59.8891 130.09 60.1891 129.87 60.1591C129.65 60.1391 129.46 59.7991 129.26 59.5991C129.46 59.3991 129.65 59.0691 129.88 59.0391C130.09 59.0091 130.33 59.3191 130.75 59.5991V59.6091Z" fill="#707173"/>
<path d="M140.85 36.5391C140.89 37.0191 140.93 37.4991 140.97 37.9891C140.82 38.0191 140.68 38.0391 140.53 38.0691C140.44 37.5891 140.35 37.1091 140.25 36.6291L140.85 36.5391Z" fill="#707173"/>
<path d="M149.149 25.3884C149.229 24.9484 149.309 24.5084 149.379 24.0684C149.489 24.0684 149.599 24.0684 149.709 24.0784V25.5084C149.519 25.4684 149.329 25.4184 149.139 25.3784L149.149 25.3884Z" fill="#707173"/>
<path d="M131.74 25.0593C131.87 25.7793 131.99 26.4993 132.12 27.2293C131.28 26.5493 131.4 25.7993 131.78 25.0293L131.74 25.0593Z" fill="#707173"/>
<path d="M118.089 8.45953H115.929C115.909 8.31953 115.889 8.16953 115.869 8.02953C116.589 7.79953 117.319 7.57953 118.299 7.26953C118.159 7.93953 118.099 8.22953 118.029 8.51953L118.099 8.44953L118.089 8.45953Z" fill="#707173"/>
<path d="M112.359 46.8891C111.969 47.0991 111.589 47.3091 110.949 47.6491C111.109 46.9391 111.219 46.4091 111.339 45.8791C112.829 45.0491 112.339 46.2291 112.359 46.8891Z" fill="#707173"/>
<path d="M145.95 45.3789C145.95 47.2289 145.8 49.0389 144.98 50.7389C144.73 50.3989 144.27 50.0589 144.26 49.7089C144.23 48.5989 144.38 47.4889 144.45 46.3789C144.95 46.0489 145.45 45.7189 145.95 45.3889V45.3789Z" fill="#707173"/>
<path d="M143.039 40.1281C142.729 39.9881 142.129 39.7781 142.149 39.7181C142.289 39.1581 142.539 38.6281 142.749 38.0781C142.909 38.1181 143.059 38.1581 143.219 38.1981C143.139 38.8581 143.059 39.5181 142.979 40.1881L143.039 40.1281Z" fill="#707173"/>
<path d="M150.699 31.9881C150.259 32.3981 149.809 32.8081 149.369 33.2281C149.509 32.3881 149.829 31.7581 150.749 32.0381L150.709 31.9881H150.699Z" fill="#707173"/>
</svg>
