<svg width="261" height="76" viewBox="0 0 261 76" fill="none" xmlns="http://www.w3.org/2000/svg">
<path d="M137.01 48.3789C131.62 48.3789 127.24 52.7589 127.24 58.1489V65.3089H134.48C136.28 65.3089 137.74 66.7689 137.74 68.5689V69.2189H127.25V75.7289H144.26V68.5689C144.26 63.1789 139.88 58.7989 134.49 58.7989H133.76V58.1489C133.76 56.3489 135.22 54.8889 137.02 54.8889H157.72V48.3789H137.02H137.01Z" fill="#707173"/>
<path d="M65.1697 48.3789H55.2297V54.8889H65.1697C66.5597 54.8889 67.7497 55.7589 68.2097 56.9889L55.2197 64.5989V75.7289H74.9297V69.2189H61.7297V67.3289L74.9297 59.5189V58.1589C74.9297 52.7689 70.5497 48.3889 65.1597 48.3889L65.1697 48.3789Z" fill="#707173"/>
<path d="M7.30981 58.1489C7.30981 56.3489 8.76982 54.8889 10.5698 54.8889H24.9297V48.3789H10.5698C5.17982 48.3789 0.799805 52.7589 0.799805 58.1489V75.7289H15.0498V69.2189H7.30981V58.1489Z" fill="#707173"/>
<path d="M90.0803 65.9589V54.8889H97.8103V48.3789H83.5703V65.9589C83.5703 71.3489 87.9503 75.7289 93.3403 75.7289H107.7V69.2189H93.3403C91.5403 69.2189 90.0803 67.7589 90.0803 65.9589Z" fill="#707173"/>
<path d="M33.74 57.5689H24.9299H18.4199V64.0889V75.7289H24.9299V64.0889H33.74V75.7289H40.25V64.0889V57.5689V48.3789H33.74V57.5689Z" fill="#707173"/>
<path d="M50.9797 48.3789H44.4697V75.7289H50.9797V48.3789Z" fill="#707173"/>
<path d="M155 58.168H148.49V75.728H155V58.168Z" fill="#707173"/>
<path d="M113.26 48.3789H101.189V65.8389H107.699V64.0789H116.51V75.7189H123.02V57.5689H123C122.7 52.4489 118.44 48.3789 113.25 48.3789H113.26ZM107.709 54.8889H113.26C114.86 54.8889 116.189 56.0489 116.459 57.5689H107.699V54.8889H107.709Z" fill="#707173"/>
<path d="M136.43 11.709H128.56V22.819H117.92V11.719H110.05V29.999C110.05 32.169 108.29 33.929 106.12 33.929H0.799805V41.799H106.12C112.4 41.799 117.54 36.889 117.9 30.689H136.43V22.819V11.709Z" fill="#707173"/>
<path d="M117.92 0.599609H110.05V8.46961H117.92V0.599609Z" fill="#707173"/>
<path d="M136.43 33.9199H121.16V41.7899H136.43V33.9199Z" fill="#707173"/>
<path d="M145.909 0.599609H128.56V8.46961H145.909C148.079 8.46961 149.84 10.2296 149.84 12.3996V22.8096H139.3V30.6796H157.699V12.3996C157.699 5.88961 152.409 0.599609 145.899 0.599609H145.909Z" fill="#707173"/>
<path d="M139.67 33.9199V41.7799H149.84V45.7099H157.71V41.7799V37.8499V33.9199H149.84H139.67Z" fill="#707173"/>
<path d="M102.65 23.4996C102.65 16.9996 97.3599 11.6996 90.8499 11.6996H84.1997C84.5297 9.85961 86.1398 8.45961 88.0698 8.45961H102.64V0.599609H88.0698C81.5598 0.599609 76.2698 5.88961 76.2698 12.3996V19.5696H90.8398C92.7698 19.5696 94.3897 20.9696 94.7097 22.8096H76.2598V30.6696H102.63V23.4996H102.65Z" fill="#707173"/>
<path d="M65.1799 22.8088H52.96V30.6687H73.04V13.4688H65.1799V22.8088Z" fill="#707173"/>
<path d="M30.2202 2.45898H8.66016V10.329H30.2202V2.45898Z" fill="#707173"/>
<path d="M38.0898 18.8805V13.4805H30.2197V18.8805C30.2197 21.0505 28.4598 22.8105 26.2898 22.8105H8.66968V13.4805H0.799805V30.6805H26.2898C29.3098 30.6805 32.0697 29.5405 34.1597 27.6705C36.2497 29.5405 39.0098 30.6805 42.0298 30.6805H49.7297V22.8105H42.0298C39.8598 22.8105 38.0999 21.0505 38.0999 18.8805H38.0898Z" fill="#707173"/>
<path d="M173.439 33.1997C173.439 54.2097 188.47 71.7797 208.34 75.7197V57.6797C198.19 54.1697 190.89 44.5197 190.89 33.1997V33.1797H173.439V33.1997Z" fill="#707173"/>
<path d="M242.679 33.1895V33.2094C242.679 44.5294 235.379 54.1795 225.229 57.6895V75.7295C245.099 71.7895 260.13 54.2194 260.13 33.2094V33.1895H242.679Z" fill="#707173"/>
<path d="M216.79 0.599844C202.51 0.599844 190.89 12.2198 190.89 26.4998V33.1898H208.34V26.4998C208.34 21.8398 212.12 18.0498 216.79 18.0498C219.12 18.0498 221.23 18.9898 222.76 20.5198C224.29 22.0498 225.229 24.1598 225.229 26.4898V33.1798H242.679V26.4898C242.679 12.2098 231.06 0.589844 216.78 0.589844L216.79 0.599844Z" fill="#707173"/>
<path d="M208.34 33.1997C208.34 37.8697 212.12 41.6497 216.79 41.6497C221.46 41.6497 225.24 37.8697 225.24 33.1997V33.1797H208.35V33.1997H208.34Z" fill="#707173"/>
</svg>
