<svg width="201" height="139" viewBox="0 0 201 139" fill="none" xmlns="http://www.w3.org/2000/svg">
<path d="M103.263 57.3558C104.893 55.5858 106.523 53.8058 108.163 52.0458C109.473 50.6458 110.833 49.2758 112.153 47.8758C114.753 45.1058 117.883 44.2658 121.433 45.5858C124.983 46.8958 126.383 49.8358 126.803 53.3558C126.993 54.9358 127.003 56.5458 127.133 58.7858C128.803 57.1958 129.973 56.0058 131.223 54.8858C133.423 52.9158 135.493 50.7058 137.963 49.1458C139.803 47.9858 142.173 47.2458 144.353 47.1258C147.903 46.9258 150.943 50.2758 150.423 53.7958C149.853 57.6458 148.813 61.4458 147.793 65.2158C146.233 71.0158 145.613 76.8658 146.793 82.7758C147.193 84.7558 148.113 86.6558 148.993 88.5058C149.893 90.3958 149.483 91.3458 147.383 91.4058C143.683 91.4958 140.803 89.8958 138.733 86.8858C136.273 83.3058 135.603 79.2558 136.043 75.0258C136.373 71.8258 136.943 68.6558 137.403 65.4758C137.223 65.3558 137.043 65.2458 136.863 65.1258C136.083 65.9158 135.163 66.6158 134.533 67.5158C131.433 71.9358 128.433 76.4258 125.333 80.8458C123.213 83.8658 121.063 86.8858 118.753 89.7658C116.853 92.1358 114.023 92.5558 111.373 91.2058C109.293 90.1358 108.223 87.7158 108.883 84.8858C110.143 79.4858 111.603 74.1358 112.883 68.7358C113.383 66.6158 113.623 64.4358 113.983 62.2858C113.743 62.1458 113.503 62.0058 113.253 61.8658C112.473 62.6358 111.593 63.3258 110.943 64.1958C107.443 68.8758 104.063 73.6358 100.533 78.2958C97.763 81.9458 94.9629 85.5858 91.9729 89.0558C89.4029 92.0358 87.5128 92.3158 84.3528 90.7658C81.7328 89.4758 80.4427 87.0458 81.2327 83.6658C82.0327 80.2258 83.3329 76.8958 84.4129 73.5258C84.6529 72.7758 84.923 72.0358 84.803 71.0558C84.343 71.5658 83.9126 72.1058 83.4226 72.5958C78.7326 77.3058 74.093 82.0858 69.283 86.6758C67.763 88.1358 65.8727 89.2958 63.9827 90.2758C58.3327 93.1858 52.9228 90.3758 52.3328 84.0658C52.0428 81.0158 52.0128 77.7258 52.8728 74.8358C55.0228 67.6358 57.6927 60.5858 60.2727 53.5158C60.8427 51.9458 61.8528 50.5058 62.8128 49.1058C65.7228 44.8958 70.683 45.0058 73.743 49.2058C74.693 50.5058 74.1927 51.5158 73.5227 52.6458C69.7827 58.9958 67.2229 65.8358 65.1829 72.8858C64.9929 73.5358 65.1228 74.2658 65.1028 74.9558C65.8628 74.8858 66.7226 75.0158 67.3626 74.7058C74.7326 71.1958 80.713 65.9558 85.553 59.4558C88.803 55.0858 91.783 50.5058 94.743 45.9358C96.503 43.2058 100.063 43.3458 101.833 46.4858C103.583 49.5858 103.653 52.9658 103.003 56.3958C102.963 56.6058 102.933 56.8158 102.893 57.0258C103.003 57.1258 103.123 57.2358 103.233 57.3358L103.263 57.3558Z" fill="#707173"/>
<path d="M43.9529 16.4149C39.5529 17.2949 35.643 17.9449 31.783 18.8749C22.613 21.0749 13.8529 24.4349 5.39288 28.5549C4.73288 28.8749 4.0626 29.2449 3.3626 29.4149C1.6126 29.8549 0.622875 29.0449 0.642875 27.2849C0.702875 20.1049 7.46297 10.7549 14.243 8.51492C29.033 3.61492 44.3128 1.42492 59.7928 0.504915C67.0228 0.0749153 74.293 -0.175085 81.513 0.144915C85.173 0.304915 89.0628 1.32492 92.3328 2.97492C101.323 7.48492 99.6826 17.0249 92.8826 22.3249C91.8726 23.1049 90.2526 23.3649 88.9026 23.3749C86.5826 23.3949 85.583 21.5749 86.493 19.4249C87.983 15.8849 87.2529 13.9649 83.3929 13.4449C79.0329 12.8549 74.5626 12.8449 70.1526 12.9349C66.8426 13.0049 63.523 13.5449 60.243 14.0749C59.523 14.1949 58.5431 15.0149 58.3431 15.7049C51.1831 39.5649 44.0628 63.4349 37.0228 87.3249C35.8128 91.4249 33.7027 92.6149 29.9827 90.5349C25.0527 87.7749 21.4431 83.0449 23.8431 76.1649C30.4731 57.1049 36.7629 37.9349 43.1829 18.8049C43.3729 18.2449 43.553 17.6949 43.973 16.4149H43.9529Z" fill="#707173"/>
<path d="M174.473 92.9245C166.423 92.9245 160.813 89.1045 159.143 82.4145C158.963 81.6945 159.162 80.8945 159.192 80.1245C159.972 80.1745 160.813 80.0845 161.533 80.3245C162.573 80.6745 163.543 81.2445 164.533 81.7545C171.093 85.1545 177.122 83.6145 182.882 79.7545C183.182 79.5545 183.442 79.2745 183.712 79.0145C186.992 75.7845 186.723 73.8845 182.533 72.1445C179.743 70.9845 176.782 70.2145 173.962 69.1045C168.322 66.9045 165.073 60.0445 167.893 54.8545C172.563 46.2645 179.372 39.7945 189.172 37.3145C194.402 35.9845 197.413 37.6845 199.103 42.8245C199.843 45.0845 199.923 47.5945 200.053 50.0045C200.163 51.9145 198.933 52.4145 197.233 51.9045C196.593 51.7145 195.962 51.4845 195.362 51.2045C188.382 47.9445 180.943 53.6745 178.093 59.1245C177.293 60.6545 178.383 61.6145 179.753 62.1945C182.613 63.4045 185.503 64.5545 188.343 65.8045C196.213 69.2845 198.202 75.8545 193.632 83.1745C189.902 89.1445 182.493 92.9145 174.473 92.9145V92.9245Z" fill="#707173"/>
<path d="M68.6328 126.585C68.6328 125.995 68.6328 125.405 68.6328 124.815C68.6528 117.215 74.9532 113.105 82.0132 116.135C85.0132 117.415 86.5931 119.795 86.7231 123.035C86.8231 125.545 86.8231 128.055 86.7231 130.565C86.5331 135.315 83.0429 138.225 77.6929 138.225C72.3229 138.225 68.9031 135.335 68.6631 130.565C68.5931 129.235 68.6528 127.905 68.6528 126.575C68.6528 126.575 68.633 126.575 68.623 126.575L68.6328 126.585ZM82.0132 126.675C82.0132 125.715 82.0432 124.755 82.0132 123.795C81.9232 121.055 80.3632 119.485 77.7432 119.465C75.1032 119.445 73.4829 120.995 73.4229 123.715C73.3729 125.785 73.3729 127.855 73.4229 129.925C73.4929 132.545 75.0232 134.075 77.5532 134.155C80.1532 134.235 81.8932 132.635 82.0132 130.005C82.0632 128.895 82.0129 127.785 82.0229 126.675H82.0132Z" fill="#707173"/>
<path d="M157.023 119.465V124.845H166.883V128.795H157.063V134.115H168.783V137.925H152.463V115.705H168.733V119.465H157.013H157.023Z" fill="#707173"/>
<path d="M135.973 134.195H147.693V137.925H131.463V115.725H147.713V119.465H135.993V124.865H145.823V128.785H135.973V134.185V134.195Z" fill="#707173"/>
<path d="M156.823 47.2349C157.373 46.3249 157.943 45.4249 158.453 44.4949C159.623 42.3749 161.113 40.3349 161.813 38.0649C162.643 35.3849 161.753 34.0949 159.303 34.0949C157.923 34.0949 157.293 33.3149 157.693 31.8849C157.933 31.0349 158.083 30.1549 158.353 29.3049C160.133 23.6249 162.873 22.6349 167.963 25.8049C172.263 28.4849 173.013 30.8149 170.923 35.4749C168.963 39.8249 165.993 43.3949 162.003 46.0049C160.643 46.8949 158.983 47.3249 157.463 47.9649C157.253 47.7249 157.043 47.4749 156.833 47.2349H156.823Z" fill="#707173"/>
<path d="M64.5332 123.014C63.4932 123.014 62.4429 123.164 61.4629 122.964C60.7429 122.814 59.8732 122.354 59.5132 121.764C58.3432 119.864 56.7531 119.114 54.6431 119.604C52.5331 120.094 51.6531 121.594 51.6631 123.694C51.6731 125.914 51.6431 128.124 51.6831 130.344C51.7231 132.064 52.5029 133.594 54.2129 133.784C55.6729 133.944 58.0333 133.804 58.5933 132.904C60.1733 130.404 62.2229 130.994 64.6929 131.004C64.3329 132.034 64.1329 132.924 63.7329 133.724C61.8429 137.484 57.6528 139.104 52.8628 137.984C49.0128 137.084 46.9529 134.364 46.8829 130.044C46.8529 127.904 46.8529 125.754 46.8829 123.614C46.9529 118.564 49.7333 115.694 54.8033 115.384C60.2533 115.054 63.8432 117.804 64.5332 123.014Z" fill="#707173"/>
<path d="M91.9932 115.664H108.063V119.714H96.6528V124.934H106.133V129.074H96.603V137.864H92.0029V115.674L91.9932 115.664Z" fill="#707173"/>
<path d="M84.4624 32.2058C83.8824 35.4758 83.0727 38.2658 81.0727 40.6158C78.6827 43.4358 74.9126 44.2758 72.1426 42.6458C69.0726 40.8458 67.9725 37.6958 69.3325 34.0158C69.9125 32.4458 70.7626 30.9358 71.7026 29.5458C74.1926 25.8658 78.6825 24.9758 82.1025 27.7558C83.3025 28.7358 83.7026 30.6858 84.4726 32.1958L84.4624 32.2058Z" fill="#707173"/>
<path d="M125.893 124.875V129.075H116.252V137.865H111.803V115.695H127.663V119.745H116.272V124.865H125.893V124.875Z" fill="#707173"/>
</svg>
