<svg width="293" height="104" viewBox="0 0 293 104" fill="none" xmlns="http://www.w3.org/2000/svg">
<path d="M117.988 74.0401C116.798 76.2701 115.278 77.9001 112.768 78.3401C111.428 78.5701 110.078 78.6901 108.728 78.7401C106.008 78.8401 103.278 78.7401 100.658 78.0201C98.3377 77.3801 96.6375 75.8001 95.4675 73.6901C94.4975 71.9301 93.9675 70.0701 93.9775 68.0301C94.0075 61.3801 93.9775 54.7301 93.9675 48.0901C93.9675 45.5401 93.8976 42.9801 94.0176 40.4301C94.2076 36.3101 97.7977 32.8701 101.358 32.5801C102.548 32.4801 102.528 32.8601 102.518 33.7301C102.488 39.7701 102.488 45.8201 102.518 51.8601C102.528 55.7701 102.578 59.6801 102.618 63.5901C102.648 66.3601 104.568 68.7801 107.608 69.4301C110.448 70.0401 113.348 68.7401 114.088 66.1301C114.298 65.3801 114.448 64.6301 114.468 63.8301C114.538 61.4801 114.478 59.0801 115.268 56.8501C116.328 53.8601 118.478 51.9201 121.698 51.3501C123.098 51.1001 123.258 51.2201 123.258 52.7001C123.258 55.9401 123.158 59.1901 123.258 62.4301C123.368 65.8001 125.058 68.7001 129.208 69.3201C130.388 69.5001 131.528 69.3901 132.688 69.3901C150.898 69.3901 169.108 69.3901 187.318 69.3901C188.748 69.3901 188.798 69.3901 188.758 70.8401C188.668 73.9901 186.497 76.7201 183.677 77.9201C182.517 78.4101 181.328 78.6701 180.048 78.6701C172.308 78.6501 164.578 78.6101 156.838 78.7001C147.708 78.8101 138.568 78.8701 129.438 78.8201C127.438 78.8201 125.458 78.5001 123.528 77.9301C121.288 77.2701 119.448 76.0401 117.988 74.0501V74.0401Z" fill="#707173"/>
<path d="M263.958 66.8101C260.358 63.3301 256.718 59.8901 253.378 56.1401C252.398 55.0401 251.818 53.7601 251.768 52.2701C252.028 52.1501 252.028 52.0401 251.768 51.9201C251.788 49.6601 252.708 47.7801 254.278 46.2401C260.718 39.9201 267.198 33.6401 273.658 27.3301C276.198 24.8501 278.718 22.3501 281.268 19.8801C282.518 18.6701 283.758 17.4601 284.778 16.0601C285.018 15.7301 285.198 15.5601 285.588 15.9201C288.138 18.3001 290.638 20.7001 291.858 24.1001C292.158 24.9401 292.428 25.7801 292.308 26.7001C292.108 27.0001 292.408 26.9801 292.548 27.0701C292.158 28.1701 292.687 29.2901 292.427 30.4001C291.567 34.0401 289.268 36.6901 286.598 39.1001C284.608 40.8901 282.368 42.3201 280.028 43.6101C279.528 43.8801 279.048 44.1901 278.558 44.4801C278.278 44.6401 278.288 44.8001 278.558 44.9601C282.078 47.6301 284.388 50.9601 284.248 55.5701C284.198 57.1501 283.858 58.7001 283.308 60.1801C282.918 61.2201 282.608 62.2801 282.358 63.3701C281.578 63.8201 280.988 64.4801 280.358 65.1001C279.818 65.6301 279.308 66.1901 278.698 66.6501C275.718 68.8701 272.438 69.0501 268.958 68.2301C267.268 67.8301 265.678 67.1001 263.958 66.8101Z" fill="#707173"/>
<path d="M58.8976 76.3488C57.2376 77.7788 55.2276 78.1588 53.1376 78.1588C35.7876 78.1988 18.4375 78.2088 1.08753 78.2388C0.407527 78.2388 0.117606 78.0688 0.167606 77.3188C0.387606 74.4788 1.76752 72.4188 4.07752 70.7888C6.12752 69.3488 8.37745 69.0588 10.7574 69.0588C23.5874 69.0488 36.4174 69.0188 49.2374 68.9888C50.0274 68.9888 50.8375 68.9888 51.5975 68.7088C53.3975 68.0488 54.4976 66.8388 54.6676 64.8588C54.7576 63.7488 54.6676 62.6388 54.6676 61.5288C54.6476 55.8688 54.6575 50.2088 54.6075 44.5388C54.6075 43.8188 54.7874 43.6388 55.4974 43.6488C57.8874 43.6988 60.2676 43.6788 62.6576 43.6488C63.1976 43.6488 63.3974 43.7288 63.4274 44.3488C63.8074 50.7788 63.7375 57.2188 63.7975 63.6588C63.8075 65.1788 64.3074 66.6988 65.2474 67.7388C65.9874 68.5488 67.2775 68.9688 68.6075 68.9488C73.0575 68.8988 77.5174 68.9588 81.9774 68.9788C84.2674 68.9788 86.5575 68.9988 88.8575 68.9688C89.4475 68.9688 89.6175 69.1288 89.5975 69.7188C89.5275 72.2488 88.7474 74.4788 86.7574 76.1088C85.1574 77.4088 83.2574 77.8988 81.1974 77.6688C81.1774 77.6188 81.1476 77.5788 81.1276 77.5288C81.0776 77.5788 81.0374 77.6188 80.9874 77.6688C75.5274 78.0188 70.0575 77.8788 64.5975 77.8288C63.1975 77.8188 61.9274 77.0388 60.9674 76.0188C60.3074 75.3188 59.8875 75.3288 59.3475 76.0488C59.2775 76.1388 59.1375 76.1788 59.0275 76.2388C58.9075 76.1788 58.8576 76.2088 58.8976 76.3488Z" fill="#707173"/>
<path d="M243.028 83.9588C242.378 84.2488 241.848 84.6888 241.358 85.1988C236.848 89.7288 232.348 94.2688 227.808 98.7688C225.688 100.879 223.248 102.499 220.308 103.299C214.748 104.799 210.388 102.709 206.568 98.8588C206.118 98.4088 206.478 98.2188 206.728 97.9488C209.128 95.4988 211.518 93.0288 213.948 90.5988C221.298 83.1988 228.658 75.8088 236.038 68.4288C237.648 66.8188 239.448 65.5488 241.818 65.1988C243.768 64.9088 245.488 65.2388 246.908 66.5788C249.718 69.2088 252.328 72.0388 254.988 74.8188C255.458 75.3188 256.068 75.7088 256.358 76.3688C255.888 76.3288 255.418 76.2988 254.948 76.2488C252.598 75.9888 250.368 76.0288 248.618 78.0688C247.348 79.5488 245.878 80.8588 244.488 82.2288C243.948 82.7588 243.418 83.3088 243.018 83.9588H243.028Z" fill="#707173"/>
<path d="M275.697 4.35958C275.837 4.46958 275.987 4.57958 276.127 4.68958C277.537 5.73958 277.917 5.38957 276.347 6.95957C266.507 16.8696 256.627 26.7396 246.747 36.5996C245.247 38.0996 243.447 39.0296 241.257 39.1596C239.107 39.2896 237.367 38.5796 235.887 37.0096C233.027 33.9896 230.097 31.0296 227.207 28.0396C227.737 28.0696 228.267 28.0596 228.807 28.1596C230.817 28.5296 232.687 28.1896 234.337 26.8896C236.067 25.5296 237.527 23.8896 239.037 22.3096C239.587 21.7396 240.157 21.0896 240.347 20.2496C241.157 19.9996 241.797 19.4896 242.377 18.8996C246.167 15.0896 249.927 11.2696 253.747 7.49957C255.627 5.63957 257.507 3.80957 259.847 2.47957C265.377 -0.660426 270.787 0.109575 275.527 4.17958C275.517 4.29958 275.577 4.34958 275.687 4.35958H275.697Z" fill="#707173"/>
<path d="M240.358 20.2598C240.168 21.0998 239.598 21.7498 239.048 22.3198C237.538 23.8998 236.078 25.5398 234.348 26.8998C232.698 28.1998 230.828 28.5298 228.818 28.1698C228.278 28.0698 227.748 28.0798 227.218 28.0498C224.458 25.3298 221.688 22.6198 218.928 19.8898C214.498 15.5098 210.168 11.0298 205.598 6.78982C204.928 6.16982 204.908 5.82982 205.568 5.15982C210.408 0.31982 216.898 -0.66018 222.558 2.64982C223.138 2.98982 223.668 3.38982 224.148 3.85982C229.378 9.09982 234.618 14.3498 239.848 19.5898C240.048 19.7898 240.198 20.0298 240.368 20.2598H240.358Z" fill="#707173"/>
<path d="M243.027 83.9587C243.427 83.3087 243.947 82.7688 244.497 82.2288C245.887 80.8588 247.357 79.5487 248.627 78.0687C250.377 76.0187 252.617 75.9787 254.957 76.2487C255.427 76.2987 255.897 76.3288 256.367 76.3688L256.437 76.3487C256.417 76.4787 256.467 76.5287 256.597 76.5187C260.397 80.3487 264.177 84.2088 268.007 88.0088C271.387 91.3688 274.597 94.8788 277.897 98.2988C278.317 98.7388 278.257 98.9688 277.887 99.3688C275.377 102.019 272.317 103.419 268.667 103.669C265.547 103.879 262.827 102.799 260.317 101.169C258.637 100.079 257.397 98.4387 255.987 97.0187C251.657 92.6687 247.357 88.3087 243.037 83.9487L243.027 83.9587Z" fill="#707173"/>
<path d="M70.7874 40.0405C65.9774 40.0405 61.1675 40.0105 56.3675 40.0605C55.4775 40.0605 54.9975 39.9505 54.8975 38.9405C54.5775 35.6905 55.4975 32.0105 59.3675 31.1805C60.0175 31.0405 60.6975 31.0005 61.3575 31.0005C70.8775 30.9905 80.3976 31.0005 89.9176 30.9805C90.6976 30.9805 91.0174 31.1005 90.9774 32.0005C90.9174 33.3905 90.7474 34.7605 90.5274 36.1205C90.1574 38.3205 88.0375 39.9505 85.5975 39.9705C80.6675 40.0005 75.7274 39.9705 70.7975 39.9705C70.7975 39.9905 70.7975 40.0105 70.7975 40.0405H70.7874Z" fill="#707173"/>
<path d="M186.137 31.0005C195.807 31.0005 205.477 31.0005 215.157 30.9805C215.907 30.9805 216.157 31.1705 216.107 31.9205C216.037 32.9005 216.197 33.8805 216.127 34.8705C215.917 37.9905 213.827 39.9805 210.647 39.9805C203.427 39.9805 196.207 39.9805 188.977 39.9805C186.497 39.9805 184.017 39.9505 181.537 39.9805C180.727 39.9805 180.377 39.7405 180.437 38.8905C180.547 37.2005 180.217 35.4705 181.107 33.8805C182.087 32.1405 183.547 31.2305 185.517 31.0705C185.767 31.4305 185.977 31.3505 186.147 31.0005H186.137Z" fill="#707173"/>
<path d="M263.957 66.8091C265.677 67.0991 267.267 67.8291 268.957 68.2291C272.437 69.0491 275.717 68.8791 278.697 66.6491C279.317 66.1891 279.817 65.6291 280.357 65.0991C280.987 64.4791 281.587 63.8191 282.357 63.3691C284.887 65.6091 287.307 67.9291 288.967 70.9391C291.997 76.4491 290.757 83.2591 285.977 87.3491C285.437 87.8091 285.127 87.8191 284.587 87.3091C278.657 81.5991 272.877 75.7291 267.037 69.9291C265.997 68.8991 264.977 67.8591 263.947 66.8191L263.957 66.8091Z" fill="#707173"/>
<path d="M200.827 60.7993C200.827 66.0793 200.807 71.3593 200.847 76.6293C200.847 77.4793 200.587 77.7193 199.757 77.6993C197.527 77.6393 195.307 77.6393 193.077 77.6693C192.427 77.6693 192.177 77.4893 192.187 76.8093C192.217 74.7093 192.177 72.6093 192.177 70.5193C192.177 63.3293 192.107 56.1493 192.237 48.9593C192.287 45.8893 194.677 44.0493 197.377 43.8993C198.267 43.8493 199.157 43.9393 200.047 43.8793C200.697 43.8393 200.817 44.0793 200.817 44.6793C200.797 50.0493 200.807 55.4293 200.807 60.7993C200.817 60.7993 200.827 60.7993 200.837 60.7993H200.827Z" fill="#707173"/>
<path d="M77.1879 58.5287C77.3479 61.7487 74.9779 63.5187 71.9579 63.4987C69.8979 63.4787 67.3078 61.2487 67.4278 58.3387C67.5278 55.7987 69.8381 53.6287 72.6381 53.6387C75.2581 53.6387 77.2079 55.7387 77.1979 58.5387L77.1879 58.5287Z" fill="#707173"/>
<path d="M102.778 94.8604C100.848 94.9604 98.8075 92.9404 98.1975 91.0804C97.4475 88.8104 99.3976 85.8804 101.378 85.3404C103.838 84.6604 106.308 85.3004 107.508 87.7804C108.278 89.3604 108.278 91.7904 106.638 93.1904C106.348 93.4304 106.208 93.8304 105.818 93.9604C105.678 93.9104 105.648 94.0104 105.608 94.1004C104.838 94.5404 104.048 94.9104 103.138 94.9004C103.048 94.6304 102.928 94.5904 102.768 94.8504L102.778 94.8604Z" fill="#707173"/>
<path d="M88.8372 58.35C89.0872 61.66 86.2272 63.13 84.0872 63.2C81.7572 63.27 79.1871 61.19 79.2171 58.35C79.2471 55.44 81.4772 53.4 84.1072 53.43C86.5872 53.46 89.0972 55.15 88.8372 58.36V58.35Z" fill="#707173"/>
<path d="M117.288 93.9093C113.728 95.9993 109.858 93.3193 109.878 89.6093C109.878 86.9993 112.068 84.9293 114.738 84.8893C118.388 84.8393 120.318 87.9393 119.408 91.4093C119.128 92.4893 118.228 93.0793 117.478 93.7893C117.348 93.7093 117.318 93.8093 117.278 93.9093H117.288Z" fill="#707173"/>
<path d="M186.138 30.9986C185.968 31.3486 185.768 31.4286 185.508 31.0686C185.688 30.8186 185.908 30.8986 186.138 30.9986Z" fill="#707173"/>
<path d="M292.548 27.0692C292.408 26.9892 292.108 27.0092 292.308 26.6992C292.518 26.7392 292.788 26.7392 292.548 27.0692Z" fill="#707173"/>
<path d="M251.767 51.9297C252.027 52.0497 252.027 52.1597 251.767 52.2797C251.607 52.1597 251.597 52.0497 251.767 51.9297Z" fill="#707173"/>
<path d="M102.777 94.8588C102.937 94.5988 103.057 94.6388 103.147 94.9088C102.997 95.0788 102.877 95.0388 102.777 94.8588Z" fill="#707173"/>
<path d="M278.568 44.9605C278.298 44.8005 278.288 44.6405 278.568 44.4805C278.568 44.6405 278.568 44.8005 278.568 44.9605Z" fill="#707173"/>
<path d="M256.588 76.5098C256.458 76.5298 256.408 76.4698 256.428 76.3398C256.478 76.3998 256.528 76.4498 256.588 76.5098Z" fill="#707173"/>
<path d="M58.8977 76.3502C58.8577 76.2202 58.8976 76.1802 59.0276 76.2402C58.9976 76.2902 58.9577 76.3302 58.8977 76.3502Z" fill="#707173"/>
<path d="M117.287 93.9091C117.327 93.8191 117.347 93.7191 117.487 93.7891C117.417 93.8291 117.357 93.8691 117.287 93.9091Z" fill="#707173"/>
<path d="M105.617 94.1093C105.657 94.0093 105.697 93.9193 105.827 93.9693C105.757 94.0193 105.687 94.0593 105.617 94.1093Z" fill="#707173"/>
<path d="M275.698 4.35969C275.588 4.35969 275.518 4.29969 275.538 4.17969C275.588 4.23969 275.648 4.29969 275.698 4.35969Z" fill="#707173"/>
<path d="M80.9875 77.6693C80.9875 77.6693 81.0777 77.5793 81.1277 77.5293C81.1477 77.5793 81.1775 77.6193 81.1975 77.6693C81.1275 77.6693 81.0575 77.6693 80.9775 77.6693H80.9875Z" fill="#707173"/>
</svg>
