<svg width="287" height="76" viewBox="0 0 287 76" fill="none" xmlns="http://www.w3.org/2000/svg">
<path d="M236.959 61.3895C231.219 61.5695 227.729 58.9895 226.809 53.0595C225.279 54.1595 223.959 55.0495 222.729 56.0395C222.609 56.1395 222.789 56.9695 223.049 57.1595C226.329 59.4995 227.099 61.8295 225.779 65.6495C225.329 66.9395 224.939 68.2395 224.479 69.5195C223.229 72.9495 220.189 75.2395 216.519 75.2595C207.819 75.2995 199.129 75.2795 190.429 75.1795C186.039 75.1295 183.489 71.5195 184.609 67.2495C184.859 66.2795 185.149 65.3195 185.429 64.3595C185.289 64.2895 185.139 64.2095 184.999 64.1395C184.549 64.5695 184.049 64.9495 183.639 65.4195C178.469 71.3695 171.879 74.5495 164.099 75.2195C160.789 75.4995 157.449 75.3595 154.119 75.3195C153.229 75.3095 152.319 75.0495 151.459 74.7795C148.979 73.9995 148.279 72.7595 148.799 70.2095C149.079 68.8295 149.319 67.4295 149.659 66.0595C150.629 62.2495 151.779 58.5495 157.029 57.6695C153.089 54.7795 150.329 51.5595 149.179 46.7195C148.339 47.6795 147.819 48.2395 147.329 48.8295C143.019 54.0095 138.029 58.3595 131.319 59.9595C127.669 60.8295 123.849 61.0795 120.079 61.3095C116.659 61.5195 113.069 61.9195 109.809 61.1695C106.239 60.3495 102.979 61.5395 99.5693 61.3895C96.0393 61.2295 92.4893 61.3195 88.9493 61.3595C86.7293 61.3795 84.6292 61.1295 82.7792 59.7295C82.4892 59.5095 81.7993 59.5295 81.4493 59.7295C79.2193 60.9895 76.8593 61.3795 74.3193 61.3795C52.9293 61.3395 31.5492 61.2295 10.1592 61.4295C3.63924 61.4895 -0.730802 56.7495 0.119198 50.0395C0.729198 45.2695 2.66927 40.9395 4.68927 36.6295C6.42927 32.8995 8.33925 29.3195 11.6692 26.6995C14.8592 24.1895 18.4192 22.9095 22.4892 23.1295C25.8892 23.3095 27.5793 25.7895 26.4293 28.9895C25.1993 32.4095 23.8792 35.7995 22.6192 39.1995C21.8592 41.2495 22.1892 41.7095 24.3592 41.7095C37.2992 41.7195 50.2493 41.7495 63.1893 41.7195C64.8993 41.7195 66.6393 41.6095 68.3093 41.2495C72.2493 40.4095 74.8792 37.8595 76.5892 34.3195C77.6992 32.0195 77.1793 29.9395 74.6993 29.0395C72.8093 28.3495 71.9092 26.4095 72.5192 24.4295C73.7892 20.2795 75.1792 16.1695 76.6092 12.0695C77.0992 10.6695 78.2892 9.75947 79.7392 9.78947C85.2092 9.87947 90.3292 10.9395 93.7492 15.8095C94.4292 16.7695 94.9792 17.8195 95.7292 19.0595C95.9292 18.5495 96.0992 18.3295 96.0892 18.1295C95.4992 11.1495 100.829 4.81947 106.819 2.40947C108.749 1.62947 110.879 1.05947 112.939 0.97947C117.909 0.77947 121.959 4.01947 123.059 8.83947C123.309 9.95947 123.819 10.1695 124.809 10.1595C130.319 10.1295 135.839 10.3395 141.339 10.0995C148.329 9.79947 153.699 14.3595 155.309 21.0895C155.529 21.9995 155.739 22.9095 156.029 24.1395C156.649 23.5995 157.069 23.2895 157.439 22.9195C163.359 16.9295 170.179 12.5395 178.569 10.8895C182.989 10.0195 187.379 9.89947 191.769 11.1795C200.419 13.7095 205.529 21.2595 204.429 30.2095C204.049 33.3095 203.449 36.3895 202.959 39.4695C202.689 41.1695 203.109 41.5995 204.809 41.7795C211.009 42.4495 214.009 38.3595 215.509 34.1095C216.359 31.7095 217.519 29.5695 219.789 28.2595C220.609 27.7895 221.539 27.2295 222.439 27.2095C226.199 27.1295 229.969 27.1595 233.729 27.3295C234.649 27.3695 234.929 27.1495 235.269 26.3895C236.629 23.3095 237.759 20.0695 239.549 17.2495C243.169 11.5695 248.719 9.80947 255.199 10.6395C258.089 11.0095 259.689 13.9795 258.609 16.8695C255.699 24.6195 252.759 32.3495 249.819 40.0795C248.959 42.3495 249.129 42.6395 251.589 42.8895C258.029 43.5295 262.219 41.0395 264.669 35.0395C265.699 32.5195 266.459 29.8495 269.009 28.3095C269.359 28.0995 269.679 27.8095 270.049 27.6895C274.299 26.3495 278.629 26.3395 282.849 27.5495C285.169 28.2095 287.269 31.8195 285.909 35.0795C284.199 39.1795 282.779 43.3795 280.219 47.0795C275.809 53.4395 269.999 57.9195 262.549 60.1495C261.459 60.4795 261.419 60.8995 261.419 61.9395C261.449 66.8295 259.869 71.1395 255.689 73.9595C254.369 74.8495 252.469 75.1695 250.809 75.2395C247.079 75.3895 243.329 75.2595 239.589 75.1595C235.119 75.0395 232.879 71.8995 234.309 67.6495C234.989 65.6195 235.959 63.6795 236.929 61.3895H236.959ZM22.5892 27.2995C21.7992 27.2995 21.2692 27.2395 20.7592 27.2995C15.9892 27.9295 12.7193 30.7095 10.5493 34.7795C8.88925 37.8895 7.40922 41.1095 6.13922 44.3995C5.11922 47.0595 4.02925 49.7895 4.54925 52.7795C5.00925 55.3795 6.73918 56.9395 9.34918 56.9395C31.0392 56.9595 52.7192 56.9695 74.4092 56.9395C78.0792 56.9395 81.3893 55.8495 83.8293 52.8795C83.9293 52.7595 84.1393 52.7295 84.3293 52.6495C84.9293 56.4395 85.5492 56.9595 89.4092 56.9695C92.8992 56.9695 96.3892 56.9695 99.8692 56.9695C103.969 56.9695 106.299 55.4195 107.579 51.4995C109.549 45.5095 111.369 39.4695 113.239 33.4495C113.899 31.3295 114.649 29.2295 115.109 27.0695C115.709 24.2895 114.199 22.5795 111.409 22.5895C110.889 22.5895 110.379 22.5895 109.859 22.5895C110.449 22.0595 111.049 21.8195 111.639 21.5495C114.839 20.0295 117.429 17.8795 118.859 14.5395C119.889 12.1295 120.169 9.68947 118.469 7.50947C116.709 5.24947 114.179 4.72947 111.489 5.18947C107.219 5.92947 103.939 8.26947 101.679 11.9295C99.0593 16.1695 99.5392 19.2295 103.279 22.5095C102.889 22.5495 102.609 22.6195 102.339 22.5895C99.7392 22.3395 98.1092 23.5995 97.1492 25.8895C96.7992 26.7295 96.4393 27.5695 96.1993 28.4395C94.7793 33.6495 93.3892 38.8695 92.0092 44.0895C91.6492 45.4695 90.9693 46.4995 89.4493 46.7195C88.5293 46.8495 88.0693 46.5695 88.4493 45.5295C88.9093 44.2495 89.3692 42.9595 89.7192 41.6495C91.0392 36.6295 92.7592 31.6895 92.7192 26.4095C92.6692 19.5595 88.7792 15.1595 81.9792 14.0795C80.8792 13.8995 80.4292 14.2295 80.1392 15.2495C79.4392 17.6695 78.6892 20.0795 77.8892 22.4695C77.6092 23.3095 77.8093 23.7495 78.5493 24.1795C80.3093 25.1895 81.2992 26.7995 81.7892 28.7395C83.5692 35.7095 78.5793 43.9395 71.4393 45.2595C68.0493 45.8895 64.5092 45.8995 61.0292 45.9095C47.2792 45.9695 33.5292 45.9095 19.7792 45.9095C17.2892 45.9095 16.7292 45.3195 17.3592 42.9095C18.0392 40.2795 18.8592 37.6795 19.7292 35.0995C20.5792 32.5895 21.5592 30.1195 22.5892 27.3395V27.2995ZM173.349 55.6295C173.399 55.7095 173.449 55.7895 173.499 55.8595C172.389 56.4895 171.319 57.1795 170.169 57.7295C167.269 59.1095 164.149 59.3395 160.999 59.4095C157.929 59.4795 156.659 60.4695 155.679 63.3895C155.229 64.7295 154.769 66.0595 154.309 67.3995C153.519 69.6895 154.129 70.7095 156.529 71.0595C157.029 71.1295 157.539 71.1395 158.039 71.1395C168.209 71.0895 176.849 67.8395 183.029 59.3395C184.879 56.7995 186.829 54.3295 188.739 51.8195C191.389 55.4495 192.189 56.4095 195.009 56.5495C199.629 56.7895 204.369 57.1395 208.879 56.3695C218.569 54.7095 225.019 48.5195 229.239 39.8995C230.159 38.0095 230.789 35.9495 231.319 33.9095C231.859 31.8195 230.999 30.8795 228.849 30.8295C228.089 30.8095 227.329 30.8295 226.579 30.8295C220.409 30.8295 220.369 30.8595 218.069 36.5895C214.929 44.4395 209.719 47.7095 201.359 47.0895C198.629 46.8895 197.589 45.5495 198.089 42.8695C198.799 39.0495 199.619 35.2495 200.169 31.4095C200.649 28.0295 200.539 24.6395 198.899 21.5095C196.719 17.3395 192.969 15.3995 188.549 14.6995C182.729 13.7795 177.149 14.8995 171.939 17.5595C163.919 21.6495 157.469 27.3795 154.219 36.0095C152.359 40.9295 152.469 45.8495 155.679 50.2895C158.499 54.1895 162.569 55.7595 167.239 55.9095C169.269 55.9695 171.309 55.7395 173.349 55.6395V55.6295ZM254.789 14.8395C251.569 14.4495 248.679 14.5795 246.109 16.5195C243.909 18.1795 242.259 20.2895 241.309 22.8295C238.129 31.3395 235.029 39.8795 231.979 48.4295C231.549 49.6395 231.379 50.9995 231.359 52.2895C231.289 55.2195 232.999 56.9195 235.929 56.9295C242.249 56.9595 248.569 57.0195 254.889 56.8895C257.089 56.8395 259.339 56.4995 261.459 55.8995C269.509 53.5895 275.079 48.2195 278.989 41.0295C280.139 38.9195 281.029 36.6295 281.729 34.3295C282.499 31.8195 281.609 30.8095 279.039 30.7995C277.469 30.7995 275.909 30.7895 274.339 30.7995C271.919 30.8195 270.479 31.8195 269.569 34.0495C268.979 35.4995 268.479 36.9995 267.749 38.3695C264.629 44.2595 260.009 47.6995 253.009 47.1695C250.989 47.0195 248.969 46.9295 246.949 46.8395C244.249 46.7195 243.399 45.5095 244.329 43.0095C247.579 34.3095 250.849 25.6195 254.099 16.9295C254.339 16.2895 254.519 15.6295 254.769 14.8395H254.789ZM111.719 56.7195C112.309 56.8195 112.599 56.9095 112.889 56.9095C116.069 56.9295 119.259 57.0195 122.439 56.9095C127.079 56.7595 131.609 56.0095 135.639 53.4895C143.149 48.7895 148.069 42.0495 150.719 33.6795C152.079 29.3695 152.459 24.9595 150.889 20.5895C149.509 16.7195 146.399 14.2995 142.669 14.2595C137.459 14.1995 132.259 14.2595 127.049 14.2195C126.079 14.2195 125.599 14.5495 125.389 15.5295C124.829 18.1495 124.239 20.7595 123.539 23.3395C123.179 24.6595 123.539 25.0395 124.869 25.0095C127.649 24.9495 130.429 24.9195 133.209 25.0395C138.859 25.2895 141.959 29.7595 140.299 35.1395C138.499 40.9795 131.329 46.2295 125.189 46.2195C122.309 46.2195 119.429 46.1795 116.549 46.2295C116.079 46.2295 115.329 46.5095 115.209 46.8395C114.009 50.0395 112.919 53.2795 111.729 56.7095L111.719 56.7195ZM203.549 70.6695C203.549 70.7195 203.549 70.7795 203.549 70.8295C207.789 70.8295 212.039 70.8395 216.279 70.8295C218.309 70.8295 219.899 69.7995 220.559 68.0495C221.129 66.5395 221.639 65.0095 222.109 63.4695C222.539 62.0895 222.009 61.0995 220.599 60.6695C220.029 60.4995 219.409 60.4395 218.809 60.4395C211.229 60.4395 203.659 60.4395 196.079 60.4595C195.179 60.4595 194.179 60.4395 193.399 60.8095C192.409 61.2795 191.249 61.9695 190.789 62.8795C189.909 64.6095 189.379 66.5495 188.859 68.4395C188.469 69.8595 189.179 70.6695 190.669 70.6795C194.959 70.6995 199.259 70.6795 203.549 70.6795V70.6695ZM115.239 41.9595C118.549 41.9595 121.679 42.0695 124.789 41.9295C129.899 41.6995 133.539 39.0495 135.759 34.5695C137.229 31.5995 135.759 29.4795 132.449 29.4395C130.379 29.4095 128.299 29.4895 126.229 29.4495C124.319 29.4195 122.369 29.4795 120.499 29.1595C119.289 28.9595 118.869 29.2495 118.559 30.3095C117.559 33.6995 116.509 37.0695 115.489 40.4495C115.369 40.8595 115.339 41.2995 115.239 41.9595ZM245.669 70.7595C245.669 70.7595 245.669 70.8295 245.669 70.8595C247.129 70.8595 248.599 70.8595 250.059 70.8595C253.499 70.8795 254.989 69.9295 256.309 66.7295C256.709 65.7595 257.009 64.7295 257.249 63.6995C257.679 61.8395 257.109 61.1295 255.229 61.1195C251.739 61.0995 248.259 61.0295 244.779 61.1895C243.799 61.2395 242.489 61.7795 241.969 62.5295C240.619 64.5095 239.549 66.6895 238.539 68.8695C237.949 70.1595 238.429 70.7195 239.909 70.7395C241.829 70.7795 243.749 70.7395 245.669 70.7395V70.7595Z" fill="#707173"/>
<path d="M49.0488 28.9291C45.0088 28.9291 40.9688 28.9491 36.9288 28.9291C31.5288 28.8991 28.9087 25.2191 30.6187 20.1191C31.0887 18.7291 31.5687 17.3491 32.0187 15.9591C33.1887 12.3591 35.8288 10.5791 39.4288 10.1991C41.6788 9.95914 43.9687 10.0191 46.2387 10.0091C51.9487 9.98914 57.6487 9.98914 63.3587 10.0091C64.4687 10.0091 65.5888 10.0291 66.6788 10.2191C70.7988 10.9091 73.0787 14.7591 71.7787 18.7291C71.3387 20.0691 70.8688 21.3991 70.4188 22.7391C69.0088 26.8291 66.0087 29.0091 61.6287 29.0691C59.5087 29.0991 57.3887 29.0691 55.2687 29.0691C53.1987 29.0691 51.1288 29.0691 49.0588 29.0691C49.0588 29.0291 49.0588 28.9991 49.0588 28.9591L49.0488 28.9291ZM49.3487 24.4591C49.3487 24.4591 49.3487 24.5491 49.3487 24.5891C53.4887 24.5891 57.6387 24.5891 61.7787 24.5891C64.1787 24.5891 65.6887 23.5491 66.4887 21.2991C66.9787 19.9191 67.4387 18.5291 67.8687 17.1291C68.2587 15.8391 67.7388 14.7991 66.4488 14.4091C65.7888 14.2091 65.0587 14.1691 64.3587 14.1591C57.3787 14.1491 50.4088 14.1491 43.4288 14.1591C42.3188 14.1591 41.1987 14.1591 40.0987 14.2891C38.1387 14.5191 36.6987 15.4391 36.1287 17.4791C35.7287 18.8891 35.1787 20.2491 34.7387 21.6391C34.1287 23.5391 34.7687 24.4291 36.7687 24.4391C40.9687 24.4591 45.1587 24.4391 49.3587 24.4391L49.3487 24.4591Z" fill="#707173"/>
<path d="M172.86 45.9391C167.82 45.8491 164.96 41.9491 166.25 36.9191C167.65 31.4591 173.23 26.5091 178.82 25.7791C184.53 25.0291 188.21 29.1791 186.76 34.7391C185.16 40.8591 178.73 46.0491 172.86 45.9491V45.9391ZM170.21 38.6891C170.16 41.0991 171.25 42.0091 173.41 41.7691C177.12 41.3491 181.53 37.5091 182.45 33.9091C183.16 31.1391 181.8 29.5991 178.98 30.2091C174.9 31.0991 172.1 33.6291 170.48 37.4491C170.27 37.9491 170.25 38.5191 170.22 38.6891H170.21Z" fill="#707173"/>
<path d="M170.218 38.6887C170.248 38.5187 170.268 37.9487 170.478 37.4487C172.098 33.6187 174.898 31.0887 178.978 30.2087C181.808 29.5987 183.158 31.1387 182.448 33.9087C181.528 37.5087 177.118 41.3487 173.408 41.7687C171.248 42.0187 170.168 41.0987 170.208 38.6887H170.218Z" fill="#707173"/>
</svg>
