<svg width="344" height="72" viewBox="0 0 344 72" fill="none" xmlns="http://www.w3.org/2000/svg">
<path d="M261.41 49.0002L248.57 36.1602L261.41 23.3202L274.25 36.1602L287.09 23.3202L274.25 10.4802C270.7 6.93016 266.05 5.16016 261.41 5.16016C256.76 5.16016 252.11 6.94016 248.57 10.4802L235.73 23.3202C228.64 30.4102 228.64 41.9102 235.73 49.0102L248.57 61.8502C252.12 65.4002 256.76 67.1702 261.41 67.1702C266.06 67.1702 270.71 65.3902 274.25 61.8502L287.09 49.0102L274.25 36.1702L261.41 49.0102V49.0002Z" fill="#707173"/>
<path d="M338.45 23.3202L325.61 10.4802C322.06 6.93016 317.42 5.16016 312.77 5.16016C308.12 5.16016 303.47 6.94016 299.93 10.4802L287.09 23.3202L299.93 36.1602L312.77 23.3202L325.61 36.1602L312.77 49.0002L299.93 36.1602L287.09 49.0002L299.93 61.8402C303.48 65.3902 308.13 67.1602 312.77 67.1602C317.42 67.1602 322.07 65.3802 325.61 61.8402L338.45 49.0002C345.54 41.9102 345.54 30.4102 338.45 23.3102V23.3202Z" fill="#707173"/>
<path d="M51.5591 32.9411C51.5591 33.8411 51.2491 34.6111 50.6191 35.2311C49.9991 35.8511 49.2491 36.1711 48.3891 36.1711H16.1791C15.2791 36.1711 14.5091 35.8611 13.8891 35.2311C13.2691 34.6111 12.9491 33.8411 12.9491 32.9411V16.8711L0.0390625 20.0311V32.9411C0.0390625 35.8711 0.759066 38.5711 2.19907 41.0411C3.63907 43.5111 5.59906 45.4711 8.06906 46.9111C10.5391 48.3511 13.2391 49.0711 16.1691 49.0711H48.3791C51.2591 49.0711 53.9391 48.3511 56.4191 46.9111C58.8891 45.4711 60.8591 43.5111 62.3291 41.0411C63.7891 38.5711 64.5191 35.8711 64.5191 32.9411V16.8711L51.5491 20.0311V32.9411H51.5591Z" fill="#707173"/>
<path d="M22.709 65.1413H32.329V71.6012L41.949 68.3713V55.5312H22.709V65.1413Z" fill="#707173"/>
<path d="M186.87 19.0305C184.4 17.5905 181.72 16.8705 178.84 16.8705H134.44L146.25 10.3505L139.8 0.730469L110.76 16.8705V29.7805H178.85C179.71 29.7805 180.45 30.0905 181.08 30.7205C181.7 31.3405 182.02 32.0905 182.02 32.9505C182.02 33.8505 181.71 34.6205 181.08 35.2405C180.46 35.8605 179.71 36.1805 178.85 36.1805H100.95V16.9505H84.8097C81.8797 16.9505 79.1797 17.6805 76.7097 19.1405C74.2397 20.6005 72.2797 22.5705 70.8397 25.0505C69.3997 27.5205 68.6797 30.2005 68.6797 33.0905C68.6797 36.1505 69.4497 38.9005 70.9997 41.3505C72.5497 43.8005 74.4397 45.7105 76.6797 47.0605C78.9197 48.4205 80.9997 49.0905 82.9397 49.0905H83.0697L71.5797 56.7105L78.6797 67.4205L100.95 52.6405V49.0905H178.85C181.73 49.0905 184.41 48.3705 186.88 46.9305C189.35 45.4905 191.32 43.5305 192.79 41.0605C194.25 38.5905 194.98 35.8905 194.98 32.9605C194.98 30.0305 194.25 27.4005 192.79 24.9205C191.33 22.4505 189.36 20.4905 186.88 19.0505L186.87 19.0305ZM88.0297 36.1705H84.7997C83.8997 36.1705 83.1297 35.8605 82.5097 35.2305C81.8897 34.6105 81.5697 33.8405 81.5697 32.9405C81.5697 32.0405 81.8797 31.3305 82.5097 30.6805C83.1297 30.0305 83.8997 29.7105 84.7997 29.7105H88.0297V36.1605V36.1705Z" fill="#707173"/>
</svg>
