<svg width="248" height="73" viewBox="0 0 248 73" fill="none" xmlns="http://www.w3.org/2000/svg">
<path d="M124.23 0.0291403C127.92 -0.0508597 131.13 1.14914 133.86 3.63914C134.05 3.82914 134.23 4.01914 134.42 4.19914L132.41 6.16914C130.19 3.91914 127.51 2.80914 124.38 2.83914C122.94 2.86914 121.56 3.14914 120.25 3.67914C117.55 4.79914 115.58 6.68914 114.35 9.33914C113.65 10.8691 113.31 12.4591 113.31 14.1191C113.31 17.2791 114.42 19.9491 116.64 22.1491C117.68 23.1891 118.87 23.9991 120.21 24.5591C123.15 25.7891 126.08 25.7491 129 24.4391C130.28 23.8491 131.41 23.0791 132.37 22.1091L134.38 24.0791C131.78 26.6991 128.65 28.0791 124.99 28.2091C122.96 28.2591 121 27.8991 119.13 27.1291C115.95 25.7891 113.58 23.5691 112.03 20.4691C111.01 18.4591 110.5 16.3391 110.5 14.0891C110.5 10.3991 111.77 7.18914 114.31 4.45914C115.7 2.98914 117.32 1.86914 119.17 1.08914C120.8 0.449142 122.49 0.0991408 124.23 0.0491408V0.0291403Z" fill="#707173"/>
<path d="M176.12 0.0783615H179.17L187.96 20.9484L196.71 0.0783615H199.76L189.48 24.5584L187.95 28.1684L176.11 0.0683594L176.12 0.0783615Z" fill="#707173"/>
<path d="M219.071 24.3984C216.151 25.7084 213.211 25.7384 210.241 24.4784C208.581 23.7584 207.161 22.6984 205.991 21.3084C206.391 20.2384 207.061 19.3684 208.001 18.6984C208.941 18.0284 210.261 17.5084 211.971 17.1284C212.611 16.9984 213.671 16.8184 215.141 16.6084C218.191 16.2384 220.371 15.6884 221.681 14.9584C222.961 14.2684 223.981 13.3284 224.731 12.1484C225.991 10.1184 226.201 8.02836 225.371 5.88836C225.051 5.05836 224.571 4.27836 223.931 3.55836C221.841 1.22836 218.741 0.0683594 214.621 0.0683594H214.541C211.541 0.0683594 208.811 0.968358 206.351 2.75836C203.431 4.89836 201.611 7.74836 200.891 11.3084C200.281 14.4084 200.661 17.4084 202.051 20.2984C203.581 23.4584 205.931 25.7184 209.111 27.0784C211.941 28.2584 214.861 28.4784 217.861 27.7584C221.111 26.9584 223.721 25.2184 225.691 22.5484L223.761 20.4184C222.551 22.1884 220.991 23.5084 219.061 24.3884L219.071 24.3984ZM204.301 18.4984C203.421 16.3784 203.2 14.1784 203.66 11.8784C204.09 9.73836 205.061 7.86836 206.591 6.25836C208.791 4.00836 211.451 2.88836 214.581 2.88836C215.761 2.88836 216.841 3.00836 217.831 3.24836C220.401 3.83836 222.031 5.05836 222.731 6.89836C222.911 7.37836 223.021 7.87836 223.051 8.38836C223.101 10.1584 222.211 11.5284 220.361 12.5184C219.561 12.9484 217.801 13.3584 215.101 13.7584C213.471 13.9984 212.23 14.1984 211.41 14.3584C209.32 14.8084 207.641 15.4984 206.351 16.4084C205.581 16.9684 204.891 17.6684 204.301 18.4984Z" fill="#707173"/>
<path d="M227.66 0.0800781H230.75L237.611 14.7301L244.43 0.0800781H247.521L239.131 18.0201L239.01 18.3401V28.1701H236.2V18.3401L236.041 18.0201L227.65 0.0800781H227.66Z" fill="#707173"/>
<path d="M154.45 0.0800781V18.8601C154.45 21.5901 153.42 23.8901 151.36 25.7601C149.54 27.3701 147.43 28.1701 145.02 28.1701C142.24 28.1701 139.91 27.1501 138.04 25.1201C136.41 23.3301 135.59 21.2401 135.59 18.8601V12.1801L135.56 12.1301C132.89 13.7601 130.62 14.8101 128.77 15.2701C125.93 15.9301 123.58 15.4301 121.72 13.7501C121.67 13.7201 121.64 13.6901 121.62 13.6701L123.53 11.5801C124.6 12.5901 125.97 12.9301 127.63 12.6201C127.79 12.5801 127.96 12.5401 128.12 12.5001C129.68 12.1301 131.66 11.2101 134.06 9.75008L135.58 8.81008H138.39V18.8701C138.39 20.9601 139.22 22.6501 140.88 23.9701C142.11 24.9101 143.49 25.3701 145.01 25.3701C147.18 25.3701 148.93 24.5301 150.27 22.8401C151.18 21.6901 151.63 20.3601 151.63 18.8701V0.0900764H154.44L154.45 0.0800781Z" fill="#707173"/>
<path d="M203.13 26.6401C202.43 27.2501 201.7 27.8301 200.92 28.3701C196.77 31.2301 192.21 32.4401 187.23 31.9801C186.96 31.9501 186.68 31.9301 186.39 31.9001C181.56 31.2801 177.4 29.2401 174.01 25.6901C174.01 25.6901 173.99 25.6701 173.98 25.6601L172.02 23.4001L168.89 19.7801C169.16 19.6701 169.42 19.5701 169.69 19.4601C170.46 19.0901 171.09 18.7401 171.58 18.4201C172.7 17.7001 173.64 16.7601 174.39 15.6101C175.35 14.2101 175.91 12.7301 176.07 11.1901C176.19 10.0501 176.1 8.88008 175.79 7.66008C175.77 7.56008 175.74 7.47008 175.71 7.38008C175.26 5.86008 174.49 4.50008 173.38 3.29008C171.4 1.17008 168.95 0.110078 166.03 0.0800781H157.2V28.1801H160.01V25.0501C160.01 24.4401 160.22 23.9001 160.65 23.4401C160.94 23.1301 161.36 22.8301 161.93 22.5201C162.21 22.3701 162.52 22.2201 162.86 22.0701C163.16 21.9401 163.79 21.7001 164.74 21.3601C165.14 21.2201 165.6 21.0501 166.11 20.8701L169.2 24.4501L171.19 26.7601C171.61 27.2401 172.05 27.7101 172.51 28.1701C172.64 28.3001 172.77 28.4301 172.91 28.5601C176.9 32.2201 181.58 34.3001 186.96 34.7801C188.24 34.8801 189.54 34.9001 190.85 34.8201C196.25 34.3901 200.96 32.3601 204.98 28.7201L203.09 26.6301L203.13 26.6401ZM164.76 18.3401C163.53 18.8001 162.59 19.1601 161.95 19.4201C161.88 19.4501 161.81 19.4801 161.75 19.5001C161.08 19.7701 160.51 20.0601 160.02 20.3801V2.88008H165.92C167.12 2.88008 168.26 3.15008 169.33 3.68008C170.53 4.30008 171.47 5.14008 172.13 6.18008C172.55 6.83008 172.86 7.56008 173.07 8.38008C173.15 8.71008 173.21 9.03008 173.24 9.36008C173.32 10.1401 173.28 10.9201 173.11 11.7101C172.6 13.8501 171.36 15.4401 169.38 16.4901C168.39 16.9701 166.85 17.5901 164.76 18.3401Z" fill="#707173"/>
<path d="M124.23 37.4588C127.92 37.3788 131.13 38.5788 133.86 41.0688C134.05 41.2588 134.23 41.4488 134.42 41.6288L132.41 43.5988C130.19 41.3488 127.51 40.2388 124.38 40.2688C122.94 40.2988 121.56 40.5788 120.25 41.1088C117.55 42.2288 115.58 44.1188 114.35 46.7688C113.65 48.2988 113.31 49.8888 113.31 51.5488C113.31 54.7088 114.42 57.3788 116.64 59.5788C117.68 60.6188 118.87 61.4288 120.21 61.9888C123.15 63.2188 126.08 63.1788 129 61.8688C130.28 61.2788 131.41 60.5088 132.37 59.5388L134.38 61.5088C131.78 64.1288 128.65 65.5088 124.99 65.6388C122.96 65.6888 121 65.3288 119.13 64.5588C115.95 63.2188 113.58 60.9988 112.03 57.8988C111.01 55.8888 110.5 53.7688 110.5 51.5188C110.5 47.8288 111.77 44.6188 114.31 41.8888C115.7 40.4188 117.32 39.2988 119.17 38.5188C120.8 37.8788 122.49 37.5288 124.23 37.4788V37.4588Z" fill="#707173"/>
<path d="M164.73 56.1183C165.67 55.4483 166.99 54.9283 168.7 54.5483C169.34 54.4183 170.4 54.2383 171.87 54.0283C174.92 53.6583 177.1 53.1083 178.41 52.3783C179.69 51.6883 180.71 50.7483 181.46 49.5683C182.72 47.5383 182.93 45.4483 182.1 43.3083C181.78 42.4783 181.3 41.6983 180.66 40.9783C178.57 38.6483 175.47 37.4883 171.35 37.4883H171.27C168.27 37.4883 165.54 38.3883 163.08 40.1783C160.16 42.3183 158.34 45.1683 157.62 48.7283C157 51.8383 157.39 54.8283 158.78 57.7183C160.31 60.8783 162.66 63.1383 165.84 64.4983C168.67 65.6783 171.59 65.8983 174.59 65.1783C177.09 64.5683 179.21 63.3983 180.94 61.6683L179.04 59.5683C178.1 60.4983 177.02 61.2383 175.79 61.8083C172.87 63.1183 169.93 63.1483 166.96 61.8883C165.3 61.1683 163.88 60.1083 162.71 58.7183C163.11 57.6483 163.78 56.7783 164.72 56.1083L164.73 56.1183ZM161.04 55.9183C160.16 53.8083 159.94 51.5983 160.4 49.2983C160.83 47.1583 161.8 45.2883 163.33 43.6783C165.52 41.4283 168.19 40.3083 171.32 40.3083C172.5 40.3083 173.58 40.4283 174.57 40.6683C177.14 41.2583 178.77 42.4783 179.47 44.3183C179.65 44.7983 179.76 45.2983 179.79 45.8083C179.84 47.5783 178.95 48.9583 177.1 49.9383C176.3 50.3683 174.54 50.7783 171.84 51.1783C170.21 51.4183 168.97 51.6183 168.15 51.7783C166.06 52.2383 164.38 52.9183 163.09 53.8283C162.31 54.3883 161.63 55.0883 161.04 55.9183Z" fill="#707173"/>
<path d="M196.15 37.459C199.82 37.459 203 38.719 205.7 41.229C205.83 41.359 205.95 41.499 206.06 41.629L204.09 43.599C201.87 41.379 199.22 40.269 196.14 40.269C192.74 40.269 190.52 41.389 189.48 43.639C189.16 44.359 189 45.129 189 45.929C189 47.159 189.41 48.059 190.24 48.619C190.43 48.749 190.64 48.869 190.88 48.979C191.82 49.459 193.64 49.939 196.34 50.419C199.26 50.929 201.33 51.529 202.56 52.229C202.59 52.259 202.61 52.269 202.64 52.269C204.65 53.419 205.76 55.149 205.97 57.449C206 57.719 206.01 57.989 206.01 58.249C206.01 60.419 205.03 62.199 203.08 63.589C202.97 63.669 202.87 63.739 202.76 63.789C200.89 64.989 198.61 65.599 195.94 65.599C192.25 65.599 189.06 64.339 186.39 61.829C186.23 61.699 186.1 61.559 185.99 61.429L188 59.459C190.19 61.679 192.84 62.789 195.95 62.789C198.09 62.789 199.87 62.339 201.29 61.429C202.57 60.569 203.22 59.519 203.22 58.259C203.22 56.819 202.76 55.759 201.86 55.089C201.67 54.959 201.48 54.839 201.3 54.729C200.31 54.169 198.5 53.659 195.88 53.199C193.02 52.689 191.05 52.179 189.98 51.669C189.85 51.589 189.73 51.539 189.62 51.509C187.75 50.519 186.64 49.019 186.29 47.009C186.24 46.639 186.21 46.269 186.21 45.929C186.21 43.519 187.16 41.499 189.06 39.869C190.93 38.259 193.3 37.459 196.16 37.459H196.15Z" fill="#707173"/>
<path d="M208.15 37.498H227.01V40.308H218.98V65.598H216.17V40.308H208.141V37.498H208.15Z" fill="#707173"/>
<path d="M183.1 64.058C182.4 64.668 181.67 65.248 180.89 65.788C176.74 68.648 172.18 69.858 167.2 69.398C166.93 69.368 166.65 69.348 166.36 69.318C161.53 68.698 157.37 66.658 153.98 63.108C153.98 63.108 153.96 63.088 153.95 63.078L151.99 60.818L148.86 57.198C149.13 57.088 149.39 56.988 149.66 56.878C150.43 56.508 151.06 56.158 151.55 55.838C152.67 55.118 153.61 54.178 154.36 53.028C155.32 51.628 155.88 50.148 156.04 48.608C156.16 47.468 156.07 46.298 155.76 45.078C155.74 44.978 155.71 44.8881 155.68 44.798C155.23 43.278 154.46 41.918 153.35 40.708C151.37 38.588 148.92 37.528 146 37.498H137.17V65.598H139.98V62.468C139.98 61.858 140.19 61.318 140.62 60.858C140.91 60.548 141.33 60.248 141.9 59.938C142.18 59.788 142.49 59.638 142.83 59.488C143.13 59.358 143.76 59.118 144.71 58.778C145.11 58.638 145.57 58.468 146.08 58.288L149.17 61.868L151.16 64.178C151.58 64.658 152.02 65.128 152.48 65.588C152.61 65.718 152.74 65.8481 152.88 65.9781C156.87 69.6381 161.55 71.718 166.93 72.198C168.21 72.298 169.51 72.318 170.82 72.238C176.22 71.808 180.93 69.778 184.95 66.138L183.06 64.048L183.1 64.058ZM144.73 55.758C143.5 56.218 142.56 56.578 141.92 56.838C141.85 56.868 141.78 56.898 141.72 56.918C141.05 57.188 140.48 57.4781 139.99 57.798V40.298H145.89C147.09 40.298 148.23 40.568 149.3 41.098C150.5 41.718 151.44 42.558 152.1 43.598C152.52 44.248 152.83 44.978 153.04 45.798C153.12 46.128 153.18 46.448 153.21 46.778C153.29 47.558 153.25 48.338 153.08 49.128C152.57 51.268 151.33 52.8581 149.35 53.9081C148.36 54.3881 146.82 55.008 144.73 55.758Z" fill="#707173"/>
<path d="M33.4194 45.8702C26.1994 45.8702 20.3596 40.0202 20.3596 32.8102C20.3596 25.6002 26.2094 19.7502 33.4194 19.7502C36.9894 19.7502 40.2296 21.1802 42.5796 23.5002L44.8994 21.2202C41.9494 18.3002 37.8894 16.4902 33.4094 16.4902C24.3994 16.4902 17.0996 23.7902 17.0996 32.8002C17.0996 41.8102 24.3994 49.1102 33.4094 49.1102C37.8694 49.1102 41.9096 47.3202 44.8496 44.4202L42.5295 42.1402C40.1795 44.4402 36.9594 45.8502 33.4094 45.8502L33.4194 45.8702Z" fill="#707173"/>
<path d="M62.7898 16.5C58.3098 16.5 54.2498 18.31 51.2998 21.23L53.6199 23.51C55.9799 21.19 59.2098 19.76 62.7798 19.76C69.9898 19.76 75.8398 25.61 75.8398 32.82C75.8398 40.03 69.9898 45.88 62.7798 45.88C59.2298 45.88 56.0197 44.47 53.6597 42.17C51.2297 39.8 49.7197 36.49 49.7197 32.82V26.65H46.4697L45.2898 27.39L44.7097 27.75C41.9297 29.44 39.6398 30.51 37.8298 30.94C37.6398 30.99 37.4498 31.03 37.2598 31.07C35.3298 31.43 33.7498 31.03 32.5098 29.87L30.2998 32.29C30.2998 32.29 30.3497 32.35 30.4097 32.38C32.5697 34.32 35.2798 34.91 38.5698 34.14C40.6798 33.61 43.2498 32.44 46.2798 30.6C46.3298 30.57 46.3797 30.54 46.4297 30.51L46.4697 30.57V32.82C46.4697 34.74 46.7997 36.59 47.4097 38.3C47.6097 38.86 47.8398 39.4 48.0898 39.93C48.9098 41.62 50.0098 43.15 51.3298 44.45C54.2798 47.34 58.3098 49.13 62.7698 49.13C71.7798 49.13 79.0798 41.83 79.0798 32.82C79.0798 23.81 71.7798 16.51 62.7698 16.51L62.7898 16.5Z" fill="#707173"/>
<path d="M62.79 0.0800781H33.4099C15.3599 0.0800781 0.669922 14.7701 0.669922 32.8201C0.669922 50.8701 15.3599 65.5601 33.4099 65.5601H62.79C80.84 65.5601 95.53 50.8701 95.53 32.8201C95.53 14.7701 80.84 0.0800781 62.79 0.0800781ZM62.79 62.3001H33.4099C17.1499 62.3001 3.92993 49.0701 3.92993 32.8201C3.92993 16.5701 17.1599 3.34008 33.4099 3.34008H62.79C79.05 3.34008 92.27 16.5701 92.27 32.8201C92.27 49.0701 79.04 62.3001 62.79 62.3001Z" fill="#707173"/>
</svg>
