<svg width="296" height="57" viewBox="0 0 296 57" fill="none" xmlns="http://www.w3.org/2000/svg">
<path d="M40.1801 0.0390625C42.3301 6.43906 43.49 13.1991 43.49 20.1791C43.49 27.1591 42.3401 33.9091 40.1801 40.3191H23.46C25.85 33.9591 27.14 27.1991 27.14 20.1791C27.14 13.1591 25.85 6.39906 23.46 0.0390625H40.1801Z" fill="#707173"/>
<path d="M17.0996 0.0390625H0.389648V56.2891H17.0996V0.0390625Z" fill="#707173"/>
<path d="M62.96 0.0390625H46.25V56.2891H62.96V0.0390625Z" fill="#707173"/>
<path d="M101.029 2.01961C103.129 2.96961 104.749 4.31961 105.879 6.06961C107.009 7.81961 107.579 9.88961 107.579 12.2796C107.579 14.6696 107.009 16.6996 105.879 18.4696C104.739 20.2296 103.129 21.5796 101.029 22.5196C98.9292 23.4596 96.4491 23.9196 93.5991 23.9196H87.1091V32.7996H79.6592V0.599609H93.5991C96.4491 0.599609 98.9292 1.07961 101.029 2.02961V2.01961ZM98.2892 16.3996C99.4592 15.4296 100.039 14.0596 100.039 12.2796C100.039 10.4996 99.4592 9.07961 98.2892 8.11961C97.1192 7.14961 95.4192 6.66961 93.1792 6.66961H87.1091V17.8496H93.1792C95.4192 17.8496 97.1192 17.3696 98.2892 16.3996Z" fill="#707173"/>
<path d="M118.969 31.1888C116.289 29.7488 114.189 27.7588 112.669 25.2288C111.149 22.6988 110.389 19.8588 110.389 16.6988C110.389 13.5388 111.149 10.6988 112.669 8.16883C114.189 5.63883 116.289 3.64883 118.969 2.20883C121.649 0.768828 124.669 0.0488281 128.009 0.0488281C131.349 0.0488281 134.359 0.768828 137.029 2.20883C139.699 3.64883 141.799 5.63883 143.329 8.16883C144.859 10.6988 145.629 13.5488 145.629 16.6988C145.629 19.8488 144.859 22.6988 143.329 25.2288C141.799 27.7588 139.699 29.7488 137.029 31.1888C134.359 32.6288 131.359 33.3488 128.009 33.3488C124.659 33.3488 121.649 32.6288 118.969 31.1888ZM133.159 25.6888C134.689 24.8188 135.899 23.5988 136.769 22.0288C137.639 20.4688 138.079 18.6888 138.079 16.6888C138.079 14.6888 137.639 12.9188 136.769 11.3488C135.899 9.78883 134.689 8.56883 133.159 7.68883C131.629 6.81883 129.909 6.37883 128.009 6.37883C126.109 6.37883 124.389 6.81883 122.859 7.68883C121.329 8.55883 120.119 9.77883 119.249 11.3488C118.379 12.9088 117.939 14.6888 117.939 16.6888C117.939 18.6888 118.379 20.4588 119.249 22.0288C120.119 23.5888 121.329 24.8088 122.859 25.6888C124.389 26.5588 126.109 26.9988 128.009 26.9988C129.909 26.9988 131.629 26.5588 133.159 25.6888Z" fill="#707173"/>
<path d="M148.369 0.587891H155.819V26.7179H171.969V32.7879H148.369V0.587891Z" fill="#707173"/>
<path d="M187.379 21.3896V32.7996H179.929V21.2996L167.459 0.599609H175.369L183.969 14.9096L192.569 0.599609H199.879L187.369 21.3896H187.379Z" fill="#707173"/>
<path d="M231.08 32.7994L231.03 13.4794L221.55 29.3994H218.189L208.76 13.8994V32.8094H201.77V0.609375H207.939L219.99 20.6194L231.86 0.609375H237.979L238.07 32.8094H231.08V32.7994Z" fill="#707173"/>
<path d="M265.819 26.8196V32.7996H240.879V0.599609H265.219V6.57961H248.289V13.5696H263.239V19.3696H248.289V26.8196H265.819Z" fill="#707173"/>
<path d="M277.509 6.65789H267.199V0.587891H295.259V6.65789H284.949V32.7879H277.499V6.65789H277.509Z" fill="#707173"/>
<path d="M81.7294 52.5187H79.6494V40.2188H82.8894L86.5994 47.9487L90.3094 40.2188H93.5294V52.5187H91.4495V42.9088L87.1494 51.4487H85.9894L81.7094 42.9088V52.5187H81.7294Z" fill="#707173"/>
<path d="M103.56 52.518H101.76V51.268C100.99 52.198 99.9498 52.6581 98.6398 52.6581C97.6698 52.6581 96.8597 52.378 96.2197 51.828C95.5797 51.278 95.2598 50.538 95.2598 49.618C95.2598 48.698 95.5998 48.008 96.2798 47.548C96.9598 47.088 97.8798 46.858 99.0398 46.858H101.59V46.508C101.59 45.268 100.9 44.638 99.5098 44.638C98.6398 44.638 97.7398 44.958 96.7998 45.588L95.9198 44.358C97.0598 43.458 98.3498 42.998 99.7898 42.998C100.89 42.998 101.79 43.278 102.49 43.838C103.19 44.398 103.54 45.268 103.54 46.468V52.508L103.56 52.518ZM101.59 49.038V48.248H99.3698C97.9498 48.248 97.2397 48.698 97.2397 49.588C97.2397 50.048 97.4198 50.398 97.7698 50.638C98.1198 50.878 98.6097 50.998 99.2397 50.998C99.8697 50.998 100.42 50.818 100.89 50.468C101.36 50.118 101.59 49.638 101.59 49.038Z" fill="#707173"/>
<path d="M107.57 47.4476V52.5176H105.6V43.1576H107.57V44.8676C107.89 44.2976 108.32 43.8376 108.88 43.5076C109.44 43.1776 110.04 43.0176 110.68 43.0176C111.74 43.0176 112.59 43.3376 113.24 43.9876C113.89 44.6376 114.22 45.5676 114.22 46.7876V52.5276H112.25V47.3876C112.25 45.6576 111.53 44.7976 110.1 44.7976C109.42 44.7976 108.83 45.0276 108.32 45.4776C107.82 45.9276 107.56 46.5876 107.56 47.4576L107.57 47.4476Z" fill="#707173"/>
<path d="M122.82 48.2284V43.1584H124.79V52.5184H122.82V50.8084C122.5 51.3884 122.07 51.8384 121.51 52.1684C120.95 52.4984 120.35 52.6584 119.71 52.6584C118.65 52.6584 117.8 52.3384 117.15 51.6884C116.5 51.0384 116.17 50.1084 116.17 48.8884V43.1484H118.14V48.2884C118.14 50.0184 118.86 50.8784 120.29 50.8784C120.97 50.8784 121.56 50.6484 122.07 50.1984C122.57 49.7484 122.83 49.0884 122.83 48.2184L122.82 48.2284Z" fill="#707173"/>
<path d="M129.37 42.379V43.149H131.83V44.729H129.37V52.509H127.4V44.729H126.22V43.149H127.4V42.429C127.4 41.439 127.7 40.659 128.29 40.079C128.88 39.499 129.6 39.209 130.44 39.209C131.28 39.209 132.04 39.519 132.74 40.139L131.93 41.529C131.54 41.119 131.14 40.909 130.72 40.909C130.3 40.909 129.97 41.039 129.73 41.309C129.5 41.569 129.38 41.929 129.38 42.379H129.37Z" fill="#707173"/>
<path d="M140.53 52.518H138.729V51.268C137.959 52.198 136.919 52.6581 135.609 52.6581C134.639 52.6581 133.83 52.378 133.19 51.828C132.55 51.278 132.229 50.538 132.229 49.618C132.229 48.698 132.57 48.008 133.25 47.548C133.93 47.088 134.85 46.858 136.01 46.858H138.56V46.508C138.56 45.268 137.869 44.638 136.479 44.638C135.609 44.638 134.71 44.958 133.77 45.588L132.89 44.358C134.03 43.458 135.32 42.998 136.76 42.998C137.86 42.998 138.759 43.278 139.459 43.838C140.159 44.398 140.51 45.268 140.51 46.468V52.508L140.53 52.518ZM138.56 49.038V48.248H136.339C134.919 48.248 134.209 48.698 134.209 49.588C134.209 50.048 134.39 50.398 134.74 50.638C135.09 50.878 135.579 50.998 136.209 50.998C136.839 50.998 137.389 50.818 137.859 50.468C138.329 50.118 138.56 49.638 138.56 49.038Z" fill="#707173"/>
<path d="M146.719 52.6578C145.419 52.6578 144.299 52.2178 143.359 51.3278C142.419 50.4378 141.949 49.2878 141.949 47.8478C141.949 46.4078 142.439 45.2478 143.419 44.3578C144.399 43.4578 145.589 43.0078 146.999 43.0078C148.409 43.0078 149.599 43.4978 150.569 44.4678L149.409 45.8978C148.599 45.1978 147.779 44.8378 146.959 44.8378C146.139 44.8378 145.429 45.1078 144.819 45.6578C144.219 46.2078 143.909 46.9078 143.909 47.7678C143.909 48.6278 144.209 49.3578 144.809 49.9578C145.409 50.5578 146.149 50.8578 147.019 50.8578C147.889 50.8578 148.719 50.4578 149.489 49.6578L150.649 50.9278C149.509 52.0778 148.199 52.6578 146.709 52.6578H146.719Z" fill="#707173"/>
<path d="M154.43 44.739V49.489C154.43 49.939 154.55 50.289 154.78 50.549C155.01 50.809 155.34 50.949 155.77 50.949C156.2 50.949 156.599 50.739 156.979 50.329L157.79 51.719C157.1 52.339 156.33 52.649 155.49 52.649C154.65 52.649 153.929 52.359 153.339 51.779C152.749 51.199 152.45 50.419 152.45 49.429V44.729H151.27V43.149H152.45V40.209H154.42V43.149H156.88V44.729H154.42L154.43 44.739Z" fill="#707173"/>
<path d="M165.2 48.2284V43.1584H167.17V52.5184H165.2V50.8084C164.88 51.3884 164.45 51.8384 163.89 52.1684C163.33 52.4984 162.73 52.6584 162.09 52.6584C161.03 52.6584 160.18 52.3384 159.53 51.6884C158.88 51.0384 158.55 50.1084 158.55 48.8884V43.1484H160.52V48.2884C160.52 50.0184 161.24 50.8784 162.67 50.8784C163.35 50.8784 163.94 50.6484 164.45 50.1984C164.95 49.7484 165.21 49.0884 165.21 48.2184L165.2 48.2284Z" fill="#707173"/>
<path d="M174.239 45.0076C173.269 45.0076 172.529 45.3276 172.039 45.9576C171.549 46.5876 171.299 47.4376 171.299 48.5076V52.5176H169.329V43.1576H171.299V45.0376C171.619 44.4476 172.049 43.9676 172.589 43.5976C173.139 43.2176 173.709 43.0276 174.319 43.0176L174.339 45.0076H174.229H174.239Z" fill="#707173"/>
<path d="M175.729 41.2882C175.479 41.0382 175.359 40.7482 175.359 40.4082C175.359 40.0682 175.479 39.7782 175.729 39.5282C175.979 39.2782 176.269 39.1582 176.609 39.1582C176.949 39.1582 177.239 39.2782 177.489 39.5282C177.739 39.7782 177.859 40.0682 177.859 40.4082C177.859 40.7482 177.739 41.0382 177.489 41.2882C177.239 41.5382 176.949 41.6582 176.609 41.6582C176.269 41.6582 175.979 41.5382 175.729 41.2882ZM177.579 52.5182H175.609V43.1582H177.579V52.5182Z" fill="#707173"/>
<path d="M181.7 47.4476V52.5176H179.729V43.1576H181.7V44.8676C182.02 44.2976 182.45 43.8376 183.01 43.5076C183.57 43.1776 184.17 43.0176 184.81 43.0176C185.87 43.0176 186.72 43.3376 187.37 43.9876C188.02 44.6376 188.349 45.5676 188.349 46.7876V52.5276H186.38V47.3876C186.38 45.6576 185.659 44.7976 184.229 44.7976C183.549 44.7976 182.96 45.0276 182.45 45.4776C181.95 45.9276 181.69 46.5876 181.69 47.4576L181.7 47.4476Z" fill="#707173"/>
<path d="M199.05 43.1578V51.3278C199.05 52.9778 198.6 54.2278 197.7 55.0478C196.8 55.8678 195.65 56.2878 194.24 56.2878C192.83 56.2878 191.56 55.8478 190.42 54.9678L191.35 53.4678C192.27 54.1578 193.19 54.5078 194.12 54.5078C195.05 54.5078 195.79 54.2678 196.34 53.7878C196.89 53.3078 197.16 52.5378 197.16 51.4778V50.2778C196.87 50.8278 196.45 51.2678 195.9 51.5978C195.35 51.9278 194.74 52.0878 194.06 52.0878C192.82 52.0878 191.79 51.6578 191 50.7878C190.2 49.9178 189.8 48.8378 189.8 47.5478C189.8 46.2578 190.2 45.1778 191 44.3078C191.8 43.4378 192.82 43.0078 194.05 43.0078C195.28 43.0078 196.29 43.5178 197.07 44.5378V43.1478H199.04L199.05 43.1578ZM191.74 47.4778C191.74 48.2478 191.98 48.9078 192.45 49.4678C192.93 50.0278 193.57 50.3078 194.37 50.3078C195.17 50.3078 195.82 50.0378 196.32 49.4978C196.82 48.9578 197.07 48.2878 197.07 47.4778C197.07 46.6678 196.82 45.9978 196.31 45.4378C195.81 44.8778 195.15 44.5978 194.36 44.5978C193.57 44.5978 192.93 44.8878 192.45 45.4578C191.97 46.0278 191.74 46.7078 191.74 47.4678V47.4778Z" fill="#707173"/>
<path d="M208.91 52.6582C207.76 52.6582 206.78 52.3382 205.97 51.6982C205.16 51.0582 204.76 50.1782 204.76 49.0682C204.76 47.7382 205.72 46.5582 207.65 45.5282C207.17 44.9782 206.83 44.5282 206.64 44.1682C206.45 43.8182 206.35 43.3682 206.35 42.8282C206.35 41.8882 206.7 41.1682 207.39 40.6682C208.08 40.1682 208.9 39.9082 209.84 39.9082C210.78 39.9082 211.58 40.1482 212.23 40.6282C212.88 41.1082 213.22 41.7882 213.22 42.6482C213.22 43.8082 212.28 44.9082 210.4 45.9382C211.34 47.0882 212.1 47.9682 212.69 48.5782C213.05 48.0382 213.34 47.4082 213.53 46.6982L214.97 47.7182C214.66 48.5282 214.32 49.2382 213.93 49.8482C214.4 50.3282 215 50.9082 215.73 51.5882L214.41 52.8182L212.79 51.2182C211.76 52.1682 210.47 52.6482 208.92 52.6482L208.91 52.6582ZM207.38 50.4482C207.83 50.7782 208.42 50.9482 209.16 50.9482C209.9 50.9482 210.69 50.6082 211.52 49.9282C210.34 48.6882 209.4 47.6382 208.7 46.7982C207.37 47.5182 206.71 48.2982 206.71 49.1582C206.71 49.6882 206.93 50.1182 207.38 50.4482ZM209.82 41.4782C209.43 41.4782 209.07 41.5982 208.76 41.8482C208.45 42.0982 208.29 42.3782 208.29 42.7082C208.29 43.0382 208.37 43.3382 208.53 43.5982C208.69 43.8582 208.96 44.2282 209.35 44.6982C210.68 44.0382 211.34 43.4282 211.34 42.8682C211.34 42.3982 211.18 42.0482 210.87 41.8182C210.56 41.5882 210.21 41.4782 209.81 41.4782H209.82Z" fill="#707173"/>
<path d="M221.229 40.2188H223.31V52.5187H221.229V40.2188Z" fill="#707173"/>
<path d="M227.62 47.4476V52.5176H225.649V43.1576H227.62V44.8676C227.94 44.2976 228.369 43.8376 228.929 43.5076C229.489 43.1776 230.089 43.0176 230.729 43.0176C231.789 43.0176 232.64 43.3376 233.29 43.9876C233.94 44.6376 234.27 45.5676 234.27 46.7876V52.5276H232.3V47.3876C232.3 45.6576 231.579 44.7976 230.149 44.7976C229.469 44.7976 228.88 45.0276 228.37 45.4776C227.86 45.9276 227.61 46.5876 227.61 47.4576L227.62 47.4476Z" fill="#707173"/>
<path d="M237.04 51.329C236.16 50.439 235.72 49.259 235.72 47.809C235.72 46.359 236.17 45.189 237.08 44.319C237.98 43.449 239.06 43.019 240.31 43.019C241.56 43.019 242.57 43.549 243.33 44.599V39.459H245.3V52.519H243.33V51.109C242.6 52.139 241.54 52.659 240.14 52.659C238.96 52.659 237.92 52.209 237.04 51.319V51.329ZM237.69 47.889C237.69 48.789 237.98 49.519 238.55 50.079C239.12 50.639 239.8 50.919 240.57 50.919C241.34 50.919 242 50.639 242.54 50.069C243.08 49.499 243.35 48.769 243.35 47.879C243.35 46.989 243.08 46.239 242.54 45.639C242 45.039 241.34 44.739 240.55 44.739C239.76 44.739 239.09 45.039 238.53 45.639C237.97 46.239 237.68 46.989 237.68 47.889H237.69Z" fill="#707173"/>
<path d="M253.99 48.2284V43.1584H255.96V52.5184H253.99V50.8084C253.67 51.3884 253.24 51.8384 252.68 52.1684C252.12 52.4984 251.52 52.6584 250.88 52.6584C249.82 52.6584 248.97 52.3384 248.32 51.6884C247.67 51.0384 247.34 50.1084 247.34 48.8884V43.1484H249.31V48.2884C249.31 50.0184 250.03 50.8784 251.46 50.8784C252.14 50.8784 252.73 50.6484 253.24 50.1984C253.74 49.7484 254 49.0884 254 48.2184L253.99 48.2284Z" fill="#707173"/>
<path d="M264.78 49.7178C264.78 50.6078 264.46 51.3178 263.81 51.8578C263.16 52.3878 262.34 52.6578 261.33 52.6578C260.65 52.6578 259.94 52.5378 259.21 52.2878C258.48 52.0378 257.83 51.6978 257.26 51.2478L258.21 49.7178C259.3 50.5378 260.36 50.9478 261.38 50.9478C261.83 50.9478 262.18 50.8478 262.44 50.6378C262.7 50.4278 262.83 50.1678 262.83 49.8578C262.83 49.3878 262.21 48.9678 260.96 48.5878C260.87 48.5478 260.8 48.5278 260.75 48.5178C258.8 47.9878 257.83 47.1078 257.83 45.8778C257.83 45.0078 258.17 44.3178 258.84 43.7878C259.51 43.2678 260.39 43.0078 261.47 43.0078C262.55 43.0078 263.57 43.3278 264.53 43.9578L263.79 45.4178C263.03 44.9178 262.2 44.6578 261.31 44.6578C260.84 44.6578 260.46 44.7478 260.17 44.9078C259.88 45.0778 259.73 45.3378 259.73 45.6778C259.73 45.9878 259.88 46.2078 260.19 46.3478C260.4 46.4578 260.7 46.5578 261.08 46.6478C261.46 46.7378 261.8 46.8378 262.09 46.9278C262.38 47.0178 262.67 47.1278 262.94 47.2478C263.22 47.3678 263.51 47.5278 263.83 47.7378C264.46 48.1578 264.78 48.8178 264.78 49.7078V49.7178Z" fill="#707173"/>
<path d="M268.739 44.739V49.489C268.739 49.939 268.859 50.289 269.089 50.549C269.319 50.809 269.649 50.949 270.079 50.949C270.509 50.949 270.909 50.739 271.289 50.329L272.099 51.719C271.409 52.339 270.639 52.649 269.799 52.649C268.959 52.649 268.239 52.359 267.649 51.779C267.059 51.199 266.759 50.419 266.759 49.429V44.729H265.579V43.149H266.759V40.209H268.729V43.149H271.189V44.729H268.729L268.739 44.739Z" fill="#707173"/>
<path d="M277.88 45.0076C276.91 45.0076 276.17 45.3276 275.68 45.9576C275.19 46.5876 274.94 47.4376 274.94 48.5076V52.5176H272.97V43.1576H274.94V45.0376C275.26 44.4476 275.69 43.9676 276.23 43.5976C276.78 43.2176 277.35 43.0276 277.96 43.0176L277.98 45.0076H277.87H277.88Z" fill="#707173"/>
<path d="M279.369 41.2882C279.119 41.0382 278.999 40.7482 278.999 40.4082C278.999 40.0682 279.119 39.7782 279.369 39.5282C279.619 39.2782 279.909 39.1582 280.249 39.1582C280.589 39.1582 280.879 39.2782 281.129 39.5282C281.379 39.7782 281.499 40.0682 281.499 40.4082C281.499 40.7482 281.379 41.0382 281.129 41.2882C280.879 41.5382 280.589 41.6582 280.249 41.6582C279.909 41.6582 279.619 41.5382 279.369 41.2882ZM281.219 52.5182H279.249V43.1582H281.219V52.5182Z" fill="#707173"/>
<path d="M290.959 52.518H289.159V51.268C288.389 52.198 287.349 52.6581 286.039 52.6581C285.069 52.6581 284.259 52.378 283.619 51.828C282.979 51.278 282.659 50.538 282.659 49.618C282.659 48.698 282.999 48.008 283.679 47.548C284.359 47.088 285.279 46.858 286.439 46.858H288.989V46.508C288.989 45.268 288.299 44.638 286.909 44.638C286.039 44.638 285.139 44.958 284.199 45.588L283.319 44.358C284.459 43.458 285.749 42.998 287.189 42.998C288.289 42.998 289.189 43.278 289.889 43.838C290.589 44.398 290.939 45.268 290.939 46.468V52.508L290.959 52.518ZM288.989 49.038V48.248H286.769C285.349 48.248 284.639 48.698 284.639 49.588C284.639 50.048 284.819 50.398 285.169 50.638C285.519 50.878 286.009 50.998 286.639 50.998C287.269 50.998 287.819 50.818 288.289 50.468C288.759 50.118 288.989 49.638 288.989 49.038Z" fill="#707173"/>
<path d="M294.969 52.519H292.999V39.459H294.969V52.519Z" fill="#707173"/>
</svg>
