<svg width="297" height="29" viewBox="0 0 297 29" fill="none" xmlns="http://www.w3.org/2000/svg">
<path d="M147.171 19.7598H142.971V23.9598V28.1498H147.171H151.371V23.9598V19.7598H147.171Z" fill="#707173"/>
<path d="M232.479 0.179924H201.709V28.1499H207.299V16.9599H240.869V28.1499H246.459V14.1599C246.459 6.44993 240.189 0.169922 232.469 0.169922L232.479 0.179924ZM207.299 5.76992H232.479C236.129 5.76992 239.239 8.10992 240.389 11.3599H207.299V5.76992Z" fill="#707173"/>
<path d="M282.789 0.179924H252.059V28.1499H282.789C290.499 28.1499 296.779 21.8799 296.779 14.1599C296.779 6.43993 290.509 0.169922 282.789 0.169922V0.179924ZM282.789 22.5599H257.649V5.77992H282.789C287.419 5.77992 291.179 9.53992 291.179 14.1699C291.179 18.7999 287.419 22.5599 282.789 22.5599Z" fill="#707173"/>
<path d="M162.739 22.5595H196.109V28.1595H156.949V25.3595C156.949 17.4595 160.609 10.3995 166.319 5.77945H156.949V0.189453H196.109V5.77945H182.119C172.269 5.77945 164.099 13.0895 162.739 22.5595Z" fill="#707173"/>
<path d="M75.8599 0.179924H45.0898V28.1499H50.6798V16.9599H84.2498V28.1499H89.8398V14.1599C89.8398 6.44993 83.5699 0.169922 75.8499 0.169922L75.8599 0.179924ZM50.6798 5.76992H75.8599C79.5099 5.76992 82.6198 8.10992 83.7698 11.3599H50.6798V5.76992Z" fill="#707173"/>
<path d="M140.159 14.1599C140.159 6.44993 133.889 0.169922 126.169 0.169922H95.4395V28.1399H126.169C133.879 28.1399 140.159 21.8699 140.159 14.1499V14.1599ZM101.039 5.76992H126.18C130.81 5.76992 134.57 9.52993 134.57 14.1599C134.57 18.7899 130.81 22.5499 126.18 22.5499H101.039V5.76992Z" fill="#707173"/>
<path d="M39.5001 14.1599C39.5001 6.44993 33.2301 0.169922 25.5101 0.169922H0.330078V28.1399H5.93005V16.9499H23.0001C24.3001 23.3299 29.9501 28.1399 36.7101 28.1399H39.5101V22.5399H36.7101C33.0601 22.5399 29.9501 20.1999 28.8001 16.9499H39.5101V14.1499L39.5001 14.1599ZM5.93005 11.3599V5.75992H25.5101C29.1601 5.75992 32.2701 8.09992 33.4201 11.3599H5.9201H5.93005Z" fill="#707173"/>
</svg>
