<svg width="202" height="108" viewBox="0 0 202 108" fill="none" xmlns="http://www.w3.org/2000/svg">
<path d="M139.591 6.15977C139.541 6.08977 139.161 5.51976 138.601 4.97976C135.731 2.20976 131.821 0.509766 127.511 0.509766C124.761 0.509766 122.181 1.19977 119.921 2.41977C118.411 3.22977 117.081 4.32977 115.911 5.57977C115.911 5.57977 83.6609 40.0398 83.3909 40.2798C83.3909 40.2798 83.3809 40.2798 83.3809 40.2898C82.1909 41.3598 80.6109 42.0198 78.8809 42.0198C78.7809 42.0198 78.6708 42.0198 78.5708 42.0098C77.6708 41.9698 76.8108 41.7498 76.0308 41.3898C75.5008 41.1398 75.0008 40.8298 74.5508 40.4598L77.2908 43.3798L77.8508 43.9798H77.8608L78.6409 44.8198L78.6907 44.8698C78.7607 44.9398 78.8306 44.9998 78.9006 45.0698C81.7706 47.8098 85.6707 49.5098 89.9607 49.5098C94.2507 49.5098 97.9007 47.9198 100.741 45.3298C100.771 45.3098 100.791 45.2898 100.801 45.2698C100.941 45.1498 101.071 45.0198 101.201 44.8898C101.201 44.8898 135.211 8.97976 135.311 8.88976C136.591 7.61976 138.161 6.11977 139.601 6.16977L139.591 6.15977Z" fill="#707173"/>
<path d="M102.602 46.7896C105.152 48.5096 108.221 49.5096 111.521 49.5096C115.901 49.5096 119.871 47.7396 122.771 44.8896H122.781L125.441 42.0196L116.292 32.3496L102.602 46.7896Z" fill="#707173"/>
<path d="M140.321 6.92969L117.881 30.6697L127.021 40.3297L139.361 27.1597C139.821 26.6697 140.261 26.1597 140.641 25.6097C142.441 23.0197 143.491 19.8797 143.491 16.4997C143.491 12.9097 142.301 9.59969 140.311 6.92969H140.321Z" fill="#707173"/>
<path d="M77.291 40.2798C79.141 40.2798 80.821 39.5298 82.041 38.3198C82.131 38.2298 112.571 5.73977 112.571 5.73977C109.651 2.51977 105.431 0.509766 100.741 0.509766C96.051 0.509766 92.0809 2.40976 89.1609 5.46976C89.1609 5.46976 71.9811 23.8098 71.8811 23.9098C70.6011 25.1798 68.8311 25.9498 66.8611 25.8698L85.751 5.70976C82.831 2.51976 78.6309 0.519766 73.9609 0.519766C69.7009 0.519766 65.8309 2.18976 62.9609 4.89977C59.8809 7.80976 57.9609 11.9398 57.9609 16.5098C57.9609 19.2598 58.6611 21.8498 59.8811 24.1098C60.5311 25.3098 61.371 26.3998 62.301 27.3998C64.891 30.1498 73.0309 38.7898 73.1809 38.9098C73.8109 39.3898 74.531 39.7698 75.311 40.0098C75.931 40.1998 76.591 40.2998 77.271 40.2998L77.291 40.2798Z" fill="#707173"/>
<path d="M65.2595 74.0098C58.7795 74.0098 53.5195 79.2798 53.5195 85.7498V94.4298C53.5195 96.1198 54.8896 97.4898 56.5796 97.4898C58.2696 97.4898 59.6396 96.1198 59.6396 94.4298V85.7498C59.6396 82.6498 62.1595 80.1298 65.2595 80.1298C66.9495 80.1298 68.3196 78.7598 68.3196 77.0698C68.3196 75.3798 66.9495 74.0098 65.2595 74.0098Z" fill="#707173"/>
<path d="M91.8105 74.0195C90.1205 74.0195 88.7505 75.3895 88.7505 77.0795V85.7595C88.7505 88.8595 86.2306 91.3795 83.1306 91.3795C80.0306 91.3795 77.5105 88.8595 77.5105 85.7595V77.0795C77.5105 75.3895 76.1404 74.0195 74.4504 74.0195C72.7604 74.0195 71.3906 75.3895 71.3906 77.0795V85.7595C71.3906 92.2395 76.6606 97.4995 83.1306 97.4995C85.1606 97.4995 87.0805 96.9795 88.7505 96.0695C88.7505 99.1795 86.2306 101.7 83.1306 101.7C81.4406 101.7 80.0706 103.07 80.0706 104.76C80.0706 106.45 81.4406 107.82 83.1306 107.82C89.6106 107.82 94.8706 102.55 94.8706 96.0795V87.3995C94.8706 87.2095 94.8505 87.0295 94.8105 86.8495C94.8405 86.4895 94.8706 86.1295 94.8706 85.7595V77.0795C94.8706 75.3895 93.5005 74.0195 91.8105 74.0195Z" fill="#707173"/>
<path d="M12.1599 74.0195C5.67991 74.0195 0.419922 79.2895 0.419922 85.7595C0.419922 92.2295 5.68991 97.4995 12.1599 97.4995C13.8499 97.4995 15.22 96.1295 15.22 94.4395C15.22 92.7495 13.8499 91.3795 12.1599 91.3795C9.05991 91.3795 6.54004 88.8595 6.54004 85.7595C6.54004 82.6595 9.05991 80.1395 12.1599 80.1395C15.2599 80.1395 17.78 82.6595 17.78 85.7595V94.4395C17.78 96.1295 19.1501 97.4995 20.8401 97.4995C22.5301 97.4995 23.8999 96.1295 23.8999 94.4395V85.7595C23.8999 79.2795 18.6299 74.0195 12.1599 74.0195Z" fill="#707173"/>
<path d="M38.7107 74.0195C37.0207 74.0195 35.6506 75.3895 35.6506 77.0795C35.6506 78.7695 37.0207 80.1395 38.7107 80.1395C41.8107 80.1395 44.3308 82.6595 44.3308 85.7595C44.3308 88.8595 41.8107 91.3795 38.7107 91.3795C35.6107 91.3795 33.0908 88.8595 33.0908 85.7595V77.0795C33.0908 75.3895 31.7208 74.0195 30.0308 74.0195C28.3408 74.0195 26.9707 75.3895 26.9707 77.0795V85.7595C26.9707 92.2395 32.2407 97.4995 38.7107 97.4995C45.1807 97.4995 50.4507 92.2295 50.4507 85.7595C50.4507 79.2895 45.1807 74.0195 38.7107 74.0195Z" fill="#707173"/>
<path d="M189.33 74.0195C182.85 74.0195 177.59 79.2895 177.59 85.7595V94.4395C177.59 96.1295 178.96 97.4995 180.65 97.4995C182.34 97.4995 183.71 96.1295 183.71 94.4395V85.7595C183.71 82.6595 186.23 80.1395 189.33 80.1395C192.43 80.1395 194.95 82.6595 194.95 85.7595V94.4395C194.95 96.1295 196.32 97.4995 198.01 97.4995C199.7 97.4995 201.07 96.1295 201.07 94.4395V85.7595C201.07 79.2795 195.8 74.0195 189.33 74.0195Z" fill="#707173"/>
<path d="M162.779 74.0195C156.299 74.0195 151.039 79.2895 151.039 85.7595C151.039 92.2295 156.309 97.4995 162.779 97.4995C164.469 97.4995 165.839 96.1295 165.839 94.4395C165.839 92.7495 164.469 91.3795 162.779 91.3795C159.679 91.3795 157.159 88.8595 157.159 85.7595C157.159 82.6595 159.679 80.1395 162.779 80.1395C165.879 80.1395 168.399 82.6595 168.399 85.7595V94.4395C168.399 96.1295 169.769 97.4995 171.459 97.4995C173.149 97.4995 174.519 96.1295 174.519 94.4395V85.7595C174.519 79.2795 169.249 74.0195 162.779 74.0195Z" fill="#707173"/>
<path d="M146.441 74.4297C144.971 73.5797 143.101 74.0897 142.261 75.5497L136.231 88.3197L130.201 75.5497C129.651 74.5997 128.641 74.0197 127.551 74.0197C126.461 74.0197 125.451 74.5997 124.901 75.5497L118.871 88.3197L112.841 75.5497C111.991 74.0797 110.121 73.5797 108.661 74.4297C107.201 75.2797 106.691 77.1497 107.541 78.6097L116.221 95.9697C116.771 96.9197 117.781 97.4997 118.871 97.4997C119.961 97.4997 120.971 96.9197 121.521 95.9697L127.551 83.1997L133.581 95.9697C134.131 96.9197 135.141 97.4997 136.231 97.4997C137.321 97.4997 138.341 96.9197 138.881 95.9697L147.561 78.6097C148.411 77.1497 147.901 75.2697 146.441 74.4297Z" fill="#707173"/>
</svg>
